<?xml version="1.0" encoding="utf-8"?>
<!-- Generator: Adobe Illustrator 26.0.2, SVG Export Plug-In . SVG Version: 6.00 Build 0)  -->
<svg version="1.1" id="ALL" xmlns="http://www.w3.org/2000/svg" xmlns:xlink="http://www.w3.org/1999/xlink" x="0px" y="0px"
	 viewBox="0 0 229.92 129.6" style="enable-background:new 0 0 229.92 129.6;" xml:space="preserve">
<style type="text/css">
	.st0{fill-rule:evenodd;clip-rule:evenodd;fill:#374797;}
</style>
<g id="Layer_1">
	<g>
		<path class="st0" d="M115.64,35.22c-0.01-0.01-0.02-0.01-0.03-0.02c0,0.01,0,0.02,0,0.03c0.01,0,0.02,0,0.03,0
			C115.64,35.23,115.64,35.22,115.64,35.22z"/>
		<path class="st0" d="M112.03,42.52c0.24,0.24,0.69-0.34,0.75-0.52c-0.07-0.04-0.44,0.31-0.56,0.37c-0.1-0.08-0.09-0.24-0.09-0.34
			c0.24-0.23,0.69-0.28,0.61-0.79c-0.03-0.19-0.06-0.23-0.18-0.32c-0.03,0-0.06-0.01-0.08-0.01c-0.16,0.12-0.3,0.24-0.38,0.43
			c-0.08,0.19-0.07,0.46-0.25,0.56c0.01,0.08,0.07,0.09,0.08,0.15C111.96,42.21,111.91,42.4,112.03,42.52z M112.48,41.14
			c0.01,0,0.01,0,0.02,0c0.16,0.25-0.14,0.56-0.34,0.64c-0.01,0.01-0.01,0.01-0.02,0.02C112.23,41.54,112.27,41.3,112.48,41.14z"/>
		<path class="st0" d="M112.96,43.33c0.14-0.02,0.17-0.11,0.24-0.2c0.05-0.07,0.15-0.13,0.2-0.21c0.18-0.29,0.15-0.76,0.25-1.09
			c0.04-0.11,0.23-0.35,0.16-0.46c-0.03-0.05-0.16-0.12-0.22-0.14c-0.19,0.07-0.32,0.08-0.45,0.19c-0.23,0.18-0.17,0.75,0.02,0.9
			c0.09-0.01,0.18-0.07,0.2-0.15c0.01,0,0.02,0,0.03,0c-0.01,0.22-0.04,0.48-0.14,0.66c-0.06,0.11-0.19,0.17-0.24,0.31
			c0,0-0.01,0-0.01,0c-0.01-0.06-0.03-0.11-0.04-0.17c-0.01-0.01-0.03-0.03-0.04-0.04c-0.03,0.01-0.06,0.02-0.08,0.03
			c-0.05,0.11-0.02,0.21,0,0.33C112.87,43.31,112.92,43.34,112.96,43.33z M113.26,42.07c-0.01,0.01-0.03,0.02-0.04,0.03
			c0,0-0.01,0-0.01,0c-0.09-0.3-0.03-0.52,0.24-0.66c0.04,0,0.07,0.01,0.11,0.01C113.58,41.71,113.33,41.87,113.26,42.07z"/>
		<path class="st0" d="M114,43.07c-0.06-0.04-0.09-0.1-0.09-0.19c-0.04-0.02-0.1-0.02-0.17-0.01c-0.05,0.37,0.19,0.57,0.44,0.26
			c0.24-0.29,0.24-0.74,0.36-1.09c0.04-0.13-0.01-0.33,0.12-0.37c0.01-0.09-0.01-0.14-0.02-0.22c-0.07-0.04-0.12-0.07-0.24-0.06
			c-0.1,0.07-0.2,0.13-0.3,0.2c-0.13,0.17-0.27,0.68-0.02,0.79c0.08-0.03,0.13-0.06,0.2-0.08c0-0.01-0.01-0.01-0.01-0.02
			C114.36,42.38,114.11,43,114,43.07z M114.18,42.11c-0.01,0.01-0.02,0.01-0.03,0.02c-0.08-0.26,0.07-0.4,0.21-0.51
			C114.45,41.67,114.22,42.02,114.18,42.11z"/>
		<path class="st0" d="M114.56,42.55c-0.02,0.01-0.04,0.03-0.05,0.04c-0.03,0.15,0,0.28,0.12,0.36c0.46,0.09,0.38-0.88,0.51-1.12
			c0.05-0.04,0.11-0.08,0.16-0.12c0.2,0.04,0.12,0.21,0.33,0.04c-0.01-0.18-0.15-0.26-0.36-0.25c-0.06,0.05-0.15,0.06-0.2,0.13
			c-0.23,0.27-0.23,0.75-0.3,1.11c-0.02,0-0.04,0-0.05,0C114.67,42.64,114.64,42.6,114.56,42.55z"/>
		<path class="st0" d="M115.16,42.3c0,0.01-0.01,0.01-0.01,0.02c0,0,0,0.01,0,0.01c0.01,0,0.03,0,0.04,0c0,0,0-0.01,0-0.01
			C115.18,42.31,115.17,42.3,115.16,42.3z"/>
		<path class="st0" d="M125.26,44.02c-0.01,0-0.02,0-0.03,0c0,0.01,0,0.02,0,0.03c0,0,0.01,0,0.01,0
			C125.25,44.04,125.26,44.03,125.26,44.02z"/>
		<path class="st0" d="M113.6,44.11c-0.02,0-0.04-0.01-0.05-0.01c-0.09,0.07-0.18,0.14-0.26,0.21c-0.02,0.09-0.05,0.18-0.07,0.26
			c-0.23,0.35-0.39,0.75-0.62,1.04c0,0.03-0.01,0.06-0.01,0.09c0.19,0.14,0.59,0.06,0.9,0.08c0.03,0.25,0.06,0.5,0.08,0.75
			c0,0.12-0.01,0.23-0.01,0.35c0.03,0.16,0.07,0.36,0.05,0.55c-0.02,0.26-0.04,0.76,0.02,1.07c0.02,0.13,0.03,0.83,0.12,0.97
			c0,0.08-0.01,0.17-0.01,0.25c0.03,0.18,0.06,0.36,0.08,0.54c-0.05,0.51,0.03,1.18,0.12,1.69c0,0.09,0,0.19,0,0.28
			c0.11,0.43,0.22,0.86,0.33,1.29c0.1,0.43,0.09,0.79,0.18,1.21c0.02,0.18,0.04,0.36,0.06,0.54c0,0.09-0.01,0.19-0.01,0.28
			c0.04,0.16,0.08,0.35,0.04,0.53c-0.02,0.08-0.06,0.16-0.07,0.23c0,0.24,0.01,0.47,0.01,0.71c-0.02,0.25-0.12,0.51-0.03,0.72
			c0.02,0.03,0.03,0.04,0.06,0.05c0.04-0.01,0.08-0.02,0.12-0.03c0.08-0.41-0.07-0.84,0-1.2c0.15-0.79,0.03-1.53-0.12-2.3
			c-0.05-0.27-0.04-0.57-0.08-0.8c-0.1-0.38-0.2-0.75-0.3-1.13c-0.05-0.59-0.1-1.18-0.15-1.77c0.02-0.27-0.07-0.57-0.06-0.78
			c-0.02-0.26-0.04-0.52-0.05-0.78c-0.1-0.73-0.08-1.62-0.09-2.28c-0.02-0.3-0.05-0.6-0.07-0.91c0-0.01-0.01-0.03-0.01-0.04
			c0.18,0.01,0.28,0.05,0.46,0.01c0.01-0.03,0.03-0.06,0.04-0.08c-0.13-0.4-0.35-0.72-0.52-1.08
			C113.57,44.43,113.72,44.29,113.6,44.11z"/>
		<path class="st0" d="M124.12,46.35c0.02,0.01,0.05,0.03,0.07,0.04c0.2-0.11,0.31-0.41,0.42-0.61c0.29-0.52,0.55-1.07,0.9-1.53
			c-0.01-0.09-0.04-0.12-0.13-0.13c-0.46,0.34-0.56,1.05-0.85,1.49c-0.14,0.21-0.37,0.48-0.41,0.73
			C124.12,46.34,124.12,46.34,124.12,46.35z"/>
		<path class="st0" d="M124.76,44.38c0.02-0.02,0.03-0.02,0.07-0.02c0.05-0.09,0.07-0.2-0.07-0.2c-0.02,0.01-0.04,0.01-0.05,0.02
			c-0.03,0.05-0.04,0.1-0.03,0.19C124.71,44.39,124.71,44.39,124.76,44.38z"/>
		<path class="st0" d="M115.64,44.21c0.01-0.01,0.01-0.01,0.02-0.02c-0.01,0-0.01,0-0.02,0C115.64,44.19,115.64,44.2,115.64,44.21z"
			/>
		<path class="st0" d="M122.39,45.51c0.12-0.16,0.45-0.56,0.5-0.71c0.01,0,0.03-0.01,0.04-0.01c-0.02,0.21-0.22,0.61-0.15,0.74
			c0.01,0.01,0.01,0.01,0.02,0.02c0.02,0,0.05,0.01,0.07,0.01c0.16-0.25,0.33-0.58,0.59-0.73c0,0,0.01,0,0.01,0
			c0,0.16-0.28,0.79-0.12,0.9c0.12,0.03,0.24-0.14,0.33-0.19c-0.04,0.18-0.11,0.38-0.05,0.58c0.01,0.01,0.01,0.01,0.02,0.02
			c0.02,0,0.05-0.01,0.07-0.01c0.02-0.04,0.05-0.08,0.07-0.13c0.03-0.07-0.05-0.19,0.02-0.32c0,0,0.01-0.01,0.02-0.03
			c0,0-0.01,0.01-0.01,0.01c0-0.01,0.01-0.01,0.01-0.02c0,0,0.01,0,0.01,0c0.08-0.12,0.33-0.48,0.36-0.6c0,0-0.01-0.01-0.01-0.01
			c-0.02-0.04-0.04-0.04-0.08-0.05c-0.04-0.01-0.52,0.39-0.58,0.45c-0.01,0-0.03,0-0.04,0c0.05-0.13,0.21-0.49,0.18-0.66
			c0.03-0.06-0.01-0.11-0.04-0.14c-0.24-0.04-0.4,0.28-0.57,0.38c0-0.24,0.13-0.3,0.17-0.58c-0.02-0.02-0.04-0.05-0.06-0.07
			c-0.11-0.02-0.18,0-0.2,0.06c-0.05-0.04-0.09-0.06-0.16-0.07c-0.06,0.08-0.11,0.15-0.17,0.23c-0.09,0.19-0.24,0.68-0.38,0.77
			c0,0.06,0.01,0.09,0.04,0.12C122.33,45.53,122.33,45.52,122.39,45.51z"/>
		<path class="st0" d="M124.65,46.37c0.01,0.06,0.03,0.07,0.06,0.11c0.09-0.01,0.06-0.06,0.11-0.08c0.01,0,0.08,0.01,0.13-0.02
			c0.05,0.09,0.44,0.47,0.58,0.47c0.02-0.04,0.05-0.08,0.07-0.13c0-0.01,0.01-0.02,0.01-0.03c-0.19-0.14-0.48-0.35-0.45-0.63
			c0.25-0.19,0.53-0.2,0.85-0.25c0-0.05,0-0.09,0-0.14c0.02,0,0.04,0.01,0.05,0.01c-0.15-0.23-0.66,0.06-0.82,0.08
			c0.07-0.15,0.2-0.26,0.28-0.4c0.16-0.26,0.31-0.52,0.44-0.78c-0.03-0.01-0.09-0.05-0.18-0.05c-0.2,0.27-0.37,0.59-0.54,0.86
			C125.07,45.68,124.77,45.98,124.65,46.37z"/>
		<polygon class="st0" points="123.86,45.65 123.86,45.65 123.85,45.66 		"/>
		<path class="st0" d="M111,45.89c0,0.01,0,0.01,0,0.02c0.01-0.01,0.01-0.01,0.02-0.02C111.02,45.89,111.01,45.89,111,45.89z"/>
		<path class="st0" d="M117.86,58.17c0.32-0.54,0.45-1.19,0.76-1.75c0.24-0.43,0.46-0.9,0.66-1.38c0.11-0.26,0.2-0.51,0.33-0.77
			c0.02-0.04-0.01-0.1,0.01-0.13c0.1-0.18,0.23-0.41,0.3-0.62c0.08-0.23,0.1-0.49,0.2-0.73c0.12-0.28,0.26-0.55,0.39-0.83
			c0.08-0.26,0.15-0.52,0.23-0.78c0.07-0.18,0.21-0.35,0.27-0.56c0.07-0.22,0.08-0.43,0.16-0.66c0.1-0.27,0.25-0.51,0.34-0.79
			c0.03-0.15,0.06-0.3,0.09-0.44c0.08-0.17,0.19-0.35,0.25-0.57c0.16-0.04,0.33,0.08,0.55,0.04c0.08-0.08,0.04-0.88-0.01-1.05
			c-0.03-0.12-0.15-0.31-0.15-0.44c-0.03,0-0.06-0.01-0.09-0.01c-0.14,0.12-0.29,0.18-0.42,0.31c-0.1,0.1-0.14,0.29-0.22,0.38
			c-0.11,0.11-0.26,0.12-0.36,0.24c0.07,0.1,0.41,0.34,0.53,0.38c0.05,0.14-0.11,0.39-0.16,0.51c-0.09,0.22-0.09,0.48-0.19,0.71
			c-0.09,0.22-0.22,0.46-0.31,0.7c-0.07,0.2-0.06,0.42-0.14,0.62c-0.04,0.09-0.08,0.26-0.14,0.36c-0.04,0.05-0.08,0.11-0.13,0.16
			c-0.13,0.34-0.15,0.67-0.32,1.02c-0.09,0.18-0.23,0.4-0.3,0.58c-0.12,0.36-0.2,0.81-0.36,1.14c-0.06,0.11-0.16,0.26-0.21,0.37
			c-0.14,0.29-0.19,0.57-0.34,0.83c-0.01,0.07-0.03,0.13-0.04,0.2c-0.07,0.14-0.2,0.31-0.25,0.45c0,0.04-0.01,0.08-0.01,0.12
			c-0.32,0.5-0.52,1.13-0.81,1.68c-0.01,0.06-0.03,0.13-0.04,0.19c-0.09,0.15-0.27,0.37-0.25,0.57c0.01,0.01,0.01,0.01,0.02,0.02
			C117.76,58.2,117.81,58.18,117.86,58.17z"/>
		<path class="st0" d="M121.62,47.05c0,0.01-0.01,0.01-0.01,0.02c0.01,0.01,0.03,0.01,0.04,0.02
			C121.64,47.06,121.66,47.07,121.62,47.05z"/>
		<path class="st0" d="M114.88,47.29c0.01-0.01,0.01-0.01,0.02-0.02c-0.01,0-0.01,0-0.02,0C114.88,47.27,114.88,47.28,114.88,47.29z
			"/>
		<path class="st0" d="M104.33,50.15c0,0.01-0.01,0.02-0.01,0.03C104.33,50.16,104.32,50.17,104.33,50.15z"/>
		<path class="st0" d="M104.37,50.2c0.01,0.01,0.03,0.03,0.04,0.04C104.39,50.2,104.41,50.21,104.37,50.2z"/>
		<path class="st0" d="M118.66,52.41c0,0.01,0,0.01,0,0.02c0.01-0.01,0.01-0.01,0.02-0.02C118.67,52.41,118.67,52.41,118.66,52.41z"
			/>
		<path class="st0" d="M134.27,55.91c0.36,0.16,0.47-0.28,0.7-0.37c0.01-0.01,0.01-0.01,0.02-0.02c0.02,0.07,0,0.1,0.07,0.14
			c0.03,0,0.06,0,0.08,0c0.09-0.05,0.05-0.33,0.08-0.44c0.08-0.23,0.23-0.28,0.34-0.44c-0.03-0.05-0.1-0.08-0.17-0.09
			c-0.09,0.1-0.2,0.21-0.26,0.34c-0.01,0-0.01,0.01-0.02,0.01c-0.02-0.08-0.04-0.15-0.06-0.23c-0.06,0.02-0.1,0.06-0.14,0.07
			c-0.03,0.18,0.04,0.39,0.07,0.56c-0.22,0.11-0.38,0.31-0.62,0.32c-0.4-0.37-0.25-1.1,0.35-1.14c0.04-0.07,0.05-0.1,0.05-0.19
			c-0.04-0.02-0.07-0.04-0.11-0.05c-0.16,0.07-0.29,0.09-0.41,0.19C133.89,54.85,133.84,55.66,134.27,55.91z"/>
		<path class="st0" d="M132.33,54.45c0,0.01-0.01,0.03-0.01,0.04C132.36,54.47,132.35,54.48,132.33,54.45z"/>
		<path class="st0" d="M137.4,54.6c-0.01,0-0.01,0-0.02,0C137.4,54.6,137.38,54.61,137.4,54.6z"/>
		<path class="st0" d="M121.42,59.26c-0.2,0.13-0.51,0.16-0.58,0.41c0.02,0.03,0.04,0.06,0.06,0.08c0.1-0.01,0.12-0.09,0.19-0.12
			c0.03,0.01,0.06,0.02,0.09,0.03c0.03-0.01,0.06-0.03,0.08-0.04c-0.02-0.03-0.01-0.02-0.05-0.03c0-0.01-0.01-0.01-0.01-0.02
			c0.15-0.11,0.49-0.31,0.68-0.27c0.02-0.09,0.02-0.07,0.13-0.05c0-0.01-0.01-0.03-0.01-0.04c0.14-0.15,1-0.45,1.18-0.42
			c0-0.02-0.01-0.04-0.01-0.05c0.11-0.01,0.68-0.29,0.74-0.19c0.02-0.01,0.04-0.02,0.01-0.03c0.01-0.07,0.3-0.22,0.4-0.2
			c0.23,0.04,0.64-0.43,0.91-0.31c0.08-0.09,0.25-0.17,0.37-0.21c0.05-0.02,0.14,0.01,0.17-0.01c0.1-0.06,0.29-0.15,0.41-0.18
			c0.04,0,0.08,0.01,0.13,0.01c0.27-0.13,0.66-0.34,1.02-0.37c0.21-0.01,0.45-0.3,0.69-0.2c0.05-0.11,0.19-0.07,0.26-0.16
			c0.05,0.04,0.1,0.07,0.15,0.11c0.01,0,0.01-0.01,0.02-0.01c-0.02-0.03-0.04-0.06-0.05-0.08c0.07-0.12,0.57-0.29,0.72-0.35
			c0.04,0,0.08,0,0.13,0c0.36-0.2,0.82-0.36,1.22-0.52c0.24-0.1,0.53-0.12,0.71-0.25c0.03,0.01,0.05,0.03,0.09,0.05
			c-0.01-0.02-0.01-0.04-0.02-0.06c0.2-0.09,0.66-0.28,0.92-0.28c0.12,0.12,0.4,0.65,0.53,0.65c0.16-0.17,0.31-0.37,0.42-0.59
			c0.04-0.11,0.08-0.21,0.12-0.32c0.07-0.1,0.22-0.07,0.27-0.21c-0.19-0.22-0.79-0.23-1.12-0.33c-0.07,0-0.14,0.01-0.21,0.01
			c-0.08-0.02-0.11-0.09-0.22-0.09c-0.01,0.03-0.03,0.06-0.04,0.08c-0.09,0.01-0.19,0.02-0.28,0.03c-0.01,0.02-0.02,0.05-0.03,0.07
			c0,0.03,0.01,0.06,0.01,0.08c0.14,0.13,0.27,0.26,0.41,0.39c-0.05,0.08-0.62,0.22-0.76,0.26c-0.45,0.14-0.96,0.33-1.5,0.55
			c-0.42,0.17-0.85,0.36-1.26,0.54c-0.59,0.27-1.22,0.37-1.84,0.61c-1.14,0.44-2.31,0.84-3.42,1.29
			C122.62,58.77,121.95,58.91,121.42,59.26z"/>
		<path class="st0" d="M135.54,55.07c0.18,0.19,0.49,0.73,0.86,0.44c0.1-0.08,0.2-0.12,0.25-0.24c0,0,0.01,0,0.01,0
			c0.06,0.07,0.12,0.14,0.18,0.21c0.33,0.21,0.47-0.01,0.66-0.17c0.07,0.07,0.06,0.12,0.18,0.14c0.13-0.1,0.21-0.29,0.31-0.42
			c0.01,0,0.01,0,0.02,0c0.14,0.13,0.14,0.3,0.3,0.41c0.26-0.04,0.3-0.34,0.47-0.47c0.12,0.16,0.28,0.41,0.54,0.42
			c0-0.01,0.01-0.03,0.01-0.04c-0.07-0.15-0.18-0.22-0.26-0.35c-0.03-0.09-0.06-0.18-0.09-0.26c-0.04-0.02-0.08-0.04-0.13-0.06
			c-0.21,0.14-0.29,0.4-0.5,0.54c-0.09-0.13-0.11-0.35-0.24-0.43c-0.02-0.01-0.04-0.01-0.06-0.02c-0.14,0.07-0.2,0.23-0.32,0.33
			c-0.02-0.05-0.04-0.1-0.06-0.15c-0.2-0.04-0.27,0.33-0.43,0.42c-0.28,0.15-0.39-0.17-0.39-0.42c-0.09-0.06-0.18-0.12-0.24-0.21
			c-0.29-0.01-0.48,0.37-0.42,0.65c0,0-0.01,0.01-0.01,0.01c-0.19-0.01-0.3-0.13-0.31-0.33c0.09-0.1,0.16-0.19,0.24-0.31
			c-0.01-0.09-0.04-0.08-0.08-0.14c-0.03,0-0.06,0-0.08,0c-0.07,0.04-0.15,0.06-0.2,0.12c-0.08,0.08-0.02,0.2-0.17,0.22
			C135.56,54.99,135.55,55.03,135.54,55.07z M136.47,54.96c0.02-0.01,0.05-0.03,0.07-0.04c0.01,0,0.03,0.01,0.04,0.01
			c0.06,0.12-0.11,0.33-0.22,0.35C136.39,55.15,136.43,55.06,136.47,54.96z"/>
		<path class="st0" d="M131.1,55.92c0,0.01-0.01,0.01-0.01,0.02c0.01,0.01,0.01,0.01,0.02,0.02c0-0.01,0.01-0.01,0.01-0.02
			C131.11,55.94,131.1,55.93,131.1,55.92z"/>
		<path class="st0" d="M129.47,56.47c0,0.01,0,0.01,0,0.02c0.01,0,0.02-0.01,0.03-0.01c0,0,0-0.01,0-0.01
			C129.49,56.47,129.48,56.47,129.47,56.47z"/>
		<path class="st0" d="M129.11,56.61c0,0.01,0,0.01,0,0.02c0.01,0,0.02-0.01,0.03-0.01c0,0,0-0.01,0-0.01
			C129.13,56.61,129.12,56.61,129.11,56.61z"/>
		<path class="st0" d="M114.02,57.53c0-0.01-0.01-0.01-0.01-0.02c0,0.01-0.01,0.01-0.01,0.02C114,57.53,114.01,57.53,114.02,57.53z"
			/>
		<path class="st0" d="M114.95,58.76c-0.12,0.08-0.75,0.23-0.82,0.21c-0.03-0.03-0.4-0.07-0.49-0.05c-0.11,0.03-0.22,0.06-0.33,0.08
			c-0.02,0.04-0.03,0.06-0.03,0.13c0.01,0.01,0.02,0.03,0.03,0.04c0.17-0.02,0.72-0.09,0.82-0.16c0.13,0.1,0.67-0.06,0.8-0.06
			c0,0.01,0.01,0.01,0.01,0.02c-0.17,0.06-0.34,0.13-0.51,0.19c-0.13,0.03-0.28,0-0.39,0.01c-0.01,0.01-0.01,0.03-0.02,0.04
			c0.08,0.11,0.14,0.22,0.07,0.34c0.01,0.04,0,0.02,0.02,0.04c0.12,0.1,0.33,0.04,0.42-0.04c0,0,0.01,0,0.01,0
			c0,0.08,0.01,0.16,0.01,0.24c0.08,0.02,0.11,0.06,0.15,0.12c-0.04,0.06-0.06,0.12-0.09,0.16c0.03,0.05,0.02,0.14,0.09,0.17
			c-0.06,0.05-0.16,0.04-0.28,0.04c-0.01,0.01-0.02,0.02-0.03,0.03c0.01,0.09,0.06,0.14,0.08,0.21c0,0.06,0,0.13,0,0.19
			c0.03,0.01,0.06,0.03,0.09,0.04c0.26-0.13,0.47-0.2,0.79-0.18c0-0.01,0-0.01,0-0.02c0.09-0.12-0.03-0.31-0.04-0.44
			c-0.09-0.1-0.19-0.02-0.33-0.04c0.01-0.09,0.01-0.19,0.02-0.28c-0.03-0.05-0.05-0.05-0.09-0.09c-0.01-0.01-0.01-0.01-0.02-0.02
			c0.14-0.06,0.25-0.17,0.41-0.22c0.02-0.09-0.06-0.45-0.17-0.49c-0.01-0.01-0.01-0.02-0.02-0.03c0,0,0-0.01,0-0.01
			c0.07,0.01,0.09,0.04,0.14,0.06c0.09-0.04,0.18-0.07,0.26-0.11c0.16,0.02,0.32,0.04,0.47,0.05c0.28,0.06,0.92,0.31,1.13,0.26
			c0.01,0.05,0.01,0.06,0.05,0.11c0.01,0,0.03,0,0.04,0c0.02-0.03,0.04-0.06,0.05-0.08c-0.02-0.11-0.09-0.12-0.13-0.21
			c-0.27-0.05-0.58-0.14-0.86-0.11c-0.18-0.09-0.34-0.13-0.57-0.14c0.06-0.08,0.19-0.12,0.27-0.18c-0.01-0.02-0.01-0.04-0.02-0.06
			c-0.03-0.01-0.06-0.02-0.08-0.03c-0.28,0.12-0.83,0.05-1.03,0.22C114.88,58.74,114.9,58.75,114.95,58.76z M114.76,59.45
			c0.02,0,0.05,0,0.07,0C114.81,59.48,114.8,59.47,114.76,59.45z"/>
		<path class="st0" d="M116.43,58.73c-0.01,0-0.03,0-0.04,0c0,0.01,0,0.02,0,0.03c0.01,0,0.03,0,0.04,0
			C116.43,58.75,116.43,58.74,116.43,58.73z"/>
		<path class="st0" d="M113.11,59.04c0,0.02,0,0.05,0,0.07c0.01,0.01,0.02,0.02,0.03,0.03c0.02,0.03,0.06,0,0.11-0.01
			c0-0.01,0.01-0.01,0.01-0.02c-0.01-0.04-0.01-0.07-0.02-0.11c-0.02-0.01-0.05-0.01-0.07-0.02C113.15,59,113.13,59.02,113.11,59.04
			z"/>
		<path class="st0" d="M115.31,59.05c0,0,0.01,0,0.01,0c-0.01-0.04,0-0.02-0.03-0.04C115.29,59.02,115.3,59.03,115.31,59.05z"/>
		<path class="st0" d="M115.41,59.13c-0.01,0.01-0.02,0.03-0.03,0.04c0,0.02-0.01,0.05-0.01,0.07c0,0,0,0.01,0,0.01
			c0.06,0.02,0.11,0.04,0.17,0.06c0.05-0.04,0.1-0.07,0.15-0.11c0.01,0,0.01-0.01,0.02-0.01c-0.03-0.03-0.06-0.07-0.11-0.08
			c0,0.01,0.01,0.03,0.01,0.04c0,0,0,0.01,0,0.01C115.52,59.17,115.47,59.16,115.41,59.13z"/>
		<path class="st0" d="M113.83,59.2c0.02,0.02,0.01,0.01,0.05,0.02c-0.01-0.01-0.02-0.02-0.03-0.03
			C113.84,59.2,113.84,59.2,113.83,59.2z"/>
		<path class="st0" d="M115.86,59.2c-0.1,0.05-0.22,0.07-0.27,0.16c-0.01,0.01-0.01,0.03-0.02,0.04c0.02,0.01,0.04,0.01,0.05,0.02
			c0.13,0.04,0.25-0.07,0.38-0.07c0.12,0.01,0.24,0.02,0.36,0.03c0,0,0,0.01,0,0.01c-0.14,0.04-0.25,0.04-0.42,0.03
			c0.04,0.11,0.26,0.25,0.39,0.26c0.08-0.09,0.1-0.1,0.13-0.21c0.01,0,0.01-0.01,0.02-0.01c0,0.02,0,0.04,0,0.05
			c0.12,0.05,0.2-0.05,0.35-0.05c0,0.01,0.01,0.01,0.01,0.02c-0.27,0.03-0.26,0.29-0.42,0.39c0.01-0.15-0.3-0.14-0.44-0.2
			c-0.01,0-0.01,0-0.02,0c0-0.03,0-0.02,0.02-0.05c-0.09-0.09-0.3-0.07-0.37-0.2c-0.15-0.01-0.17,0.03-0.28,0.06
			c-0.05,0.1-0.05,0.18-0.05,0.3c0.06,0.06,0.18,0.11,0.24,0.15c0.05,0,0.08-0.01,0.11-0.04c0.07,0.04,0.02,0.1,0.11,0.15
			c-0.04,0.07-0.08,0.14-0.13,0.21c-0.03,0.09,0.03,0.14,0.02,0.18c-0.05,0.16-0.14,0.3-0.18,0.5c-0.02,0.02-0.02,0.01-0.05,0.02
			c0,0.04,0,0.03,0.01,0.06c-0.02,0.02-0.05,0.04-0.07,0.05c-0.01,0-0.03,0.01-0.04,0.01c-0.03-0.16-0.01-0.21,0.03-0.35
			c-0.08-0.06-0.21-0.02-0.33,0c-0.02,0.14-0.11,0.19-0.14,0.32c-0.02,0.07,0.13,0.51,0.18,0.54c0.02,0.02,0.04,0.02,0.07,0.03
			c0,0,0.01,0,0.01,0c0.01-0.01,0.01-0.02,0.02-0.03c-0.03-0.04-0.06-0.07-0.08-0.11c0.45,0.21,0.45,0.07,0.85,0.01
			c-0.02-0.65,0.17-0.94,0.31-1.51c0.1,0.02,0.17,0.01,0.2-0.08c0.05,0.06-0.07,0.34-0.05,0.47c0.02,0,0.05,0,0.07,0
			c-0.13,0.17-0.37,0.73,0.03,0.86c0.19,0.06,0.52-0.09,0.57-0.06c-0.08,0.01-0.13,0.05-0.17,0.09c0.04,0.06,0.1,0.07,0.14,0.14
			c0.01,0,0.02,0,0.03,0c0.06-0.08,0.32-0.26,0.33-0.32c0.01,0.05,0.01,0.09,0.02,0.14c0.02,0.01,0.04,0.01,0.06,0.02
			c0.11-0.16,0.32-0.58,0.25-0.74c0.02-0.02,0.04-0.04,0.06-0.05c-0.01-0.07-0.03-0.14-0.04-0.21c-0.17-0.12-0.1,0.19-0.23,0.25
			c0.01,0.28-0.12,0.32-0.2,0.53c-0.01,0-0.01,0.01-0.02,0.01c-0.03-0.02-0.06-0.05-0.09-0.07c-0.03-0.02-0.02-0.03-0.02-0.08
			c0.07-0.01,0.07-0.02,0.12-0.04c-0.03-0.15-0.03-0.32,0.01-0.49c-0.05-0.08-0.11-0.13-0.2-0.17c-0.02,0-0.04,0-0.05,0
			c0.02,0.12,0.05,0.25,0.07,0.37c-0.1-0.08-0.19-0.39-0.09-0.47c0-0.01,0-0.02,0-0.03c0.04,0.01,0.04,0,0.05,0.02
			c0.04,0,0.11,0.12,0.18,0.16c0.01,0,0.01-0.01,0.02-0.01c0.02-0.07,0.01-0.2,0.03-0.26c0.02-0.02,0.04-0.04,0.05-0.06
			c0.04,0.03,0.06,0.05,0.13,0.05c0.01-0.02,0.01-0.04,0.02-0.06c0.07,0.03,0.13,0.12,0.21,0.09c0.05-0.05,0.04-0.13,0.02-0.21
			c-0.15-0.04-0.23-0.15-0.33-0.23c-0.05-0.07-0.23-0.07-0.32-0.11C116.7,59.25,116.37,59.2,115.86,59.2z M115.59,61.23
			c0.04,0.01,0.02,0.01,0.04,0.03C115.59,61.25,115.61,61.27,115.59,61.23z M116.22,59.95c0-0.01,0.01-0.02,0.01-0.03
			c0.01,0,0.01,0,0.02,0C116.24,59.93,116.23,59.94,116.22,59.95z M116.43,60.35c0.02-0.03,0.13-0.38,0.13-0.38
			c0.07,0.09,0.01,0.23,0.05,0.32c-0.02,0-0.05,0-0.07,0c-0.03,0.03-0.02,0.06-0.01,0.11C116.5,60.38,116.47,60.37,116.43,60.35z
			 M116.5,60.93c0-0.01,0.01-0.01,0.01-0.02c0,0.01,0.01,0.01,0.01,0.02C116.51,60.93,116.5,60.93,116.5,60.93z M116.52,60.81
			c0-0.01,0.01-0.01,0.01-0.02c0,0.01,0.01,0.01,0.01,0.02C116.53,60.81,116.53,60.81,116.52,60.81z M116.67,60.55
			c-0.01,0.01-0.02,0.01-0.03,0.02c-0.06-0.04-0.1-0.07-0.12-0.16c0.05,0.03,0.06,0.03,0.11,0.01c0.02,0.03,0.04,0.06,0.05,0.08
			C116.67,60.53,116.67,60.54,116.67,60.55z M117.04,61.12c0.01,0,0.02,0,0.03,0c-0.01,0.01-0.03,0.01-0.04,0.02
			C117.03,61.14,117.03,61.13,117.04,61.12z"/>
		<path class="st0" d="M117.43,59.42c-0.01,0-0.03,0-0.04,0c0,0.02-0.01,0.04-0.01,0.05c0.02,0,0.04-0.01,0.05-0.01
			C117.43,59.44,117.43,59.43,117.43,59.42z"/>
		<path class="st0" d="M112.32,59.52c0.13,0.21,0.31,0.26,0.31,0.61c0.04,0.02,0.07,0.04,0.11,0.06c0.01-0.02,0.03-0.04,0.04-0.05
			c0.03-0.09-0.05-0.17-0.07-0.22c-0.1-0.22,0.1-0.46-0.28-0.47C112.37,59.47,112.35,59.48,112.32,59.52z"/>
		<path class="st0" d="M113.82,59.56c0.01,0,0.02,0,0.03,0c0,0,0-0.01,0-0.01c-0.01-0.01-0.02-0.01-0.03-0.02
			C113.82,59.54,113.82,59.55,113.82,59.56z"/>
		<path class="st0" d="M121.45,59.57c0.02,0,0.04,0,0.05,0c0,0,0-0.01,0-0.01c-0.02-0.02-0.01-0.02-0.05-0.03
			C121.45,59.55,121.45,59.56,121.45,59.57z"/>
		<path class="st0" d="M114.13,60.06c0.14-0.06,0.15-0.05,0.32-0.02c0,0,0.01,0,0.01,0c0.04-0.08,0-0.17,0-0.3
			c-0.05-0.03-0.51-0.05-0.63-0.06c0.01-0.03,0.01-0.06,0.02-0.08c0,0-0.01-0.01-0.01-0.01c-0.01,0-0.01,0-0.02,0c0,0-0.01,0-0.01,0
			c-0.01,0.04,0,0.05-0.01,0.06c0,0.01,0,0.02,0,0.03c-0.08-0.01-0.15-0.01-0.23-0.02c0-0.02-0.01-0.05-0.01-0.07
			c-0.12,0.02-0.13,0.01-0.26,0c-0.04,0.08-0.03,0.11,0,0.21c-0.05,0.04-0.09,0.07-0.11,0.15c-0.03,0.09,0.07,0.35,0.19,0.39
			c0.06-0.04,0.05-0.11,0.02-0.18c0.07-0.03,0.08,0.02,0.16,0.04c0.03-0.02,0.06-0.04,0.08-0.05c-0.01,0.37,0.17,0.72,0.19,1.08
			c0.02,0.01,0.04,0.02,0.05,0.03c0.07,0.01,0.14,0.01,0.21,0.02c0.09-0.07,0.18-0.04,0.31-0.09c-0.04-0.27-0.2-0.51-0.27-0.77
			C114.09,60.29,114.17,60.14,114.13,60.06z M113.89,60.36c-0.01,0-0.01,0.01-0.02,0.01c0,0-0.01,0-0.01,0c0-0.01,0-0.01,0-0.02
			c0.01-0.01,0.02-0.01,0.03-0.02C113.89,60.34,113.89,60.35,113.89,60.36z M113.93,59.95c0.01-0.01,0.01-0.02,0.02-0.03
			c0.01,0,0.01,0,0.02,0c0.01,0.01,0.01,0.02,0.02,0.03C113.98,59.95,113.96,59.95,113.93,59.95z"/>
		<path class="st0" d="M113.92,59.66c0-0.01,0.01-0.01,0.01-0.02c-0.02-0.02-0.03-0.02-0.07-0.02c0,0.01-0.01,0.02-0.01,0.03
			C113.87,59.65,113.9,59.65,113.92,59.66z"/>
		<path class="st0" d="M110.85,60.48c0.09-0.03,0.12,0,0.18-0.05c0.03,0.03,0.09,0.05,0.14,0.04c0.04-0.03,0.03-0.06,0.02-0.12
			c0.1,0.1,0.2,0.2,0.31,0.3c0.03,0.07-0.05,0.18,0.03,0.24c0.04,0.03,0.06,0.02,0.11,0c0,0.08,0,0.18-0.03,0.26
			c-0.02-0.01-0.04-0.01-0.05-0.02c-0.02-0.03,0.02-0.06-0.01-0.11c-0.03-0.02-0.06-0.04-0.08-0.05c-0.02-0.02-0.16-0.37-0.19-0.43
			c-0.21,0.01-0.4,0.09-0.56,0.16c-0.01,0.03-0.01,0.06-0.02,0.08c0.03,0.04,0.06,0.08,0.08,0.13c0.04,0.01,0.07,0.01,0.11,0.02
			c0.15,0.13,0.4,0.56,0.56,0.6c0.21,0.06,0.31-0.11,0.47-0.05c0.1,0.03,0.11,0.14,0.23,0.14c0.03-0.18-0.03-0.77-0.08-0.92
			c-0.04-0.11-0.15-0.28-0.16-0.41c0.01-0.01,0.03-0.03,0.04-0.07c0,0,0-0.01,0-0.01c-0.03,0-0.06,0-0.09,0
			c-0.01-0.11-0.03-0.15-0.07-0.22c-0.01,0-0.01,0-0.02,0c0.09-0.06,0.24-0.07,0.35-0.11c0.02-0.04,0.04-0.08,0.05-0.12
			c-0.01-0.02-0.02-0.04-0.03-0.06c-0.03-0.01-0.06-0.01-0.09-0.02c-0.09,0.07-0.26,0.16-0.38,0.19c0.01,0.05,0,0.04,0.04,0.05
			c-0.03,0.05-0.12,0-0.19,0.03c-0.08,0.03-0.34,0.27-0.33,0.35c-0.02,0-0.05,0.01-0.07,0.01c0.02-0.05,0.04-0.11,0.05-0.16
			c0,0,0-0.01,0-0.01c-0.17-0.04-0.36,0.24-0.5,0.3c-0.13,0.02-0.27,0.04-0.4,0.05c-0.01,0.03-0.02,0.06-0.03,0.08
			C110.51,60.8,110.65,60.56,110.85,60.48z"/>
		<path class="st0" d="M121.01,59.84c0.01,0.01,0.03,0.01,0.04,0.02c0-0.01,0-0.03,0-0.04c-0.02,0-0.04-0.01-0.06-0.01
			C121,59.84,120.99,59.82,121.01,59.84z"/>
		<path class="st0" d="M111.89,60.09c0.01,0.01,0.03,0.03,0.04,0.04c0,0,0.01,0,0.01,0c0.01-0.01,0.02-0.02,0.03-0.03
			c-0.01-0.06,0-0.06-0.05-0.07C111.89,60.05,111.87,60.04,111.89,60.09z"/>
		<path class="st0" d="M113.58,61.34c-0.03-0.15-0.27-0.32-0.44-0.35c0.05-0.07,0.03-0.11,0.05-0.2c0.08-0.03,0.18,0.03,0.25,0.01
			c0.02-0.02,0.03-0.03,0.04-0.05c-0.02-0.04-0.04-0.08-0.05-0.12c-0.03,0-0.06,0-0.08,0c-0.05-0.02-0.08-0.14-0.13-0.19
			c-0.1-0.11-0.36-0.21-0.54-0.23c-0.07,0.01-0.15,0.01-0.22,0.02c-0.15,0.04-0.3,0.08-0.45,0.12c0.03,0.02,0.02,0.01,0.05,0.01
			c-0.01,0.07-0.04,0.08-0.06,0.13c0.04,0.08,0.09,0.14,0.14,0.21c0.02,0.09,0.04,0.19,0.06,0.28c0.05,0.16,0.17,0.47,0.37,0.53
			c0.05,0.16,0.02,0.3,0.01,0.5c-0.02,0.01-0.04,0.01-0.05,0.02c-0.11-0.01-0.1-0.05-0.16-0.09c-0.02,0-0.04,0-0.05,0
			c0,0.01-0.01,0.01-0.01,0.02c0.02,0.11,0.08,0.11,0.09,0.27c0.05,0.01,0.07,0,0.11-0.01c-0.03,0.05-0.04,0.07-0.03,0.15
			c0.03,0.02,0.03,0.03,0.04,0.05c0.02,0,0.04,0.01,0.06,0.01c0.08-0.1,0.05-0.17,0.08-0.22c0.04-0.06,0.13-0.11,0.16-0.21
			c0,0,0-0.01,0-0.01c-0.05-0.01-0.1,0-0.14,0.02c0.09-0.17,0.24-0.21,0.42-0.3c0.04-0.02,0.05-0.05,0.06-0.09
			c-0.08-0.1-0.21-0.15-0.23-0.31c0.02-0.01,0.04-0.02,0.05-0.03c0.07,0.05,0.11,0.07,0.17,0.12c-0.04,0.02,0.11,0.25,0.17,0.25
			c0.03-0.06,0.06-0.11,0.08-0.17C113.46,61.42,113.53,61.4,113.58,61.34z M112.56,60.92c-0.01,0-0.01-0.01-0.02-0.01
			c0.02-0.01,0.04-0.02,0.05-0.03c0.02,0.01,0.04,0.01,0.05,0.02C112.62,60.91,112.59,60.92,112.56,60.92z"/>
		<path class="st0" d="M117.77,60.45c-0.01,0-0.01,0-0.02,0c0,0.01,0,0.01,0,0.02C117.76,60.46,117.77,60.46,117.77,60.45z"/>
		<path class="st0" d="M113.4,60.5c0-0.01-0.01-0.01-0.01-0.02c-0.02,0-0.04-0.01-0.05-0.01c-0.01,0.01-0.01,0.01-0.02,0.02
			c0,0.01,0.01,0.02,0.01,0.03c0.02,0,0.04,0.01,0.06,0.01C113.39,60.52,113.39,60.51,113.4,60.5z"/>
		<path class="st0" d="M110.2,60.82c0.03-0.02,0.06-0.05,0.09-0.07c0.01-0.01,0.01-0.02,0.02-0.03c-0.05-0.01-0.05-0.01-0.08,0.02
			c-0.01-0.03-0.02-0.06-0.03-0.08c-0.03-0.01-0.06-0.03-0.09-0.04c-0.06,0.03-0.1,0.05-0.07,0.14
			C110.09,60.77,110.14,60.79,110.2,60.82z"/>
		<path class="st0" d="M114.92,60.83c0-0.03-0.01-0.06-0.01-0.08c-0.02,0-0.04-0.01-0.05-0.01c-0.04,0.03-0.04,0.01-0.05,0.07
			c0.02,0.01,0.05,0.02,0.07,0.03C114.89,60.84,114.9,60.83,114.92,60.83z"/>
		<path class="st0" d="M117.35,60.8c0.01,0,0.03,0,0.04,0c0-0.01,0-0.01,0-0.02c-0.02-0.01-0.04-0.01-0.06-0.02
			C117.34,60.77,117.34,60.78,117.35,60.8z"/>
		<path class="st0" d="M109.12,62.36c0.12,0.04,0.15,0.14,0.32,0.11c0.01-0.11,0.01-0.12,0.04-0.19c-0.04-0.03-0.08-0.06-0.12-0.09
			c0.03-0.02,0.02-0.03,0-0.07c0.05-0.04,0.07-0.06,0.09-0.12c0-0.04,0-0.04-0.02-0.06c-0.07-0.05-0.18-0.04-0.28-0.03
			c0,0,0-0.01,0-0.01c0.05-0.07,0.15-0.1,0.12-0.23c0.08-0.06,0.29-0.24,0.36-0.26c0.09-0.04,0.17,0.02,0.26-0.01
			c0.1-0.03,0.21-0.2,0.25-0.3c-0.01-0.01-0.02-0.02-0.03-0.03c-0.01,0-0.01,0-0.02,0c0.03-0.02,0.06-0.05,0.09-0.07
			c0-0.02-0.01-0.04-0.01-0.05c-0.03-0.07-0.11-0.12-0.21-0.12c-0.15,0.11-0.35,0.19-0.5,0.32c-0.04,0.06-0.08,0.12-0.12,0.18
			c-0.03,0.03-0.04,0.02-0.08,0.01c-0.02,0.04,0.02,0.07-0.01,0.13c-0.12,0.26-0.45,0.36-0.58,0.61
			C108.7,62.32,108.94,62.29,109.12,62.36z M109.9,61.09c0.03-0.01,0.06-0.01,0.08-0.02c-0.02,0.02-0.05,0.04-0.07,0.05
			c0,0-0.01,0-0.01,0C109.9,61.11,109.9,61.1,109.9,61.09z"/>
		<path class="st0" d="M114.62,60.84c-0.03-0.01-0.06-0.02-0.09-0.03c0,0.01-0.01,0.01-0.01,0.02c0.01,0.01,0.02,0.03,0.03,0.04
			c0.02,0,0.04,0,0.05,0C114.61,60.86,114.61,60.85,114.62,60.84z"/>
		<path class="st0" d="M114.48,61.25c-0.02-0.04-0.04-0.06-0.08-0.07c0.02,0.04,0.04,0.05,0.07,0.07
			C114.48,61.25,114.48,61.25,114.48,61.25z"/>
		<path class="st0" d="M109.08,61.22c0,0,0-0.01,0-0.01c-0.02,0-0.04-0.01-0.05-0.01c0.01,0.01,0.02,0.02,0.03,0.03
			C109.07,61.23,109.08,61.22,109.08,61.22z"/>
		<path class="st0" d="M114.82,61.43c0.01-0.01,0.02-0.02,0.03-0.03c-0.06-0.08-0.12-0.17-0.25-0.19c-0.01,0.02-0.01,0.04-0.02,0.06
			C114.63,61.36,114.72,61.39,114.82,61.43z"/>
		<path class="st0" d="M111.28,62.05c0.02-0.16-0.53-0.79-0.76-0.79c-0.07,0.14-0.15,0.34-0.25,0.42c-0.05,0.05-0.09-0.01-0.16,0.01
			c-0.06,0.02-0.19,0.12-0.25,0.17c-0.02,0.01-0.04,0.08-0.04,0.08c-0.08,0.01-0.16,0.02-0.24,0.03c-0.04,0.02-0.07,0.1-0.08,0.15
			c0.35,0.07,0.89,0.64,1.12,0.58c0.37-0.1,0.59,0.07,0.73-0.31c0.06-0.16-0.02-0.24,0-0.36C111.31,62.05,111.29,62.05,111.28,62.05
			z M109.86,62.07c0-0.01,0.01-0.01,0.01-0.02c0.01,0,0.01,0,0.02,0C109.88,62.06,109.87,62.07,109.86,62.07z M109.96,62.01
			c-0.01,0-0.03,0.01-0.04,0.01c0,0-0.01,0-0.01,0c0.04-0.05,0.08-0.11,0.13-0.16c0.02,0.02,0.01,0,0.02,0.04
			C110.02,61.94,109.99,61.98,109.96,62.01z M110.8,62.23c-0.02,0-0.04,0-0.06,0c-0.15-0.18-0.41-0.28-0.49-0.5
			c0.24,0.09,0.47,0.22,0.55,0.49C110.8,62.22,110.8,62.23,110.8,62.23z"/>
		<path class="st0" d="M116.79,61.34c-0.04-0.07-0.11-0.06-0.19-0.07c-0.03,0.08-0.24,0.07-0.32,0.05
			c-0.09,0.05-0.13,0.19-0.16,0.27c0,0,0.01,0.01,0.01,0.01c0.01,0.01,0.03,0.03,0.04,0.04c0.03,0,0.56-0.29,0.58-0.31
			C116.77,61.34,116.78,61.34,116.79,61.34z"/>
		<path class="st0" d="M119.55,61.29c-0.01,0-0.01,0-0.02,0c0,0.01,0,0.01,0,0.02C119.53,61.31,119.54,61.3,119.55,61.29z"/>
		<path class="st0" d="M120.16,64.28c-0.16-0.29-0.32-0.78-0.6-0.92c-0.01-0.01-0.01-0.02-0.02-0.03c0.28-0.1,0.5-0.27,0.7-0.41
			c0.1-0.07,0.21-0.07,0.28-0.16c0.06-0.06,0.06-0.14,0.11-0.22c0.04-0.07,0.15-0.12,0.18-0.21c0.08-0.26-0.19-0.4-0.31-0.49
			c-0.07-0.06-0.19-0.22-0.24-0.26c-0.09-0.07-0.65-0.25-0.76-0.25c-0.11,0.05-0.23-0.01-0.31,0.08c-0.01,0.03-0.01,0.06-0.02,0.09
			c0.03,0.01,0.06,0.03,0.08,0.04c-0.06-0.01-0.11-0.03-0.17-0.04c-0.01,0-0.03,0.01-0.04,0.01c0.01-0.01,0.01-0.03,0.02-0.04
			c-0.03-0.04-0.04-0.05-0.09-0.06c-0.24-0.07-0.62,0.08-0.8,0.14c-0.31,0.1-0.65,0.17-0.91,0.36c-0.06,0.06-0.13,0.11-0.19,0.17
			c-0.09,0.03-0.18,0.06-0.26,0.08c-0.06,0.03-0.04,0.09-0.13,0.12c-0.37,0.13-0.81,0.06-1.15,0.15c-0.08,0-0.15,0-0.23,0
			c-0.27,0.07-0.87,0.42-1.07,0.59c-0.08,0.07-0.19,0.21-0.28,0.24c-0.18,0.01-0.37,0.02-0.55,0.03c-0.35,0.08-0.74,0.21-1.05,0.32
			c-0.17,0.06-0.33,0-0.49,0.06c-0.33,0.13-0.92,0.41-1.17,0.62c-0.3,0.25-0.54,0.51-0.86,0.74c0.03,0.06-0.01,0.06-0.03,0.16
			c0.22,0.35,1.18,0.51,1.75,0.5c0.01,0.02,0.01,0.05,0.02,0.07c-0.05,0.08-0.13,0.15-0.22,0.19c-0.1,0.16-0.14,0.72-0.18,0.99
			c0.01,0.01,0.01,0.02,0.02,0.03c0.41,0.04,0.82,0.08,1.23,0.12c0,0,0.01,0,0.01,0c0.01-0.03,0.13-1.02,0.12-1.08
			c-0.02-0.09-0.11-0.21-0.12-0.33c0,0-0.01-0.01-0.01-0.01c0.15-0.06,0.85-0.08,0.96-0.03c0.11,0.07,0.08,0.32,0.12,0.46
			c0.03,0.12,0.05,0.78,0,0.93c-0.04,0.13-0.13,0.51-0.06,0.74c0.02,0.09,0,0.26,0.03,0.32c0.11,0.22,0.23,0.59,0.36,0.77
			c0.16,0.22,0.44,0.37,0.66,0.52c0.09,0.06,0.17,0.17,0.3,0.21c0.16,0.06,0.26,0,0.38-0.03c0.08-0.01,0.16-0.03,0.24-0.04
			c0.27-0.11,0.46-0.4,0.64-0.6c0.23-0.26,0.42-0.58,0.66-0.82c0.09-0.08,0.18-0.17,0.27-0.25c0.07-0.12,0.1-0.33,0.19-0.46
			c0.14-0.2,0.34-0.4,0.47-0.57c0.02-0.03,0.08-0.03,0.09-0.05c0.08-0.1,0.09-0.22,0.15-0.34c0.14-0.27,0.35-0.55,0.45-0.85
			c0.08-0.23-0.11-1.08-0.18-1.24c-0.03-0.07-0.11-0.16-0.09-0.22c0.08-0.09,0.57-0.39,0.7-0.41c-0.03,0.12-0.06,0.24-0.09,0.36
			c0.01,0.09,0.34,0.82,0.42,0.85c0.17,0.07,0.38-0.15,0.49-0.21c0.15-0.08,0.4-0.07,0.49-0.21
			C120.15,64.44,120.14,64.35,120.16,64.28z M110.42,65.03c0.05,0.02,0.11,0.04,0.16,0.06C110.54,65.08,110.46,65.07,110.42,65.03z
			 M120.26,62.35c0,0,0,0.01,0,0.01c-0.03,0.02-0.06,0.04-0.08,0.05c0.02-0.02,0.04-0.04,0.05-0.06
			C120.24,62.35,120.25,62.35,120.26,62.35z M120.2,61.98c-0.04-0.02-0.08-0.05-0.13-0.07C120.13,61.92,120.17,61.93,120.2,61.98z
			 M119.9,61.81c-0.04-0.01-0.05,0-0.07-0.03C119.87,61.79,119.88,61.79,119.9,61.81z M119.74,61.74c-0.07,0.01-0.09-0.02-0.16-0.04
			c-0.01-0.03-0.01-0.02-0.01-0.04C119.62,61.68,119.68,61.71,119.74,61.74z M119.56,61.64c-0.03,0.02-0.05,0.02-0.08-0.01
			C119.5,61.63,119.53,61.64,119.56,61.64z M118.69,61.57c0.01,0,0.01,0,0.02,0c0,0.01,0.01,0.01,0.01,0.02
			c-0.01,0.01-0.03,0.01-0.04,0.02C118.68,61.6,118.69,61.58,118.69,61.57z M118.56,61.61c0.01,0.01,0.03,0.01,0.04,0.02
			c-0.02,0-0.04-0.01-0.06-0.01C118.55,61.62,118.56,61.61,118.56,61.61z M118.46,61.66c-0.03,0.06-0.42,0.25-0.55,0.26
			C118.03,61.8,118.29,61.77,118.46,61.66z M117.97,62.26c-0.03,0.01-0.01,0.01-0.03-0.01C117.95,62.26,117.96,62.26,117.97,62.26z
			 M117.88,62.31c0.05,0.02-0.02,0.03,0.04,0.04c-0.03,0.02-0.02,0.01-0.05-0.02C117.87,62.32,117.88,62.31,117.88,62.31z
			 M115.12,63.01c0.01,0,0.02,0.01,0.03,0.01c0,0.01,0.01,0.02,0.01,0.03c-0.01,0.01-0.03,0.01-0.04,0.02
			C115.13,63.03,115.13,63.05,115.12,63.01z M115.09,62.78c0.01,0.02,0.01,0,0,0.02C115.09,62.79,115.09,62.79,115.09,62.78z
			 M115.09,63.18c0,0.01,0.01,0.01,0.01,0.02c0.01,0,0.01,0,0.02,0c-0.01,0.01-0.03,0.02-0.04,0.03c0,0-0.01,0-0.01,0
			C115.08,63.22,115.09,63.2,115.09,63.18z M115.08,63.89c0.01,0,0.01,0,0.02,0c0,0.04,0.01,0.03-0.01,0.06c0,0.01,0,0.01,0,0.02
			c-0.01,0-0.02-0.01-0.03-0.01C115.07,63.94,115.08,63.91,115.08,63.89z M114.95,64.54c-0.03,0.01-0.01,0.03-0.03,0
			C114.93,64.54,114.94,64.54,114.95,64.54z M114.95,65.77c-0.01,0-0.01,0.01-0.02,0.01c0-0.02,0-0.04,0-0.06
			C114.95,65.73,114.94,65.72,114.95,65.77z M114.92,65.82c0.01,0.01,0.03,0.02,0.04,0.03c0,0,0,0.01,0,0.01
			c0,0.01-0.01,0.03-0.01,0.04c-0.01,0-0.03,0-0.04,0C114.91,65.87,114.91,65.85,114.92,65.82z M114.75,64.37
			c0.06,0.06,0.01,0.16,0.02,0.24c-0.01,0-0.03,0-0.04,0C114.72,64.49,114.73,64.44,114.75,64.37z M114.64,63.48
			c0,0.04,0,0.08,0,0.12c0,0-0.01,0-0.01,0c-0.02-0.03-0.01-0.04-0.02-0.06C114.64,63.54,114.63,63.51,114.64,63.48z M114.58,65.29
			c0.01,0.01,0.01,0.03,0.02,0.04C114.57,65.31,114.58,65.32,114.58,65.29z M114.57,65.27c-0.02-0.08-0.03-0.13,0.02-0.18
			c0,0.06,0.01,0.12,0.01,0.18C114.59,65.27,114.58,65.27,114.57,65.27z M114.58,65.05c0,0-0.01,0-0.01,0
			c-0.01-0.02-0.03-0.04-0.04-0.06c-0.02-0.03,0-0.05-0.01-0.11c0.01-0.01,0.01-0.01,0.02-0.02c0.01,0,0.01,0,0.02,0
			c0.02,0.05,0.02,0.1,0.03,0.15C114.58,65.02,114.58,65.03,114.58,65.05z M114.57,63.33c-0.02,0-0.04,0.01-0.05,0.01
			c-0.01,0-0.01-0.01-0.02-0.01c0-0.01,0-0.02,0-0.03c0.02,0.01,0.05,0.01,0.07,0.02C114.57,63.32,114.57,63.33,114.57,63.33z
			 M114.45,63.15c0.01,0,0.01-0.01,0.02-0.01c0,0,0.01,0,0.01,0c0,0.01,0.01,0.02,0.01,0.03c-0.01,0-0.03,0-0.04,0
			C114.45,63.16,114.45,63.16,114.45,63.15z M114.37,63.71c0.08,0.07,0.03,0.27,0.05,0.34c-0.01,0.01-0.01,0.01-0.02,0.02
			c0-0.01,0-0.01,0-0.02C114.36,64,114.35,63.8,114.37,63.71z M114.35,64.89c0.01,0,0.02,0,0.03,0c0.01,0.05,0.01,0.01-0.02,0.06
			c0.01,0.01,0.02,0.01,0.03,0.02c-0.05,0-0.11,0-0.16,0c0,0-0.01-0.01-0.01-0.01c0-0.01,0.01-0.03,0.01-0.04
			c0.05,0,0.04,0,0.08,0.02C114.32,64.92,114.34,64.91,114.35,64.89z M114.2,65.23c0.01,0,0.01,0,0.02,0c0,0.01,0.01,0.01,0.01,0.02
			c-0.01,0-0.01,0.01-0.02,0.01c-0.01-0.01-0.01-0.01-0.02-0.02C114.19,65.23,114.19,65.23,114.2,65.23z M114.18,64.15
			c0.01,0,0.01,0,0.02,0c0,0.01-0.01,0.01-0.01,0.02C114.18,64.17,114.18,64.16,114.18,64.15z M114.2,64.13c0,0-0.01,0-0.01,0
			c0-0.02-0.01-0.05-0.01-0.07c0.01,0,0.01,0,0.02,0C114.2,64.08,114.2,64.11,114.2,64.13z M114.16,63.95c0,0,0.01,0,0.01,0
			c0.01,0.03,0.01,0.06,0.02,0.08c-0.02-0.02-0.04-0.05-0.05-0.07C114.14,63.96,114.15,63.95,114.16,63.95z M114.13,63.79
			c0,0,0.01,0,0.01,0c0.02,0.04,0.03,0.08,0.04,0.12c0,0.01-0.01,0.01-0.01,0.02c-0.01,0-0.01,0.01-0.02,0.01
			C114.1,63.89,114.14,63.85,114.13,63.79z M114.18,65.29c0.04,0.02,0.03,0.01,0.04,0.05c-0.02,0.02-0.01,0-0.02,0.04
			c-0.02,0.01-0.04,0.02-0.05,0.03C114.16,65.37,114.17,65.33,114.18,65.29z M114.24,66.05c-0.03,0.01-0.01,0.03-0.03,0
			C114.22,66.05,114.23,66.05,114.24,66.05z M111.4,65.32c0.02,0,0.04,0.01,0.06,0.01C111.43,65.33,111.43,65.34,111.4,65.32z
			 M113.22,65.02c0.01,0.11,0.09,0.12,0.18,0.12c0,0.01,0.01,0.01,0.01,0.02c-0.15,0.04-0.95,0.26-1.11,0.19
			c-0.06-0.05-0.08-0.11-0.15-0.16c-0.08,0-0.11,0.03-0.13,0.08c-0.31-0.01-0.51-0.12-0.85-0.12c0-0.02,0-0.04,0-0.05
			c-0.03,0-0.06-0.01-0.09-0.01c-0.13-0.25,0.24-0.31,0.41-0.38c0.19-0.08,0.35-0.26,0.57-0.31c0.21-0.01,0.43-0.03,0.64-0.04
			c0.14,0.03,0.31,0.11,0.45,0.07c-0.02,0.11,0.25,0.09,0.26,0.19C113.47,64.71,113.31,64.97,113.22,65.02z M113.58,64.91
			c0,0.01,0,0.01,0,0.02c0,0-0.01,0.01-0.01,0.01c-0.01-0.02-0.01-0.04-0.02-0.05C113.55,64.9,113.57,64.9,113.58,64.91z
			 M113.55,64.62c0.01,0.01,0.02,0.02,0.03,0.03C113.56,64.62,113.57,64.66,113.55,64.62z M113.55,64.96c0.01,0,0.01,0,0.02,0
			c0.05,0.35,0.03,0.61,0.13,0.96c-0.01,0.01-0.01,0.01-0.02,0.02C113.6,65.87,113.51,65.11,113.55,64.96z M113.64,64.89
			c0.03,0,0.06,0.01,0.08,0.01c0,0,0,0.01,0,0.01c-0.02,0-0.04,0.01-0.05,0.01C113.66,64.91,113.65,64.9,113.64,64.89z
			 M113.71,65.99c-0.01,0-0.01,0-0.02,0c0-0.01-0.01-0.02-0.01-0.03C113.69,65.97,113.7,65.98,113.71,65.99z M113.68,66
			c0.04,0.03,0.04,0.12,0.05,0.15c-0.01,0.01-0.01,0.01-0.02,0.02c0,0-0.01-0.01-0.01-0.01C113.7,66.1,113.69,66.05,113.68,66z
			 M113.71,66.29c0-0.02,0-0.04,0-0.06c0.01,0.01,0.02,0.02,0.03,0.03c0,0.01-0.01,0.01-0.01,0.02
			C113.73,66.29,113.72,66.29,113.71,66.29z M113.78,68.11c0,0.01-0.01,0.02-0.01,0.03c0,0-0.01,0-0.01,0
			c-0.02-0.03-0.01-0.01-0.01-0.04c0.01,0,0.02,0,0.03,0C113.78,68.1,113.78,68.1,113.78,68.11z M113.32,63.6
			c-0.26,0.03-0.72,0.05-1.03,0.12c0.1-0.07,0.21-0.03,0.34-0.06c0.52-0.12,1.29,0.05,1.59-0.34c0.02,0.01,0.05,0.07,0.06,0.11
			c-0.13,0.06-0.23,0.15-0.38,0.19C113.73,63.66,113.49,63.58,113.32,63.6z M114.08,66.47c0.03-0.06,0.11-0.31,0.12-0.38
			c0.01,0,0.02,0,0.03,0c0,0.19-0.09,0.25-0.12,0.38C114.1,66.47,114.09,66.47,114.08,66.47z M114.21,67.17c0-0.01,0-0.03,0-0.04
			C114.23,67.16,114.23,67.14,114.21,67.17z M114.22,67.45c0-0.01,0.01-0.01,0.01-0.02c0,0.01,0.01,0.01,0.01,0.02
			C114.23,67.45,114.23,67.45,114.22,67.45z M114.25,67.35c-0.01,0-0.01,0.01-0.02,0.01c-0.03-0.04-0.02-0.13-0.02-0.17
			c0.01,0.01,0.02,0.01,0.03,0.02c0,0.04,0.01,0.08,0.01,0.13C114.25,67.34,114.25,67.34,114.25,67.35z M114.27,65.51
			c0-0.01-0.01-0.01-0.01-0.02c0.01,0,0.01,0,0.02,0C114.28,65.5,114.28,65.51,114.27,65.51z M114.37,67.8c0,0-0.01,0-0.01,0
			c-0.01-0.03-0.02-0.06-0.03-0.09c0.01,0,0.03,0,0.04,0c0,0.03,0,0.03,0.01,0.06C114.37,67.78,114.37,67.79,114.37,67.8z
			 M114.32,67.66c0-0.01,0-0.02,0-0.03c0.01,0,0.01,0.01,0.02,0.01C114.34,67.65,114.33,67.66,114.32,67.66z M114.34,66.85
			c0,0.01,0.01,0.01,0.01,0.02c-0.01,0-0.02,0-0.03,0c0,0-0.01,0-0.01,0c0.01-0.07,0.03-0.13,0.04-0.2c0.01,0,0.02,0,0.03,0
			C114.36,66.73,114.35,66.79,114.34,66.85z M114.36,66.6c0.01,0.02,0.01,0.04,0.02,0.05C114.35,66.62,114.36,66.63,114.36,66.6z
			 M114.43,65.66c-0.01,0-0.01,0.01-0.02,0.01c-0.02-0.08-0.04-0.17-0.05-0.25c-0.02,0-0.04,0-0.06,0c0.08-0.09,0.07-0.16,0.11-0.28
			C114.45,65.18,114.44,65.56,114.43,65.66z M114.39,64.36c-0.04-0.09,0.02-0.14-0.01-0.22c0.01-0.01,0.01-0.01,0.02-0.02
			c0.04,0.01,0.07,0.03,0.11,0.04c0.01,0.08-0.02,0.24,0.02,0.28c-0.01,0-0.02,0-0.03,0c0.01,0.01,0.01,0.02,0.02,0.03
			c0,0-0.01,0.01-0.01,0.01c-0.03-0.03-0.04-0.09-0.03-0.09C114.44,64.34,114.44,64.34,114.39,64.36z M114.52,66.38
			c-0.01,0-0.02,0-0.03,0c0.01-0.08-0.02-0.13-0.04-0.19c0.02-0.07,0.05-0.16,0.06-0.3c0.09,0.13,0.02,0.34,0.03,0.46
			C114.54,66.36,114.53,66.37,114.52,66.38z M114.64,67.08c-0.03-0.02-0.06-0.04-0.08-0.06c0.02-0.06,0.06-0.16,0.06-0.23
			c0.02,0,0.04,0.01,0.06,0.01C114.65,66.9,114.63,67.03,114.64,67.08z M114.68,65.81c0-0.01-0.01-0.01-0.01-0.02
			c0.01,0,0.01,0,0.02,0C114.69,65.79,114.69,65.8,114.68,65.81z M114.75,64.98c-0.05-0.09-0.02-0.25-0.03-0.35
			c0.02,0,0.04,0,0.05,0c0,0.12,0.01,0.25,0.01,0.37C114.75,64.99,114.77,65.01,114.75,64.98z M114.8,63.92
			c-0.02-0.06-0.03-0.07-0.01-0.13c0.02,0.03,0.03,0.07,0.03,0.13C114.81,63.92,114.81,63.92,114.8,63.92z M114.81,63.77
			c-0.01,0-0.02-0.01-0.03-0.01c0-0.01,0.01-0.01,0.01-0.02c0.01,0,0.02,0,0.03,0C114.82,63.75,114.81,63.76,114.81,63.77z
			 M114.8,63.72c-0.01-0.01-0.01-0.01-0.02-0.02c0.01-0.04,0.02-0.09,0.02-0.14c0.04,0.02,0.02,0.07,0.03,0.12
			C114.82,63.69,114.81,63.7,114.8,63.72z M114.93,65.91c0.02,0.02,0.02,0.06,0.01,0.11c0,0.01,0,0.02,0,0.03
			C114.88,66.04,114.9,65.96,114.93,65.91z M114.93,68.05c0-0.01,0.01-0.01,0.01-0.02c0.01,0,0.01,0,0.02,0
			C114.94,68.05,114.96,68.04,114.93,68.05z M114.95,68c0-0.01-0.01-0.01-0.01-0.02c0.01,0,0.01,0,0.02,0
			C114.95,67.99,114.95,67.99,114.95,68z M114.95,67.93c0-0.01,0.01-0.02,0.01-0.03c0.01,0,0.01,0,0.02,0
			C114.97,67.91,114.96,67.92,114.95,67.93z M115.01,64.92c0-0.01,0.01-0.01,0.01-0.02c0.01,0.01,0.01,0.03,0.02,0.04
			C115.03,64.94,115.02,64.93,115.01,64.92z M115.03,64.87c0.02,0.02,0.01,0,0.02,0.03C115.05,64.89,115.04,64.88,115.03,64.87z
			 M115.07,64.05c-0.02-0.03-0.01-0.02-0.01-0.06c0.01,0,0.02,0,0.03,0c-0.01,0.01-0.01,0.03-0.02,0.04
			C115.07,64.03,115.07,64.04,115.07,64.05z M115.08,64.79c0.01-0.01,0.01-0.02,0.02-0.03c0,0,0.01,0,0.01,0
			C115.11,64.77,115.09,64.78,115.08,64.79z M115.13,63.87c-0.01,0-0.03,0.01-0.04,0.01c-0.01-0.13,0.02-0.18,0.06-0.27
			c0.01,0.01,0.03,0.01,0.04,0.02c-0.03,0.07-0.04,0.13-0.03,0.2C115.12,63.85,115.13,63.84,115.13,63.87z M115.22,65.15
			c-0.01,0.01-0.02,0.01-0.03,0.02c0,0-0.01,0-0.01,0c0-0.02,0-0.04,0-0.05c0.01-0.01,0.02-0.02,0.03-0.03
			c0.01,0.01,0.01,0.03,0.02,0.04C115.23,65.14,115.22,65.15,115.22,65.15z M115.26,64.98c0.01,0,0.01,0,0.02,0
			c0,0.01,0.01,0.01,0.01,0.02C115.26,65,115.28,65.02,115.26,64.98z M115.33,68.83c0-0.01,0.01-0.01,0.01-0.02
			c-0.01,0-0.01,0-0.02,0c-0.02-0.24,0.1-0.3,0.26-0.4C115.66,68.47,115.42,68.76,115.33,68.83z M115.32,64.63c0-0.01,0-0.02,0-0.03
			c0.01,0,0.01,0.01,0.02,0.01C115.33,64.61,115.32,64.62,115.32,64.63z M115.52,63.5c0.02,0,0.04,0,0.05,0
			c-0.08,0.18-0.12,0.42-0.18,0.57C115.29,64,115.52,63.61,115.52,63.5z M115.45,63.1c0.01-0.04,0.03-0.08,0.04-0.12
			c0.01,0,0.03,0,0.04,0c0,0.01,0.01,0.01,0.01,0.02c-0.02,0.03-0.05,0.06-0.07,0.08C115.47,63.09,115.46,63.09,115.45,63.1z
			 M115.54,64.3c0-0.01-0.01-0.01-0.01-0.02c0.01,0,0.01-0.01,0.02-0.01C115.56,64.29,115.55,64.28,115.54,64.3z M115.35,63.22
			c0-0.01,0.01-0.02,0.01-0.03c0.01,0,0.02,0,0.03,0C115.37,63.22,115.39,63.21,115.35,63.22z M115.47,64.35
			c0.02,0.01-0.08,0.19-0.14,0.21C115.38,64.49,115.43,64.42,115.47,64.35z M115.47,66.55c0,0,0,0.01,0,0.01
			c-0.01,0.01-0.01,0.03-0.02,0.04c0-0.02-0.01-0.04-0.01-0.05C115.45,66.55,115.46,66.55,115.47,66.55z M116.16,67.99
			c0.01,0,0.02,0.01,0.03,0.01c-0.05,0.09-0.12,0.24-0.01,0.33c-0.1,0.11-0.21,0.19-0.21,0.31c-0.01,0.01-0.02,0.01-0.03,0.02
			c0.04-0.2,0.17-0.38,0.17-0.6c0.04-0.06,0.08-0.11,0.12-0.17c0.01,0,0.03,0,0.04,0C116.25,67.91,116.21,67.96,116.16,67.99z
			 M116.29,67.86c-0.01,0-0.02,0-0.03,0c-0.02-0.1,0.25-0.29,0.32-0.38c0.01,0,0.02,0,0.03,0C116.5,67.61,116.39,67.74,116.29,67.86
			z M116.67,67.41c0.03-0.03,0.06-0.06,0.09-0.09C116.76,67.36,116.72,67.39,116.67,67.41z M116.81,64.83
			c-0.08-0.03-0.19-0.04-0.27-0.04c-0.03,0.08,0.33,0.47,0.01,0.64c-0.12,0.01-0.24,0.01-0.36,0.02c-0.2-0.06-0.18-0.29-0.22-0.43
			c0.03-0.02,0.06-0.05,0.09-0.07c0-0.01,0-0.03,0-0.04c0,0,0-0.01,0-0.01c-0.02-0.01-0.05-0.02-0.07-0.03
			c-0.17,0.13-0.26,0.38-0.31,0.61c-0.05-0.01-0.09-0.03-0.12-0.07c-0.05-0.05,0.02-0.14,0.03-0.18c0.07-0.23,0.13-0.4,0.38-0.52
			c0.03,0.02,0.17-0.02,0.19-0.03c0.22,0.01,0.44,0.03,0.65,0.04c0.01,0.02,0.03,0.05,0.04,0.07
			C116.85,64.8,116.83,64.81,116.81,64.83z M115.58,64.17c0.01,0.01,0.02,0.01,0.03,0.02C115.58,64.18,115.6,64.19,115.58,64.17z
			 M115.66,63.7c-0.01,0-0.01,0.01-0.02,0.01c-0.02-0.05,0-0.07,0.02-0.13c0.01,0,0.03,0.01,0.04,0.01
			C115.69,63.63,115.68,63.66,115.66,63.7z M115.72,64.01c-0.01,0.04-0.02,0.07-0.03,0.11c-0.03-0.03-0.04-0.05-0.04-0.12
			C115.67,64.01,115.69,64.01,115.72,64.01z M115.64,64.12c0.01,0,0.01,0,0.02,0c-0.02,0.02,0,0.01-0.03,0.02
			C115.64,64.13,115.64,64.13,115.64,64.12z M115.72,63.32c0,0,0-0.01,0-0.01c0.07-0.02,0.09-0.04,0.13-0.09c0.01,0,0.02,0,0.03,0
			c-0.04,0.06-0.06,0.09-0.07,0.17c0,0.01,0.01,0.01,0.01,0.02c0.04,0.02,0.04-0.01,0.07,0.03c0.01,0.01,0.01,0.01,0.02,0.02
			c-0.01,0-0.02,0-0.03,0c-0.02,0,0,0-0.02-0.02c-0.06,0.03-0.08,0.04-0.13,0.07c0,0-0.01,0-0.01,0c0.02-0.07,0.04-0.14,0.06-0.21
			C115.76,63.3,115.74,63.31,115.72,63.32z M115.73,63.13c0.01,0,0.03,0.01,0.04,0.01C115.74,63.15,115.75,63.15,115.73,63.13z
			 M115.8,62.95c0-0.01,0-0.02,0-0.03c0.01,0,0.03,0.01,0.04,0.01c0,0.01,0.01,0.02,0.01,0.03
			C115.84,62.96,115.82,62.95,115.8,62.95z M115.94,63.76c0.01,0.01,0.01,0.01,0.02,0.02c0,0-0.01,0.01-0.01,0.01
			c-0.01,0.01-0.01,0.01-0.02,0.02c0,0-0.01,0-0.01,0c0-0.01-0.01-0.02-0.01-0.03c0.01,0,0.03,0.01,0.04,0.01
			C115.95,63.78,115.94,63.77,115.94,63.76z M115.94,64.05c-0.04,0.02-0.06,0.01-0.08-0.01C115.88,64.04,115.91,64.04,115.94,64.05z
			 M115.84,63.93c-0.01,0.01-0.01,0.01-0.02,0.02c0-0.01,0-0.03,0-0.04c0.01,0,0.03,0.01,0.04,0.01c0,0,0,0.01,0,0.01
			C115.86,63.93,115.85,63.93,115.84,63.93z M115.98,63.2c0.01,0,0.03,0,0.04,0c-0.02,0.03-0.02,0.03-0.06,0.04
			C115.97,63.23,115.97,63.22,115.98,63.2z M115.96,62.94c0-0.01,0-0.01,0-0.02C115.97,62.94,115.97,62.92,115.96,62.94z
			 M116.15,63.27c0,0,0,0.01,0,0.01c-0.01,0-0.01,0-0.02,0c-0.01,0.01-0.02,0.02-0.03,0.03c0-0.01-0.01-0.03-0.01-0.04
			c0.01,0,0.01-0.01,0.02-0.01C116.12,63.26,116.14,63.26,116.15,63.27z M116.13,63.17c0.01,0,0.02,0,0.03,0c0,0.02,0,0.05,0,0.07
			C116.12,63.22,116.14,63.22,116.13,63.17z M116.1,63.54c0.01,0,0.02,0,0.03,0c0,0,0,0.01,0,0.01c-0.01,0.01-0.02,0.01-0.03,0.02
			c0,0-0.01-0.01-0.01-0.01C116.09,63.55,116.09,63.55,116.1,63.54z M116.1,63.75c-0.01,0-0.03,0.01-0.04,0.01c0-0.01,0-0.01,0-0.02
			C116.07,63.74,116.08,63.75,116.1,63.75z M116.46,63.16c0,0,0,0.01,0,0.01c-0.04,0.05-0.08,0.11-0.14,0.14
			c0.04-0.07,0.04-0.06,0.07-0.15C116.41,63.16,116.43,63.16,116.46,63.16z M116.43,63.14c0.01-0.01,0.01-0.01,0.02-0.02
			c0.05,0.01,0.04,0,0.06,0.03C116.49,63.15,116.46,63.14,116.43,63.14z M116.54,63.67c-0.05,0.07-0.14,0.07-0.18,0
			C116.42,63.67,116.48,63.67,116.54,63.67z M116.97,62.63c-0.11,0.04-0.2-0.01-0.34-0.01c-0.36,0-0.79-0.01-1.11,0.11
			c-0.01-0.03,0.01-0.02-0.03-0.03c0.01,0.03,0,0.01,0.02,0.03c-0.11,0.05-0.26,0.03-0.37,0.07c0.12-0.16,0.96-0.19,1.23-0.24
			c0.07,0.01,0.13,0.02,0.2,0.03c0.06-0.02,0.21,0.01,0.28-0.03c-0.03-0.01,0.21-0.13,0.24-0.15c0.08-0.05,0.17-0.17,0.23-0.21
			c0.18-0.11,0.39-0.13,0.51-0.25c0.01,0.03-0.2,0.15-0.26,0.19C117.49,62.18,117,62.52,116.97,62.63z M117.01,67.08
			c0.01-0.01,0.01-0.02,0.02-0.03c0,0.01,0.01,0.01,0.01,0.02C117.04,67.08,117.02,67.08,117.01,67.08z M117.09,67.02
			c0-0.01,0.01-0.01,0.01-0.02c0,0.01,0.01,0.01,0.01,0.02C117.1,67.02,117.1,67.02,117.09,67.02z M117.12,67
			c0-0.01,0.01-0.01,0.01-0.02c0,0,0.01,0,0.01,0C117.13,66.99,117.13,66.99,117.12,67z M117.12,64.47c0,0,0-0.01,0-0.01
			c0.03-0.01,0.06-0.02,0.09-0.03c0.04,0.02,0.02-0.01,0.04,0.02c0.01,0,0.01,0,0.02,0C117.24,64.47,117.17,64.47,117.12,64.47z
			 M117.21,66.88c0-0.01,0.01-0.01,0.01-0.02c0,0.01,0.01,0.01,0.01,0.02C117.23,66.88,117.22,66.88,117.21,66.88z M117.25,66.86
			c0-0.01,0.01-0.02,0.01-0.03c0.01,0,0.01,0,0.02,0C117.27,66.84,117.26,66.85,117.25,66.86z M117.29,64.93
			c-0.01,0-0.01,0.01-0.02,0.01c-0.02-0.03-0.01-0.01-0.01-0.04c0.01,0,0.03,0,0.04,0C117.3,64.91,117.29,64.92,117.29,64.93z
			 M117.32,62.51c0.01,0,0.03,0.01,0.04,0.01C117.33,62.52,117.34,62.53,117.32,62.51z M117.54,65.07c0-0.01,0.01-0.01,0.01-0.02
			c0.01,0,0.01,0,0.02,0C117.56,65.05,117.55,65.06,117.54,65.07z M118.97,63.78c0.01-0.04-0.01-0.01,0.01-0.04
			c0.01,0.01,0.03,0.01,0.04,0.02C119,63.77,118.98,63.78,118.97,63.78z M118.97,62.92c-0.05,0-0.11,0-0.16,0
			c0.01,0.08-0.07,0.34-0.02,0.38c-0.14,0.2-0.43,0.17-0.66,0.31c-0.16,0.09-0.28,0.28-0.51,0.32c0,0.03,0.01,0.02-0.02,0.04
			c0.01,0.1,0.13,0.3,0.15,0.4c0,0-0.01,0.01-0.01,0.01c-0.01,0-0.03,0-0.04,0c-0.03-0.11-0.14-0.3-0.23-0.36
			c0.11-0.15,0.31-0.17,0.43-0.31c0,0,0-0.01,0-0.01c-0.12-0.1-0.31-0.05-0.46-0.07c-0.03-0.05-0.05-0.13-0.05-0.18
			c0.01-0.01,0.02-0.03,0.03-0.04c0.04-0.06,0.31-0.49,0.31-0.49c0.07-0.13,0.27-0.11,0.4-0.15c0.19-0.05,0.33-0.03,0.54-0.07
			c0.18-0.05,0.37-0.1,0.55-0.15c0.08-0.01,0.19,0.01,0.25-0.02c0.15,0.05,0.33,0,0.46,0.04c0,0.01,0.01,0.01,0.01,0.02
			c-0.06,0.05-0.02,0.12-0.09,0.17c-0.11,0.07-0.53,0.33-0.63,0.35C119.12,63.04,119.04,62.98,118.97,62.92z"/>
		<path class="st0" d="M114.44,61.48c0.01-0.02,0.01-0.04,0.02-0.06c-0.06-0.03-0.09-0.06-0.17-0.06
			C114.27,61.46,114.34,61.5,114.44,61.48z"/>
		<path class="st0" d="M114.25,61.43c0-0.01,0-0.01,0-0.02c-0.02-0.03-0.02-0.03-0.06-0.04c-0.01,0.01-0.02,0.02-0.03,0.03
			c0.02,0.03,0.03,0.03,0.06,0.05C114.23,61.44,114.24,61.44,114.25,61.43z"/>
		<path class="st0" d="M113.64,61.63c0.02,0.1,0.06,0.15,0.09,0.24c0.03,0,0.06,0,0.08,0c-0.01-0.16-0.04-0.24-0.08-0.36
			c-0.06-0.01-0.11-0.03-0.17-0.04c-0.05,0.06-0.13,0.09-0.05,0.17C113.55,61.64,113.6,61.63,113.64,61.63z"/>
		<path class="st0" d="M113.93,61.58c0.08,0.07,0.17,0.13,0.25,0.2c0.01,0,0.03,0,0.04,0c0.01-0.01,0.02-0.02,0.03-0.03
			c-0.02-0.06-0.04-0.12-0.06-0.18c-0.11-0.02-0.13-0.07-0.24-0.07C113.95,61.52,113.94,61.55,113.93,61.58z"/>
		<path class="st0" d="M111.78,61.88c0-0.09-0.01-0.18-0.01-0.26c-0.02-0.01-0.04-0.02-0.05-0.03c-0.02,0-0.04-0.01-0.06-0.01
			c-0.01,0.01-0.03,0.01-0.04,0.02c-0.01,0.11,0.01,0.14,0.04,0.22c0.02,0.02,0.05,0.04,0.07,0.06
			C111.75,61.88,111.76,61.88,111.78,61.88z"/>
		<path class="st0" d="M113.84,61.59c0,0,0-0.01,0-0.01c-0.01,0-0.01,0-0.02,0c0,0.01-0.01,0.02-0.01,0.03c0,0,0.01,0,0.01,0
			C113.83,61.6,113.83,61.6,113.84,61.59z"/>
		<path class="st0" d="M116.73,61.61c0,0,0.01,0,0.01,0c0-0.01-0.01-0.02-0.01-0.03c0,0.01-0.01,0.01-0.01,0.02
			C116.72,61.6,116.73,61.61,116.73,61.61z"/>
		<path class="st0" d="M109.42,61.65c0-0.01,0-0.02,0-0.03c-0.02,0-0.04,0-0.05,0c-0.01,0.01-0.01,0.03-0.02,0.04c0,0,0,0.01,0,0.01
			c0.02,0,0.04,0,0.06,0C109.41,61.67,109.42,61.66,109.42,61.65z"/>
		<path class="st0" d="M115.34,61.65c-0.01,0-0.01,0.01-0.02,0.01c0.01,0.06,0,0.04,0.04,0.06c0.02,0.02,0.01,0.01,0.05,0.02
			c0-0.01,0.01-0.01,0.01-0.02c-0.01-0.02-0.01-0.04-0.02-0.06C115.38,61.66,115.36,61.66,115.34,61.65z"/>
		<path class="st0" d="M109.31,61.74c0.01,0,0.03,0,0.04,0c0-0.01,0.01-0.03,0.01-0.04c-0.01,0-0.02,0-0.03,0
			C109.33,61.71,109.32,61.72,109.31,61.74z"/>
		<path class="st0" d="M116.25,61.75c0,0,0.01,0,0.01,0c0.01,0,0.02-0.01,0.03-0.01c-0.01-0.03-0.01-0.02-0.03-0.04
			C116.26,61.71,116.26,61.73,116.25,61.75z"/>
		<path class="st0" d="M114.3,61.7c0,0.01,0,0.02,0,0.03c0.01,0,0.01,0,0.02,0C114.31,61.7,114.32,61.72,114.3,61.7z"/>
		<path class="st0" d="M115.5,61.86c0,0,0,0.01,0,0.01c0.16,0.09,0.39,0.14,0.58,0.11c0.04-0.05,0.04-0.06,0.04-0.14
			c-0.01,0-0.01,0-0.02,0c-0.12-0.08-0.35-0.11-0.49-0.12c-0.03,0-0.06,0.01-0.08,0.01c0,0.01-0.01,0.02-0.01,0.03
			c0.01,0.01,0.02,0.03,0.03,0.04C115.51,61.83,115.51,61.82,115.5,61.86z"/>
		<path class="st0" d="M116.09,61.74c-0.01,0-0.03,0-0.04,0c-0.03,0.01-0.06,0.01-0.09,0.02c0,0.01,0,0.01,0,0.02
			c0.06-0.01,0.09-0.01,0.12,0C116.07,61.76,116.08,61.75,116.09,61.74z"/>
		<path class="st0" d="M116.13,61.75c0,0.01,0,0.03,0,0.04c0.03,0.01,0.06,0.01,0.09,0.02c0.01-0.01,0.01-0.01,0.02-0.02
			c0-0.01,0-0.02,0-0.03c-0.02,0.01-0.04,0.02-0.06,0.03C116.16,61.77,116.16,61.76,116.13,61.75z"/>
		<path class="st0" d="M112.2,61.8c0,0.02-0.01,0.04-0.01,0.05c0.03,0.03,0.06,0.06,0.08,0.08c0.01,0,0.02-0.01,0.03-0.01
			c-0.01-0.07-0.02-0.06-0.04-0.12C112.25,61.81,112.23,61.8,112.2,61.8z"/>
		<path class="st0" d="M113.02,61.81c0.01,0.02,0.01,0.04,0.02,0.05c0.01,0,0.02,0.01,0.03,0.01c0.03-0.03,0.03-0.01,0.04-0.06
			c-0.02,0-0.05-0.01-0.07-0.01C113.03,61.8,113.02,61.81,113.02,61.81z"/>
		<path class="st0" d="M113.26,61.86c-0.01,0.05,0,0.07-0.03,0.09c0.03,0.03,0.05,0.03,0.12,0.03c0.01-0.02,0.03-0.04,0.04-0.06
			c-0.03-0.04-0.04-0.06-0.09-0.07C113.28,61.86,113.27,61.86,113.26,61.86z"/>
		<path class="st0" d="M113.12,62c0,0.01-0.01,0.01-0.01,0.02c0.01,0,0.01,0.01,0.02,0.01C113.13,62.02,113.13,62.01,113.12,62z"/>
		<path class="st0" d="M111.52,62.41c0.02-0.01,0.04-0.01,0.05-0.02c0.01-0.08-0.01-0.14-0.12-0.14c-0.03,0.01-0.06,0.03-0.08,0.04
			c0,0,0,0.01,0,0.01c0.02,0,0.05-0.01,0.07-0.01c0,0.03,0,0.06,0,0.08C111.47,62.39,111.49,62.4,111.52,62.41z"/>
		<path class="st0" d="M108.71,62.63c0.12,0.07,0.21,0.2,0.37,0.23c-0.03,0.05-0.06,0.1-0.08,0.15c0.18,0.19,0.49,0.32,0.62,0.5
			c0.11,0.15,0.17,0.3,0.26,0.46c0.06,0.09,0.16,0.22,0.15,0.34c0.02,0.01,0.04,0.03,0.06,0.04c0.23-0.11,0.36-0.42,0.6-0.54
			c0.1-0.17-0.02-0.38-0.05-0.57c-0.1-0.06-0.34-0.05-0.47-0.07c-0.01,0-0.01-0.01-0.02-0.01c0.01-0.03,0-0.01,0.02-0.03
			c0.03-0.07,0.05-0.02,0.15-0.01c0.01-0.02,0.02-0.04,0.03-0.06c-0.01-0.03-0.01-0.02-0.01-0.04c-0.05,0.01-0.1,0.03-0.15,0.04
			c0.01-0.06,0-0.05,0.03-0.07c-0.06-0.06-0.2-0.23-0.2-0.3c-0.46-0.17-0.54-0.1-0.84,0.17c-0.01,0-0.02,0-0.03,0
			c0.05-0.07,0.11-0.1,0.13-0.21c-0.03-0.04-0.65-0.32-0.77-0.32c-0.02,0.05-0.04,0.1-0.06,0.15c0.01,0.03,0.02,0.06,0.03,0.08
			C108.55,62.58,108.63,62.61,108.71,62.63z"/>
		<path class="st0" d="M138.45,62.66c0.02-0.02,0.04-0.05,0.05-0.07c0-0.02,0-0.04,0-0.06c-0.11-0.09-0.18-0.14-0.4-0.14
			c-0.53,0.35,0.11,0.88-0.07,1.33c-0.18,0.06-0.33,0-0.41-0.13c-0.02,0-0.04,0-0.05,0c0,0-0.01,0.01-0.01,0.01
			c0.06,0.31,0.59,0.45,0.72,0.12c0.12-0.27-0.37-0.8-0.13-1.12C138.29,62.6,138.32,62.65,138.45,62.66z"/>
		<path class="st0" d="M112.01,63.04c0.03-0.02,0.04-0.02,0.05-0.04c0-0.02,0.01-0.04,0.01-0.06c-0.09-0.12-0.19-0.29-0.36-0.35
			c-0.02,0.02-0.04,0.04-0.05,0.05C111.74,62.83,111.82,62.97,112.01,63.04z"/>
		<path class="st0" d="M111.4,62.69c-0.04-0.02-0.06-0.04-0.13-0.04c-0.01,0.01-0.02,0.02-0.03,0.03c0.01,0.07,0.06,0.09,0.13,0.12
			c0.01-0.01,0.03-0.02,0.04-0.03C111.41,62.73,111.41,62.71,111.4,62.69z"/>
		<path class="st0" d="M110.86,62.98c0.03-0.01,0.06-0.03,0.08-0.04c0.02-0.02,0.02-0.03,0.02-0.07c-0.05-0.03-0.08-0.05-0.17-0.05
			c-0.01,0.02-0.03,0.05-0.04,0.07C110.79,62.92,110.83,62.95,110.86,62.98z"/>
		<path class="st0" d="M132.15,63.23c-0.18,0-0.35,0.01-0.53,0.01c-0.35-0.06-0.66-0.06-1-0.02c-0.1-0.01-0.2-0.01-0.31-0.02
			c-0.51,0.05-1.06,0.03-1.59,0.08c-0.57,0.05-1.33,0.01-1.98,0.12c-0.38,0.06-0.68,0.01-1.03,0.07c-0.28,0.01-0.57,0.02-0.85,0.03
			c-0.16,0-0.32,0-0.47,0c-0.38,0-0.78,0-1.12-0.05c-0.24-0.03-0.59,0.04-0.79,0.07c-0.2,0.03-0.73-0.04-0.82,0.13
			c0,0.03,0.01,0.06,0.01,0.09c0.06,0.04,0.43,0.01,0.59-0.02c0.49-0.09,0.91-0.13,1.39-0.08c0.71,0.07,1.42,0.08,2.1-0.02
			c0.43-0.07,0.87,0.01,1.31-0.05c0.48-0.07,0.99-0.04,1.4-0.12c0.2,0,0.39,0,0.59,0c0.01,0.02,0.03,0.04,0.04,0.05
			c0.02,0.01,0.27-0.1,0.38-0.09c0.25,0.02,0.47-0.03,0.71-0.01c0.1,0.01,0.2,0.01,0.3,0.02c0.09-0.02,0.3-0.07,0.41-0.03
			c0.05,0.02,0.06,0.07,0.12,0.09c0-0.02,0-0.05,0-0.07c0.14-0.04,0.29-0.02,0.41,0.01c0.11,0,0.21,0,0.32,0
			c0.53,0,0.98,0.05,1.38,0.13c0-0.02,0-0.04,0-0.06c0.15-0.04,0.23,0.04,0.35,0.06c-0.01-0.05,0-0.03-0.03-0.05
			c0-0.01-0.01-0.01-0.01-0.02c0.08-0.03,0.19-0.02,0.26-0.02c0.02,0.02,0.04,0.04,0.05,0.06c0,0.01,0.05,0.02,0.09,0.02
			c0-0.02,0.01-0.04,0.01-0.05c0.01,0,0.01-0.01,0.02-0.01c0.02,0.02,0.04,0.04,0.06,0.06c0.02-0.02,0.02-0.02,0.02-0.06
			c0.08,0.02,0.08,0.03,0.14,0.07c0.06-0.04,0.43-0.11,0.5-0.04c0.1,0.11-0.03,0.4-0.09,0.44c0,0.03,0.01,0.06,0.01,0.09
			c0.01,0.02,0.03,0.04,0.04,0.06c0.27-0.02,1.15-0.45,1.26-0.61c0-0.02,0-0.04,0-0.06c-0.25-0.22-0.53-0.31-0.86-0.46
			c-0.07-0.03-0.06-0.09-0.17-0.11c-0.02,0.01-0.05,0.01-0.07,0.02c-0.05,0.11-0.08,0.26-0.08,0.4
			C133.83,63.19,132.96,63.3,132.15,63.23z"/>
		<path class="st0" d="M139.01,63.1c-0.01-0.01-0.03-0.01-0.04-0.02c-0.01,0-0.03,0-0.04,0c-0.01,0.02-0.02,0.04-0.03,0.05
			c0.09,0.24-0.12,0.52-0.33,0.56c-0.01-0.07-0.03-0.14-0.04-0.21c0.01-0.12,0.19-0.32,0.09-0.41c-0.03-0.02-0.07-0.02-0.13-0.02
			c-0.21,0.26-0.26,0.65,0.06,0.86C138.94,63.76,139.07,63.55,139.01,63.1z"/>
		<path class="st0" d="M110.32,63.17c0-0.01,0-0.02,0-0.03c-0.01,0-0.02,0-0.03,0c0,0.01-0.01,0.01-0.01,0.02
			C110.29,63.16,110.3,63.17,110.32,63.17z"/>
		<path class="st0" d="M110.85,63.3c0.01-0.01,0.02-0.03,0.03-0.04c0-0.02-0.01-0.04-0.01-0.06c-0.03-0.01-0.06-0.01-0.09-0.02
			c-0.01,0.01-0.01,0.03-0.02,0.04c-0.01,0.01-0.01,0.01-0.02,0.02c0.02,0.02,0.04,0.04,0.05,0.05
			C110.81,63.29,110.83,63.29,110.85,63.3z"/>
		<path class="st0" d="M111.34,63.44c0.01,0,0.01-0.01,0.02-0.01c0.02-0.03,0.02-0.03,0.03-0.07c-0.09-0.06-0.25-0.14-0.37-0.15
			c-0.02,0.01-0.04,0.02-0.05,0.03C110.98,63.37,111.2,63.45,111.34,63.44z"/>
		<path class="st0" d="M108.32,63.41c0.01,0,0.01-0.01,0.02-0.01c0.03-0.01,0.03-0.01,0.05-0.04c0-0.01,0-0.03,0-0.04
			c-0.02,0-0.04-0.01-0.06-0.01c-0.02,0.04-0.03,0.04-0.01,0.08C108.32,63.4,108.32,63.41,108.32,63.41z"/>
		<path class="st0" d="M109.54,63.79c0-0.01,0-0.02,0-0.03c-0.11-0.1-0.29-0.42-0.42-0.44c-0.07,0.05-0.09,0.07-0.11,0.18
			c0.09,0.13,0.1,0.3,0.26,0.37C109.37,63.91,109.47,63.84,109.54,63.79z"/>
		<path class="st0" d="M139.22,63.94c0.02,0.02,0.05,0.04,0.07,0.05c0.18-0.05,0.2-0.1,0.32-0.19c0.01,0,0.01,0.01,0.02,0.01
			c0.03,0.14,0,0.3-0.01,0.45c-0.01,0.31,0.09,0.96-0.39,0.96c-0.13-0.1-0.2-0.27-0.3-0.41c-0.01,0-0.02,0-0.03,0
			c-0.02,0.04-0.01,0.09-0.03,0.14c0.06,0.08,0.11,0.17,0.17,0.25c0.16,0.25,0.44,0.26,0.62,0.01c0.23-0.33,0.12-0.84,0.19-1.28
			c0.02-0.15,0.14-0.24,0.08-0.41c-0.12-0.07-0.24-0.14-0.43-0.14C139.22,63.53,139.17,63.6,139.22,63.94z M139.55,63.6
			c0,0,0,0.01,0,0.01c-0.03-0.01-0.01,0.01-0.03-0.01C139.53,63.6,139.54,63.6,139.55,63.6z M139.5,63.61
			c0.01,0.01,0.01,0.02,0.02,0.03c-0.05,0.04-0.09,0.08-0.14,0.13C139.4,63.67,139.45,63.67,139.5,63.61z"/>
		<path class="st0" d="M108.47,64.53c0.05,0,0.11,0.01,0.16,0.01c0-0.02-0.01-0.04-0.01-0.05c0.12,0.02,0.17-0.1,0.3-0.13
			c0-0.01,0-0.02,0-0.03c-0.13,0.02-0.18,0.07-0.33,0.05c0.02-0.02,0.04-0.04,0.05-0.05c0.01-0.01,0.01-0.03,0.02-0.04
			c-0.08,0-0.1,0.02-0.16,0.04c0.02-0.03-0.01-0.02-0.04-0.02c0.04-0.06,0.12-0.08,0.19-0.12c0-0.01,0.01-0.02,0.01-0.03
			c-0.03-0.01-0.03-0.02-0.11-0.03c-0.01-0.02-0.01-0.04-0.02-0.06c0.02-0.04,0.01-0.04,0.07-0.04c0-0.01,0.01-0.01,0.01-0.02
			c-0.05-0.02-0.06-0.01-0.07,0.01c-0.07-0.03-0.08-0.15-0.07-0.24c-0.02,0-0.04-0.01-0.06-0.01c0.02-0.01,0.04-0.03,0.05-0.04
			c-0.02-0.12-0.05-0.16-0.06-0.27c-0.02-0.01-0.05-0.01-0.07-0.02c-0.11,0.19,0.04,0.78,0.05,0.98c-0.03,0.03-0.06,0.06-0.08,0.09
			c0.04,0.04,0.08,0.03,0.09,0.09c0.02,0,0.05,0,0.07,0C108.46,64.57,108.47,64.55,108.47,64.53z M108.51,64.36
			c0.01,0.01,0.02,0.02,0.03,0.03c-0.01,0-0.01,0-0.02,0c0,0.03,0.01,0.01-0.01,0.03c-0.01,0-0.01-0.01-0.02-0.01
			C108.5,64.4,108.51,64.38,108.51,64.36z"/>
		<path class="st0" d="M128.64,63.53c-0.01-0.01-0.01-0.01-0.02-0.02c0,0.01-0.01,0.02-0.01,0.03
			C128.62,63.54,128.63,63.53,128.64,63.53z"/>
		<path class="st0" d="M131.1,63.57c0.02,0,0.04,0,0.06,0c0-0.01,0.01-0.01,0.01-0.02c0-0.01-0.01-0.01-0.01-0.02
			c-0.02,0-0.04,0-0.05,0C131.1,63.54,131.1,63.56,131.1,63.57z"/>
		<path class="st0" d="M142.79,64.38c-0.27-0.34-0.87,0.06-1.07,0.16c0,0-0.01,0-0.01,0c-0.02-0.08-0.03-0.17-0.09-0.2
			c-0.12-0.05-0.22,0.13-0.36,0.12c-0.07-0.01-0.22-0.05-0.25-0.11c-0.09-0.12-0.05-0.57,0.03-0.65c-0.01-0.08-0.03-0.09-0.06-0.14
			c-0.05-0.03-0.11-0.03-0.2-0.03c-0.3,0.16-0.69,0.22-0.71,0.62c0.03,0.03,0.06,0.06,0.08,0.08c0.15,0.15,0.46-0.11,0.56-0.18
			c0.02,0.1,0.04,0.2,0.06,0.31c0.08,0.17,0.44,0.33,0.7,0.22c0.06,0.06-0.01,0.17,0.05,0.23c0.04,0.06,0.11,0.06,0.17,0.01
			c0.28-0.27,0.57-0.41,1.1-0.41C142.79,64.4,142.79,64.39,142.79,64.38z M140.36,64.07c-0.02,0-0.04,0-0.05,0c0,0,0-0.01,0-0.01
			c0.11-0.17,0.25-0.18,0.42-0.28c0.01,0,0.03,0,0.04,0C140.67,63.91,140.52,63.99,140.36,64.07z"/>
		<path class="st0" d="M110.97,63.86c-0.02-0.01-0.04-0.01-0.05-0.02c-0.02,0-0.04,0.01-0.05,0.01c-0.01,0.02-0.01,0.05-0.02,0.07
			c0.02,0.02,0.05,0.04,0.07,0.05C111,63.93,110.96,63.92,110.97,63.86z"/>
		<path class="st0" d="M108.55,63.96c0.02,0,0.05,0,0.07,0c-0.02-0.04-0.02-0.03-0.06-0.04C108.56,63.93,108.56,63.95,108.55,63.96z
			"/>
		<path class="st0" d="M138.41,63.99c0,0,0,0.01,0,0.01c0.02,0,0.04,0,0.05,0c0-0.01,0.01-0.01,0.01-0.02
			c-0.01-0.01-0.03-0.01-0.04-0.02C138.42,63.97,138.41,63.98,138.41,63.99z"/>
		<path class="st0" d="M139.28,64.06c-0.01,0-0.01,0.01-0.02,0.01c0,0.01,0,0.01,0,0.02c0.01,0,0.03,0,0.04,0c0,0,0-0.01,0-0.01
			C139.29,64.07,139.29,64.06,139.28,64.06z"/>
		<path class="st0" d="M108.82,64.15c0-0.01,0.01-0.03,0.01-0.04c-0.02,0-0.05,0-0.07,0c0,0.01,0,0.03,0,0.04
			C108.78,64.15,108.8,64.15,108.82,64.15z"/>
		<path class="st0" d="M108.62,64.21c-0.02,0.02-0.02,0.01-0.03,0.05c0.02,0,0.05,0,0.07,0C108.65,64.23,108.65,64.24,108.62,64.21z
			"/>
		<path class="st0" d="M109.96,64.47c0.01,0,0.03,0,0.04,0c0-0.01,0-0.02,0-0.03c-0.01,0-0.01,0-0.02,0c-0.01,0-0.01,0.01-0.02,0.01
			C109.96,64.45,109.96,64.46,109.96,64.47z"/>
		<path class="st0" d="M108.99,64.52c0.01,0,0.01,0,0.02,0c0-0.01,0-0.03,0-0.04c-0.02,0-0.04,0-0.06,0c0,0.01-0.01,0.02-0.01,0.03
			C108.96,64.52,108.96,64.53,108.99,64.52z"/>
		<path class="st0" d="M109.18,66.31c0.04-0.03,0.03,0,0.03-0.04c0.05,0,0.09,0,0.15-0.01c0.02-0.07,0.03-0.08,0-0.13
			c0.02-0.01,0.04-0.02,0.05-0.03c0.01,0.02,0.02,0.05,0.03,0.07c0.01,0,0.03,0,0.04,0c0.02-0.01,0.04-0.02,0.05-0.03
			c0,0,0-0.01,0-0.01c-0.03-0.04-0.04-0.04-0.05-0.09c-0.1-0.02-0.21,0.07-0.34,0.06c0,0,0-0.01,0-0.01
			c0.05-0.02,0.11-0.04,0.16-0.05c-0.02-0.06-0.03-0.02,0-0.06c-0.02-0.02-0.01-0.01-0.05-0.02c0.01,0,0.03-0.01,0.04-0.01
			c-0.01-0.07-0.03-0.07-0.03-0.12c0.02-0.01,0.04-0.01,0.06-0.02c0-0.01-0.01-0.02-0.01-0.03c-0.13,0.01-0.22,0.04-0.33,0.06
			c0.01-0.06,0.03-0.09-0.01-0.12c0.07-0.03,0.14-0.03,0.23-0.03c0.01-0.01,0.01-0.02,0.02-0.03c-0.04-0.04-0.22-0.09-0.31-0.06
			c0.03-0.04,0.02-0.03,0.08-0.03c0-0.01,0.01-0.01,0.01-0.02c-0.06-0.03-0.15,0.01-0.19,0.05c0,0-0.01,0-0.01,0
			c-0.01-0.01-0.01-0.02-0.02-0.03c0.02-0.02,0.04-0.04,0.06-0.05c-0.01-0.04,0-0.02-0.03-0.04c-0.02-0.05-0.04-0.03-0.09-0.02
			c0,0,0-0.01,0-0.01c0.08-0.03,0.03-0.04,0.01-0.09c0.04-0.03,0.11-0.06,0.15-0.06c0.01-0.01,0.03-0.02,0.04-0.03
			c-0.04-0.01-0.08-0.01-0.12-0.02c0.01-0.06,0.02-0.04-0.01-0.08c0.07-0.03,0.15-0.03,0.18-0.11c-0.15,0-0.21,0.03-0.36,0.01
			c0-0.01,0-0.01,0-0.02c0.06-0.02,0.11-0.05,0.17-0.07c-0.01-0.02-0.02-0.05-0.03-0.07c0.03,0,0.06,0.01,0.08,0.01
			c0.01,0,0.01,0,0.02,0c0-0.01,0-0.03,0-0.04c-0.04-0.01-0.07-0.02-0.12-0.01c0.04-0.04,0.11-0.06,0.18-0.07c0,0,0-0.01,0-0.01
			c-0.02-0.02-0.05-0.04-0.07-0.05c0-0.05,0.01-0.03-0.01-0.07c0.02-0.01,0.04-0.02,0.05-0.03c0,0,0-0.01,0-0.01
			c-0.04-0.04-0.07-0.03-0.12,0c0-0.01,0.01-0.01,0.01-0.02c-0.01-0.03-0.01,0,0.01-0.03c-0.02-0.01-0.04-0.01-0.05-0.02
			c-0.16,0.07-0.19,0.09-0.35,0.11c0.04,0.62,0.33,1.11,0.52,1.58c0.09,0,0.1-0.01,0.13-0.07c0.01,0,0.03,0,0.04,0
			c0,0.01,0,0.01,0,0.02c-0.05,0.03-0.04,0.02-0.03,0.07c-0.05,0.01-0.11,0.01-0.16,0.02c0.01,0.06,0.12,0.13,0.14,0.2
			c0.08-0.03,0.15-0.06,0.23-0.09C109.24,66.32,109.24,66.31,109.18,66.31z M109.22,66.19c0.01,0,0.03,0,0.04,0c0,0,0,0.01,0,0.01
			c-0.02,0.01-0.05,0.02-0.07,0.03C109.2,66.22,109.21,66.2,109.22,66.19z M108.95,65.67c0,0,0.01,0,0.01,0c0,0.01,0,0.02,0,0.03
			c-0.01,0-0.02-0.01-0.03-0.01C108.93,65.68,108.94,65.68,108.95,65.67z M108.96,65.89c0.06,0,0.08,0.01,0.11,0.04
			c0.01,0,0.01,0,0.02,0C109.02,65.97,108.98,65.91,108.96,65.89z M109.08,66.01c0.04-0.09,0.06-0.08,0.04-0.17
			c0.04,0.03,0.03,0.09,0.12,0.11c0,0,0,0.01,0,0.01c-0.02,0.01-0.04,0.03-0.05,0.04C109.15,66,109.12,66,109.08,66.01z"/>
		<path class="st0" d="M109.01,64.72c0-0.01,0.01-0.01,0.01-0.02c0,0,0-0.01,0-0.01c-0.02,0-0.04-0.01-0.06-0.01
			c0,0.01,0,0.01,0,0.02c0,0.01,0.01,0.01,0.01,0.02C108.98,64.72,108.99,64.72,109.01,64.72z"/>
		<path class="st0" d="M109.23,64.87c-0.02-0.02-0.01-0.01-0.05-0.02c0,0.01-0.01,0.02-0.01,0.03c0.02,0,0.04,0,0.06,0
			C109.23,64.88,109.23,64.87,109.23,64.87z"/>
		<path class="st0" d="M118.34,64.86c0,0.01-0.01,0.02-0.01,0.03c0.01,0,0.02,0.01,0.03,0.01c0.03,0,0.06,0,0.08,0
			c-0.01-0.01-0.01-0.01-0.02-0.02C118.4,64.86,118.39,64.86,118.34,64.86z"/>
		<path class="st0" d="M109,65.22c0,0,0-0.01,0-0.01c-0.02,0-0.04-0.01-0.06-0.01c0.02,0.04,0,0.02,0.04,0.03
			C108.98,65.22,108.99,65.22,109,65.22z"/>
		<path class="st0" d="M116.66,65.23c-0.02-0.04,0-0.02-0.05-0.03c0.01,0.01,0.01,0.03,0.02,0.04
			C116.63,65.23,116.65,65.23,116.66,65.23z"/>
		<path class="st0" d="M116.59,65.27c-0.01-0.01-0.01-0.01-0.02-0.02c0,0-0.01,0.01-0.01,0.01c0,0,0,0.01,0,0.01
			c0.01,0,0.01,0.01,0.02,0.01C116.59,65.28,116.59,65.27,116.59,65.27z"/>
		<path class="st0" d="M109.5,65.3c-0.03-0.03-0.04-0.03-0.11-0.03c0,0.01,0.01,0.02,0.01,0.03c0.01,0.01,0.02,0.02,0.03,0.03
			c0.04-0.01,0.04-0.01,0.06-0.02C109.5,65.31,109.5,65.3,109.5,65.3z"/>
		<path class="st0" d="M109.05,65.31c0-0.01,0.01-0.01,0.01-0.02c-0.02,0-0.04-0.01-0.06-0.01c0.02,0.04,0,0.02,0.04,0.03
			C109.04,65.31,109.05,65.31,109.05,65.31z"/>
		<path class="st0" d="M109.04,65.35c-0.02,0-0.04,0-0.06,0c-0.01,0.02-0.01,0.04-0.02,0.05c0.03-0.01,0.06-0.03,0.08-0.04
			C109.04,65.36,109.04,65.36,109.04,65.35z"/>
		<path class="st0" d="M118.46,65.49c0.01,0,0.02-0.01,0.03-0.01c0-0.01,0-0.02,0-0.03c-0.01,0-0.02,0-0.03,0
			C118.46,65.46,118.46,65.48,118.46,65.49z"/>
		<path class="st0" d="M109.1,65.51c-0.01,0.01-0.02,0.03-0.03,0.04c0.03,0.03,0.05,0.03,0.09,0c0.01-0.01,0.02-0.02,0.03-0.03
			c-0.01-0.01-0.03-0.01-0.04-0.02C109.14,65.51,109.12,65.51,109.1,65.51z"/>
		<path class="st0" d="M109.7,65.59c-0.01,0.01-0.02,0.02-0.03,0.03c0.03,0.04,0.04,0.05,0.11,0.05c0,0,0.01-0.01,0.01-0.01
			C109.77,65.61,109.76,65.6,109.7,65.59z"/>
		<path class="st0" d="M109.43,65.73c0.01-0.01,0.01-0.02,0.02-0.03c-0.03-0.02-0.04-0.03-0.09-0.04c-0.01,0.01-0.03,0.03-0.04,0.04
			C109.35,65.74,109.37,65.75,109.43,65.73z"/>
		<path class="st0" d="M109.59,65.85c0,0.01-0.01,0.03-0.01,0.04c0.02,0,0.05,0,0.07,0C109.63,65.86,109.63,65.86,109.59,65.85z"/>
		<path class="st0" d="M109.62,66.04c-0.05-0.01-0.09-0.03-0.14-0.04c0.01,0.06,0.07,0.07,0.06,0.14c0.03,0,0.06,0.01,0.09,0.01
			c0-0.01,0.01-0.01,0.01-0.02C109.64,66.1,109.63,66.07,109.62,66.04z"/>
		<path class="st0" d="M109.82,66.05c-0.02-0.03,0-0.02-0.04-0.03C109.8,66.05,109.78,66.04,109.82,66.05z"/>
		<path class="st0" d="M109.7,66.09c0,0.01,0,0.01,0,0.02c0.02,0,0.04,0,0.06,0c-0.02-0.03,0-0.02-0.04-0.03
			C109.72,66.09,109.71,66.09,109.7,66.09z"/>
		<path class="st0" d="M109.44,66.23c0-0.01-0.01-0.01-0.01-0.02c0,0.01-0.01,0.01-0.01,0.02
			C109.43,66.23,109.43,66.23,109.44,66.23z"/>
		<path class="st0" d="M109.47,66.21c-0.01,0-0.01,0-0.02,0c0,0.01,0,0.01,0,0.02C109.46,66.22,109.47,66.22,109.47,66.21z"/>
		<path class="st0" d="M109.6,66.25c0.02,0,0.04,0,0.05,0c-0.01-0.01-0.02-0.02-0.03-0.03C109.61,66.23,109.61,66.24,109.6,66.25z"
			/>
		<path class="st0" d="M110,66.93c0.08,0.01,0.23-0.02,0.31-0.03c0-0.01,0.01-0.01,0.01-0.02c0-0.02-0.01-0.04-0.01-0.05
			c-0.08-0.01-0.13,0.03-0.19,0.01c-0.01,0-0.01-0.01-0.02-0.01c0.11-0.04,0.12-0.12,0.24-0.14c0,0,0-0.01,0-0.01
			c-0.02-0.04-0.03-0.04-0.07-0.06c-0.04,0.03-0.05,0.03-0.04,0.07c-0.04-0.01-0.08-0.03-0.13-0.04c-0.02,0.04-0.05,0.07-0.07,0.11
			c-0.05-0.05-0.09-0.07-0.2-0.06c0.01-0.01,0.03-0.02,0.04-0.03c0.02-0.03,0.07,0.02,0.14,0.02c0-0.01,0.01-0.01,0.01-0.02
			c-0.02-0.02-0.04-0.05-0.06-0.07c0.05,0.02,0.12,0.01,0.18-0.04c0-0.01-0.01-0.01-0.01-0.02c-0.04-0.01-0.08-0.01-0.13-0.02
			c0.01-0.03,0.02-0.06,0.03-0.08c0,0-0.01-0.01-0.01-0.01c-0.06-0.01-0.07-0.01-0.15-0.01c0,0.01-0.01,0.01-0.01,0.02
			c0.01,0.01,0.03,0.03,0.04,0.04c-0.03,0-0.03,0-0.05,0.03c-0.02,0-0.05-0.01-0.07-0.01c0.01-0.01,0.02-0.02,0.03-0.03
			c-0.01-0.01-0.03-0.02-0.04-0.03c0.05-0.03,0.1-0.07,0.17-0.07c0,0,0-0.01,0-0.01c-0.06-0.05-0.17-0.05-0.25-0.05
			c-0.08,0.08-0.19,0.01-0.37,0.02c0,0.01-0.01,0.02-0.01,0.03c0.04,0.03,0.05,0.11,0.12,0.15c0.03,0.02,0.11,0.03,0.15,0.02
			c0.04-0.03,0.02-0.01,0.01-0.05c0.06,0.01,0.1,0,0.16-0.02c-0.01,0.05,0.02,0.12,0.11,0.13c0,0,0,0.01,0,0.01
			c-0.03,0.03-0.06,0.03-0.13,0.03c0.01-0.04,0-0.04-0.01-0.07c-0.06-0.01-0.15-0.02-0.2,0.01c-0.01,0.01-0.02,0.02-0.03,0.03
			c0.01,0.02,0.02,0.04,0.03,0.06c0.06,0,0.13-0.01,0.19-0.01c-0.01,0.03-0.03,0.06-0.04,0.09c0,0,0,0.01,0,0.01
			c0.09,0,0.18,0.01,0.26,0.01c0,0.01,0.01,0.02,0.01,0.03c0,0.01,0,0.02,0,0.03c-0.13,0.03-0.14,0.03-0.28,0.03c0,0-0.01,0-0.01,0
			c-0.03,0.04-0.05,0.04-0.01,0.07c-0.08,0.03-0.15,0.06-0.23,0.08c0.01,0.04,0.01,0.03,0.02,0.05c0.17-0.04,0.36-0.11,0.55-0.18
			C109.99,66.88,109.98,66.88,110,66.93z M109.47,66.45c0.01-0.01,0.02-0.03,0.03-0.04c0.01,0,0.02,0.01,0.03,0.01
			c0,0.01,0.01,0.01,0.01,0.02C109.52,66.44,109.5,66.45,109.47,66.45z"/>
		<path class="st0" d="M110.28,66.39c0-0.01-0.01-0.01-0.01-0.02c-0.02,0-0.04,0-0.05,0c0,0.02,0,0.04,0,0.05c0.01,0,0.03,0,0.04,0
			C110.27,66.41,110.28,66.4,110.28,66.39z"/>
		<path class="st0" d="M109.3,66.49c0-0.02,0.01-0.04,0.01-0.06c-0.01,0-0.02-0.01-0.03-0.01c-0.06,0.02-0.13,0.04-0.19,0.06
			c-0.01,0-0.01,0-0.02,0c0.03,0.1,0.08,0.14,0.12,0.24c0.02,0,0.04-0.01,0.05-0.01c0.01,0,0.01,0,0.02,0
			c-0.01-0.03-0.03-0.06-0.04-0.09c0.05-0.02,0.09-0.04,0.14-0.06c0.01-0.01,0.01-0.02,0.02-0.03
			C109.36,66.51,109.34,66.5,109.3,66.49z"/>
		<path class="st0" d="M109.39,66.5c0,0.01,0,0.01,0,0.02c0.01-0.01,0.01-0.01,0.02-0.02C109.4,66.5,109.4,66.5,109.39,66.5z"/>
		<path class="st0" d="M119.1,66.63c0,0,0,0.01,0,0.01c0.01,0,0.03,0,0.04,0c0,0,0-0.01,0-0.01c-0.01-0.01-0.02-0.01-0.03-0.02
			C119.11,66.62,119.11,66.62,119.1,66.63z"/>
		<path class="st0" d="M109.3,66.67c0.01,0,0.01,0,0.02,0c0,0,0.01,0,0.01,0c0-0.01,0.01-0.01,0.01-0.02
			c-0.01-0.01-0.03-0.01-0.04-0.02C109.3,66.64,109.3,66.66,109.3,66.67z"/>
		<path class="st0" d="M109.51,66.67c0,0.01,0,0.01,0,0.02c-0.03-0.02-0.02,0.02-0.02,0.05c0.02,0,0.04,0.01,0.05,0.01
			c-0.01,0-0.03,0-0.04,0c0,0.02-0.01,0.05-0.01,0.07c0.01,0.01,0.01,0.01,0.02,0.02c0.02,0,0.04-0.01,0.05-0.01
			c0.05-0.03,0.03-0.06,0.03-0.11C109.57,66.69,109.55,66.69,109.51,66.67z"/>
		<path class="st0" d="M109.7,66.73c-0.01,0-0.01,0.01-0.02,0.01c0,0.01,0,0.01,0,0.02c0.01,0,0.03,0,0.04,0
			c0.01,0,0.01-0.01,0.02-0.01C109.73,66.74,109.72,66.73,109.7,66.73z"/>
		<path class="st0" d="M109.39,66.74c-0.01,0-0.01,0-0.02,0c0,0.01,0,0.01,0,0.02C109.37,66.75,109.38,66.74,109.39,66.74z"/>
		<path class="st0" d="M109.24,66.82c0.01,0,0.02,0.01,0.03,0.01c0.01,0,0.03,0,0.04,0c0-0.01,0-0.03,0-0.04
			c-0.02,0-0.05-0.01-0.07-0.01C109.24,66.79,109.24,66.81,109.24,66.82z"/>
		<path class="st0" d="M109.48,66.87c0,0,0-0.01,0-0.01c-0.01-0.01-0.03-0.02-0.04-0.03c-0.01,0-0.02,0-0.03,0
			c-0.01,0.01-0.03,0.02-0.04,0.03c0.02,0.01,0.04,0.02,0.05,0.03C109.46,66.89,109.46,66.89,109.48,66.87z"/>
		<path class="st0" d="M109.55,67.08c0.09,0.04,0.21,0.05,0.34,0.03c0-0.01,0.01-0.01,0.01-0.02c-0.03,0-0.06,0-0.08,0
			c0-0.02-0.01-0.04-0.01-0.05c0.02,0,0.04-0.01,0.05-0.01c-0.01-0.03-0.01-0.02-0.03-0.04c0.05-0.01,0.08,0.03,0.15-0.01
			c0.01,0,0.01-0.01,0.02-0.01c-0.02-0.02-0.05-0.04-0.07-0.05c-0.05,0.02-0.11,0.04-0.16,0.05c0,0.01,0,0.01,0,0.02
			c0,0.01,0,0.02,0,0.03c-0.06,0-0.09,0-0.17,0.01c0.01-0.04,0-0.01-0.01-0.04c-0.03,0.01-0.06,0.01-0.08,0.02
			c-0.01,0.01-0.02,0.01-0.03,0.02c0.02,0.01,0.03,0.03,0.05,0.04c0.01,0,0.01,0,0.02,0C109.55,67.08,109.55,67.08,109.55,67.08z"/>
		<path class="st0" d="M110.22,66.96c-0.02-0.01-0.05-0.01-0.07-0.02c-0.03,0.02-0.03,0.01-0.04,0.05c0,0,0,0.01,0,0.01
			c0.02,0.01,0.05,0.01,0.07,0.02C110.2,66.99,110.21,67,110.22,66.96z"/>
		<path class="st0" d="M109.67,66.99c0.02,0,0.05-0.01,0.07-0.01c0-0.01,0.01-0.01,0.01-0.02c0,0,0-0.01,0-0.01
			c-0.01,0-0.03,0-0.04,0c-0.01,0.01-0.03,0.02-0.04,0.03C109.67,66.98,109.67,66.99,109.67,66.99z"/>
		<path class="st0" d="M139.82,72.3c-0.05-0.03-0.12-0.06-0.19-0.04c-0.14,0.04-0.18,0.43-0.17,0.59c-0.24,0.03-1.04-0.32-1.3-0.4
			c-1.03-0.34-2.11-0.58-3.11-0.92c-0.29-0.08-0.58-0.15-0.88-0.23c-1.22-0.43-2.55-0.73-3.78-1.17c-0.32-0.11-0.62-0.14-0.94-0.24
			c-0.21-0.07-0.42-0.13-0.63-0.2c-0.05,0-0.11,0-0.16,0c-1.52-0.46-2.98-0.94-4.53-1.38c-0.66-0.19-1.39-0.34-2.01-0.59
			c-0.25-0.12-0.49-0.23-0.74-0.35c-0.21-0.06-0.41-0.11-0.62-0.17c-0.17-0.07-0.42-0.23-0.62-0.23c-0.02,0.01-0.04,0.02-0.06,0.03
			c0.02,0.26,0.85,0.39,1.11,0.47c0.59,0.2,1.15,0.53,1.79,0.7c0.4,0.1,0.73,0.18,1.1,0.3c0.16,0.04,0.32,0.07,0.49,0.11
			c0.36,0.16,0.76,0.25,1.16,0.38c0.4,0.13,0.84,0.31,1.24,0.44c0.23,0.05,0.46,0.1,0.7,0.15c1.49,0.46,3.03,0.85,4.54,1.3
			c0.17,0.06,0.33,0.13,0.5,0.19c0.28,0.1,0.57,0.1,0.83,0.21c0.4,0.17,0.82,0.26,1.28,0.39c0.23,0.08,0.46,0.17,0.69,0.25
			c0.47,0.13,0.93,0.26,1.36,0.39c0.17,0.04,0.34,0.08,0.51,0.12c0.45,0.18,0.95,0.28,1.42,0.43c0.22,0.07,0.42,0.2,0.69,0.23
			c0.01,0.11,0.03,0.22,0.04,0.33c-0.03,0.15-0.1,0.28-0.09,0.5c0.06,0.04,0.11,0.08,0.17,0.13c0.13,0.01,0.27-0.09,0.41-0.14
			c0.35-0.12,0.91-0.18,1.03-0.53c-0.27-0.25-0.59-0.52-0.89-0.74C140.03,72.52,139.84,72.44,139.82,72.3z M139.68,73.76
			c0-0.01-0.01-0.01-0.01-0.02c0.01,0,0.01-0.01,0.02-0.01c0.01,0,0.01,0,0.02,0C139.7,73.74,139.69,73.75,139.68,73.76z"/>
		<path class="st0" d="M109.75,67.01c0.01-0.01,0.01-0.01,0.02-0.02c-0.01,0-0.01,0-0.02,0C109.75,67,109.75,67,109.75,67.01z"/>
		<path class="st0" d="M110.01,67.15c0.04,0.02,0.07,0.05,0.11,0.07c0.02,0,0.04-0.01,0.06-0.01c0-0.02,0-0.04,0-0.05
			c-0.03,0-0.06,0.01-0.09,0.01c0,0,0-0.01,0-0.01c0.06-0.05,0.14-0.05,0.21-0.02c0.01-0.01,0.02-0.02,0.03-0.03
			c0.02-0.02,0.01,0,0.02-0.03c-0.01-0.02-0.02-0.04-0.03-0.05C110.22,67.03,110.07,67.09,110.01,67.15z"/>
		<path class="st0" d="M109.58,67.13c-0.02-0.02-0.02-0.03-0.03-0.04c-0.01,0-0.02-0.01-0.03-0.02c-0.04-0.01-0.07-0.01-0.1-0.02
			c0.01,0.04,0.03,0.08,0.04,0.12c0.04-0.01,0.07-0.01,0.11-0.02C109.57,67.14,109.57,67.13,109.58,67.13z"/>
		<path class="st0" d="M109.99,67.15c-0.01,0-0.03,0-0.04,0c-0.03,0.01-0.06,0.03-0.08,0.04c-0.01,0-0.02,0.01-0.03,0.01
			c0.05-0.01,0.11-0.02,0.16-0.03C109.99,67.16,109.99,67.15,109.99,67.15z"/>
		<path class="st0" d="M109.72,67.25c-0.03,0-0.06-0.01-0.09-0.01c0-0.01,0.01-0.03,0.01-0.04c-0.04,0-0.08-0.01-0.12-0.01
			c0,0.02,0,0.04,0,0.06c0.05,0.02,0.05,0.01,0.05,0.05c0.08,0,0.07-0.01,0.14-0.03C109.71,67.27,109.71,67.26,109.72,67.25z"/>
		<path class="st0" d="M109.87,67.27c-0.02-0.06-0.04-0.05-0.09-0.06c-0.01,0.06-0.02,0.04,0.01,0.09c-0.04,0-0.08,0-0.13,0
			c-0.01,0-0.01,0.01-0.02,0.01c0.01,0.02,0.01,0.03,0.03,0.04c0,0.01,0,0.01,0,0.02C109.78,67.36,109.79,67.3,109.87,67.27z"/>
		<path class="st0" d="M110.01,67.25c0,0,0-0.01,0-0.01c-0.02-0.01-0.04-0.02-0.05-0.03c-0.02,0.02-0.02,0.01-0.03,0.05
			c0.02,0,0.04-0.01,0.06-0.01C110,67.25,110,67.25,110.01,67.25z"/>
		<path class="st0" d="M110.06,67.32c0,0,0-0.01,0-0.01c-0.02,0-0.04-0.01-0.05-0.01C110.03,67.32,110.02,67.31,110.06,67.32z"/>
		<path class="st0" d="M109.96,67.36c0,0,0-0.01,0-0.01c-0.02-0.02-0.01-0.01-0.05-0.02c-0.05,0.02-0.1,0.04-0.15,0.05
			c0.02,0.04,0.01,0.03,0.05,0.04c-0.03,0.02-0.06,0.04-0.08,0.05c0.03,0.03,0.08,0.02,0.13,0.01
			C109.84,67.43,109.9,67.38,109.96,67.36z"/>
		<path class="st0" d="M110.2,67.43c-0.01,0-0.01,0.01-0.02,0.01c0,0.01-0.01,0.02-0.01,0.03c0.03,0,0.06,0,0.09,0
			C110.25,67.43,110.26,67.44,110.2,67.43z"/>
		<path class="st0" d="M110.63,67.48c-0.02-0.02-0.04-0.02-0.08-0.02c0.01,0.02,0.02,0.05,0.03,0.07c0.02,0,0.04,0,0.06,0
			c0-0.02,0.01-0.04,0.01-0.05C110.65,67.48,110.64,67.48,110.63,67.48z"/>
		<path class="st0" d="M110.76,67.48c-0.01,0-0.01,0.01-0.02,0.01c0,0.01,0,0.02,0,0.03c0.02,0,0.04,0,0.05,0
			C110.78,67.49,110.79,67.5,110.76,67.48z"/>
		<path class="st0" d="M110.45,67.52c-0.01-0.01-0.03-0.01-0.04-0.02c-0.01,0.01-0.03,0.02-0.04,0.03c0,0,0,0.01,0,0.01
			c0.03,0,0.06-0.01,0.08-0.01C110.45,67.52,110.45,67.52,110.45,67.52z"/>
		<path class="st0" d="M110.86,67.5c0,0.02-0.01,0.04-0.01,0.06c0.02,0,0.05,0.01,0.07,0.01c0.01-0.01,0.01-0.02,0.02-0.03
			C110.92,67.5,110.93,67.5,110.86,67.5z"/>
		<path class="st0" d="M110.3,67.7c0.05-0.01,0.11-0.01,0.16-0.02c0-0.01,0.01-0.01,0.01-0.02c0,0,0-0.01,0-0.01
			c-0.03,0-0.06,0-0.09,0c0.01-0.03,0.03-0.06,0.04-0.09c-0.11,0-0.13-0.02-0.19-0.04C110.21,67.53,110.28,67.6,110.3,67.7z"/>
		<path class="st0" d="M110.11,67.53c-0.01,0-0.03,0-0.04,0c-0.01,0.01-0.02,0.01-0.03,0.02c0,0,0,0.01,0,0.01c0.02,0,0.05,0,0.07,0
			C110.11,67.55,110.11,67.54,110.11,67.53z"/>
		<path class="st0" d="M110.13,67.79c0-0.02,0-0.01,0.02-0.02c0-0.01-0.01-0.02-0.01-0.03c-0.05-0.02-0.1-0.02-0.16,0
			c-0.01-0.04-0.01-0.03-0.02-0.05c-0.01-0.01,0-0.02-0.02-0.06c0.03,0,0.06-0.01,0.08-0.01c0-0.01,0.01-0.01,0.01-0.02
			c-0.04-0.03-0.12-0.03-0.19-0.03c0,0.04,0,0.07,0,0.11c0.06,0.03,0.05,0.05,0.09,0.07c-0.02,0.01-0.04,0.03-0.06,0.04
			c0.01,0.04,0,0.02,0.02,0.04c0.08,0.04,0.1,0.01,0.19,0.07c0.06-0.01,0.06-0.02,0.09-0.04C110.17,67.8,110.16,67.83,110.13,67.79z
			"/>
		<path class="st0" d="M110.65,67.59c0,0,0-0.01,0-0.01c-0.02,0-0.04-0.01-0.05-0.01C110.62,67.59,110.61,67.58,110.65,67.59z"/>
		<path class="st0" d="M110.54,67.7c0.03,0.01,0.06,0.02,0.1,0.02c0.01-0.01,0.02-0.01,0.03-0.02c0-0.03,0-0.01,0.01-0.04
			c-0.03-0.01-0.06-0.02-0.09-0.03c-0.02,0.01-0.05,0.01-0.07,0.02c-0.01,0.01-0.01,0.01-0.02,0.02
			C110.5,67.68,110.52,67.69,110.54,67.7C110.54,67.7,110.54,67.7,110.54,67.7C110.54,67.7,110.54,67.7,110.54,67.7z"/>
		<path class="st0" d="M110.15,67.71c0.01,0,0.03,0,0.04,0c0.01-0.02,0.02-0.04,0.03-0.06c-0.03,0-0.06-0.01-0.08-0.01
			c0.01,0.02,0.01,0.04,0.02,0.05c-0.01,0-0.02-0.01-0.03-0.01C110.13,67.68,110.14,67.7,110.15,67.71z"/>
		<path class="st0" d="M110.49,67.72c0.01,0,0.01,0.01,0.02,0.01c0.01,0,0.01-0.01,0.02-0.01c0-0.01,0.01-0.01,0.01-0.02
			c0,0,0,0,0,0c-0.01,0-0.03,0-0.04,0C110.49,67.7,110.49,67.71,110.49,67.72z"/>
		<path class="st0" d="M110.23,67.73c-0.02,0-0.04-0.01-0.05-0.01c0,0.01,0,0.02,0,0.03c0.01,0,0.03,0,0.04,0
			C110.22,67.74,110.23,67.73,110.23,67.73z"/>
		<path class="st0" d="M110.67,67.77c-0.02-0.01-0.04-0.03-0.05-0.04c-0.02,0.01-0.04,0.02-0.05,0.03c0,0,0,0.01,0,0.01
			c0.03,0.01,0.06,0.01,0.08,0.02c0,0,0.01,0,0.01,0C110.67,67.78,110.67,67.78,110.67,67.77z"/>
		<path class="st0" d="M110.69,67.76c0.02,0,0.05,0,0.07,0c-0.01-0.01-0.02-0.02-0.03-0.03C110.71,67.74,110.7,67.75,110.69,67.76z"
			/>
		<path class="st0" d="M110.41,67.75c-0.03,0-0.06-0.01-0.08-0.01c-0.03,0.01-0.06,0.03-0.09,0.04c-0.01,0.01-0.01,0.02-0.02,0.03
			c0,0,0,0.01,0,0.01c0.07,0,0.11-0.02,0.18-0.04C110.4,67.77,110.4,67.76,110.41,67.75z"/>
		<path class="st0" d="M110.77,67.76c0,0,0,0.01,0,0.01c0,0.01,0.01,0.01,0.01,0.02c0.02,0,0.05,0,0.07,0c0.01,0,0.01,0,0.02,0
			c-0.02-0.05-0.01-0.04-0.06-0.05C110.8,67.74,110.78,67.75,110.77,67.76z"/>
		<path class="st0" d="M111.04,67.74c0,0.01,0,0.02,0,0.03c0.02,0,0.04,0,0.05,0C111.08,67.73,111.1,67.75,111.04,67.74z"/>
		<path class="st0" d="M110.37,67.81c0,0.01-0.01,0.01-0.01,0.02c0.03,0.03,0.06,0.02,0.11,0.01c0,0.03,0,0.03,0.01,0.06
			c0.02,0,0.04,0,0.06,0c0.01-0.02,0.01-0.05,0.02-0.07C110.48,67.8,110.46,67.8,110.37,67.81z"/>
		<path class="st0" d="M110.91,67.84c-0.01,0.01-0.02,0.02-0.03,0.03c0,0,0,0.01,0,0.01c0.02,0,0.05,0.01,0.07,0.01
			c0,0,0.01-0.01,0.01-0.01c0-0.01,0-0.01,0-0.02c-0.01-0.01-0.01-0.01-0.02-0.02C110.93,67.84,110.92,67.84,110.91,67.84z"/>
		<path class="st0" d="M110.27,67.98c0.01-0.01,0.01-0.01,0.02-0.02c-0.03-0.04-0.07-0.05-0.15-0.05c-0.01,0.01-0.02,0.02-0.03,0.03
			c0.04,0.02,0.08,0.05,0.12,0.07C110.26,68,110.26,68,110.27,67.98z"/>
		<path class="st0" d="M110.41,67.91c-0.01,0-0.03,0-0.04,0c-0.01,0-0.01,0.01-0.02,0.01c0,0.01,0,0.01,0,0.02c0.02,0,0.04,0,0.06,0
			C110.41,67.93,110.41,67.92,110.41,67.91z"/>
		<path class="st0" d="M110.75,67.99c-0.02-0.02-0.01-0.01-0.05-0.02c-0.02,0.01-0.04,0.01-0.05,0.02
			C110.68,67.99,110.71,67.99,110.75,67.99z"/>
		<path class="st0" d="M110.49,68c-0.02-0.02-0.02-0.02-0.06-0.02c-0.01,0-0.01,0.01-0.02,0.01c0.01,0.03-0.01,0.01,0.02,0.03
			c-0.05,0.03-0.08,0.02-0.15,0.01c0,0-0.01,0.01-0.01,0.01c0,0.01,0.01,0.02,0.01,0.03c0.02,0.02,0.04,0.04,0.05,0.06
			c0.07-0.03,0.06-0.07,0.15-0.08C110.47,68,110.45,68.04,110.49,68z"/>
		<path class="st0" d="M110.57,68c-0.02-0.02-0.03-0.02-0.07-0.02C110.52,68.01,110.52,68.02,110.57,68z"/>
		<path class="st0" d="M111.21,67.98c-0.01,0-0.02,0-0.03,0c0,0.01-0.01,0.01-0.01,0.02c0.01,0,0.03-0.01,0.04-0.01
			C111.21,67.99,111.21,67.98,111.21,67.98z"/>
		<path class="st0" d="M112.28,68c0.03-0.01,0.01,0,0.03-0.02c-0.01,0-0.01,0-0.02,0C112.29,67.99,112.28,67.99,112.28,68z"/>
		<path class="st0" d="M111.09,68.03c0.02,0.03,0.02,0.03,0.04,0.03c0,0.01-0.01,0.01-0.01,0.02c0.02-0.02,0.04-0.04,0.05-0.05
			c-0.02-0.01-0.04-0.02-0.05-0.03C111.11,68.01,111.1,68.02,111.09,68.03z"/>
		<path class="st0" d="M110.89,68.05c0.02,0.01,0.04,0.03,0.05,0.04c0-0.01,0-0.01,0-0.02c0.05,0.01,0.05,0.01,0.05-0.05
			c-0.03,0-0.06,0.01-0.09,0.01C110.89,68.04,110.89,68.05,110.89,68.05z"/>
		<path class="st0" d="M110.64,68.2c-0.02,0-0.04-0.01-0.06-0.01c0,0,0-0.01,0-0.01c0.07-0.01,0.06-0.02,0.11,0.01
			c0.02-0.01,0.04-0.01,0.06-0.02c-0.02-0.02-0.04-0.06-0.07-0.04c-0.03,0-0.02,0-0.05,0.02c-0.01,0-0.03,0-0.04,0
			c0,0,0-0.01,0-0.01c0.02-0.01,0.05-0.01,0.07-0.02c0-0.01,0.01-0.01,0.01-0.02c-0.02,0-0.04-0.01-0.06-0.01
			c-0.04,0.04-0.14,0.08-0.2,0.08c0,0.01,0,0.02,0,0.03c0.04-0.01,0.08-0.02,0.12-0.03c-0.02,0.01-0.04,0.03-0.05,0.04
			c0.01,0.03,0.02,0.06,0.03,0.09c0.01,0,0.03,0.01,0.04,0.01c0.04-0.02,0.07-0.04,0.11-0.05C110.64,68.24,110.64,68.22,110.64,68.2
			z M110.53,68.18c0-0.01,0.01-0.01,0.01-0.02c0.01,0,0.01,0,0.02,0C110.55,68.17,110.54,68.17,110.53,68.18z"/>
		<path class="st0" d="M110.75,68.13c0,0,0-0.01,0-0.01c-0.01,0-0.02-0.01-0.03-0.01C110.74,68.13,110.72,68.11,110.75,68.13z"/>
		<path class="st0" d="M111.17,68.14c0.01-0.01,0.01-0.01,0.02-0.02c-0.01,0-0.01,0-0.02,0C111.17,68.12,111.17,68.13,111.17,68.14z
			"/>
		<path class="st0" d="M110.9,68.17c0-0.01-0.01-0.02-0.01-0.03c-0.02,0-0.04-0.01-0.05-0.01c-0.01,0.01-0.03,0.02-0.04,0.03
			c0.01,0,0.02,0.01,0.03,0.01C110.85,68.17,110.87,68.17,110.9,68.17z"/>
		<path class="st0" d="M111.18,68.15c-0.01,0-0.02,0-0.03,0c0,0.01-0.01,0.03-0.01,0.04c0,0,0,0.01,0,0.01
			c0.02-0.01,0.04-0.01,0.05-0.02C111.19,68.17,111.18,68.16,111.18,68.15z"/>
		<path class="st0" d="M111.03,68.21c-0.04-0.01-0.08-0.02-0.13-0.03c0,0,0,0.01,0,0.01c0.02,0.03,0.02,0.03,0.06,0.04
			c-0.03,0.01-0.06,0.02-0.09,0.03c0,0.01-0.01,0.02-0.01,0.03c0.09-0.02,0.18-0.05,0.26-0.07c0,0,0-0.01,0-0.01
			c-0.03-0.04-0.05-0.04-0.09-0.05C111.03,68.18,111.03,68.19,111.03,68.21z"/>
		<path class="st0" d="M110.73,68.3c0.02,0,0.04-0.01,0.05-0.01c0.01,0,0.01-0.01,0.02-0.01c-0.02,0-0.04-0.01-0.05-0.01
			C110.74,68.28,110.73,68.29,110.73,68.3z"/>
		<path class="st0" d="M110.71,68.31c-0.04,0-0.07-0.01-0.11-0.01c-0.01,0.01-0.01,0.02-0.02,0.03c0.01,0.01,0.03,0.01,0.04,0.02
			c-0.01,0.01-0.02,0.02-0.03,0.03c0.04,0.03,0.07,0.06,0.11,0.09c0.02,0,0.04,0,0.05,0c0,0,0.01-0.01,0.01-0.01
			C110.74,68.41,110.72,68.36,110.71,68.31z"/>
		<path class="st0" d="M111.13,68.3c0.01,0.04,0.01,0.04,0.02,0.06c0,0,0.01,0,0.01,0c0.01-0.01,0.02-0.01,0.03-0.02
			C111.17,68.29,111.19,68.3,111.13,68.3z"/>
		<path class="st0" d="M137.28,68.3c-0.01,0-0.01,0-0.02,0c0,0.01,0,0.01,0,0.02C137.26,68.31,137.27,68.3,137.28,68.3z"/>
		<path class="st0" d="M112.07,68.36c0,0.01,0.01,0.02,0.01,0.03c0.02,0,0.04,0,0.05,0c0.01-0.01,0.02-0.03,0.03-0.04
			c-0.02,0-0.05-0.01-0.07-0.01C112.08,68.35,112.07,68.35,112.07,68.36z"/>
		<path class="st0" d="M110.86,68.42c0.02,0,0.04,0,0.06,0c0-0.01,0-0.02,0-0.03c-0.01,0-0.03,0-0.04,0
			C110.88,68.4,110.87,68.41,110.86,68.42z"/>
		<path class="st0" d="M111.11,68.4c-0.01,0.02-0.02,0.04-0.03,0.06c0,0,0,0.01,0,0.01c0.03,0,0.06,0,0.09,0c0,0,0-0.01,0-0.01
			C111.15,68.43,111.14,68.42,111.11,68.4z"/>
		<path class="st0" d="M111.03,68.45c0,0,0-0.01,0-0.01c-0.01,0-0.03,0-0.04,0c0.01,0.01,0.01,0.02,0.02,0.03
			C111.02,68.47,111.03,68.46,111.03,68.45z"/>
		<path class="st0" d="M110.78,68.47c-0.01,0.03-0.01,0.06-0.02,0.08c0.04,0.01,0.08,0.01,0.12,0.02c0.01,0,0.01-0.01,0.02-0.01
			C110.88,68.5,110.87,68.48,110.78,68.47z"/>
		<path class="st0" d="M111.28,68.51c0,0.02-0.01,0.04-0.01,0.05c0.02,0,0.05-0.01,0.07-0.01c0-0.01,0.01-0.01,0.01-0.02
			C111.33,68.52,111.3,68.51,111.28,68.51z"/>
		<path class="st0" d="M111.32,68.58c0,0.01,0,0.03,0,0.04c0.05-0.02,0.03-0.03,0.07-0.04c-0.02-0.04,0-0.02-0.05-0.03
			C111.33,68.58,111.34,68.56,111.32,68.58z"/>
		<path class="st0" d="M111.12,68.69c-0.01-0.02-0.03-0.04-0.04-0.05c-0.01-0.01-0.07-0.03-0.14-0.03
			c-0.01,0.05,0.07,0.12,0.15,0.13C111.1,68.72,111.11,68.7,111.12,68.69z"/>
		<path class="st0" d="M111.95,68.62c-0.01,0-0.01,0.01-0.02,0.01c0,0.01-0.01,0.01-0.01,0.02c0.03,0.02,0.04,0.02,0.08,0.01
			c-0.01-0.01-0.01-0.03-0.02-0.04C111.97,68.62,111.96,68.62,111.95,68.62z"/>
		<path class="st0" d="M111.27,68.67c-0.04,0.03-0.05,0.02-0.06,0.09c-0.04-0.01-0.07-0.01-0.11-0.02c0,0.01-0.01,0.02-0.01,0.03
			c0,0.01,0.01,0.01,0.01,0.02c0.06,0.01,0.08,0,0.14-0.01c-0.04,0.03-0.05,0.01-0.06,0.06c0.14,0.01,0.13-0.06,0.22-0.09
			C111.38,68.69,111.31,68.67,111.27,68.67z"/>
		<path class="st0" d="M111.66,68.7c-0.01,0-0.03,0-0.04,0c0.02,0.02,0,0.01,0.04,0.02C111.66,68.71,111.66,68.7,111.66,68.7z"/>
		<path class="st0" d="M112.68,68.76c-0.01-0.01-0.03-0.02-0.04-0.03c-0.01,0-0.01,0.01-0.02,0.01c0,0.01-0.01,0.01-0.01,0.02
			c0,0,0,0.01,0,0.01c0.01,0,0.03,0.01,0.04,0.01c0.01,0,0.02-0.01,0.03-0.01C112.68,68.77,112.68,68.76,112.68,68.76z"/>
		<path class="st0" d="M111.97,68.85c0.01,0,0.02,0,0.03,0c0,0,0.01,0,0.01,0c0.01-0.01,0.01-0.02,0.02-0.03
			c-0.02,0-0.04-0.01-0.05-0.01C111.98,68.82,111.98,68.83,111.97,68.85z"/>
		<path class="st0" d="M112.39,68.88c0,0,0.01-0.01,0.01-0.01c0.01,0,0.01,0,0.02,0c-0.03-0.03-0.06-0.04-0.12-0.04
			C112.33,68.86,112.35,68.87,112.39,68.88z"/>
		<path class="st0" d="M111.51,68.91c-0.03-0.02-0.14-0.05-0.2-0.05c-0.01,0.01-0.03,0.02-0.04,0.03c0.05,0.05,0.04,0.03,0.03,0.11
			C111.38,68.99,111.47,68.96,111.51,68.91z"/>
		<path class="st0" d="M111.52,68.91c0.04-0.01,0.03-0.01,0.05-0.03c-0.01,0-0.03-0.01-0.04-0.01
			C111.53,68.88,111.52,68.89,111.52,68.91z"/>
		<path class="st0" d="M112.72,69.37c-0.03-0.04-0.41-0.04-0.46-0.05c0,0,0-0.01,0-0.01c0.03,0,0.06-0.01,0.08-0.01
			c0.01-0.01,0.02-0.02,0.03-0.03c-0.01-0.01-0.01-0.01-0.02-0.02c-0.15,0.05-0.22-0.02-0.36-0.05c-0.02-0.04-0.01-0.02,0-0.06
			c-0.05-0.02-0.11-0.04-0.15,0.01c-0.01,0-0.02,0-0.03,0c0.02-0.04,0.04-0.02,0-0.05c0.02-0.01,0.04-0.02,0.05-0.03
			c0,0,0-0.01,0-0.01c-0.02,0-0.04,0-0.05,0c0-0.02,0-0.04,0-0.05c0.06,0,0.06-0.01,0.08-0.04c-0.04-0.04-0.12-0.05-0.2-0.04
			c0,0.05,0.01,0.04,0.05,0.06c-0.01,0.04,0,0.02-0.02,0.04c-0.06,0.04-0.15-0.04-0.24-0.05c0,0.01-0.01,0.03-0.01,0.04
			c0.33,0.07,0.55,0.41,0.94,0.38c0,0,0,0.01,0,0.01c-0.04,0.01-0.03,0.01-0.05,0.03C112.47,69.54,112.86,69.54,112.72,69.37z
			 M111.73,69.06c0.01,0,0.03,0.01,0.04,0.01C111.73,69.06,111.76,69.08,111.73,69.06z"/>
		<path class="st0" d="M111.61,68.98c0,0,0-0.01,0-0.01c-0.02-0.02-0.01-0.01-0.05-0.02C111.58,68.98,111.57,68.97,111.61,68.98z"/>
		<path class="st0" d="M112.01,69c0.02,0.05,0.01,0.04,0.06,0.05c0.01-0.01,0.01-0.01,0.02-0.02c0-0.01,0.01-0.02,0.01-0.03
			c-0.02,0-0.05-0.01-0.07-0.01C112.03,69,112.02,69,112.01,69z"/>
		<path class="st0" d="M112.25,69.04c0.01,0,0.02,0.01,0.03,0.01c0.01,0,0.01-0.01,0.02-0.01c-0.01-0.01-0.03-0.01-0.04-0.02
			C112.25,69.02,112.25,69.03,112.25,69.04z"/>
		<path class="st0" d="M112.24,69.05c-0.02,0-0.04-0.01-0.06-0.01c-0.02,0.01-0.04,0.02-0.05,0.03c-0.01,0.01-0.02,0.01-0.03,0.02
			c0,0.01,0,0.02,0,0.03c0.04,0.04,0.02,0.05,0.09,0.05c-0.02,0.01-0.04,0.02-0.06,0.03c0,0.01-0.01,0.01-0.01,0.02
			c0.06-0.01,0.07-0.01,0.15-0.01c0-0.03,0.06-0.04,0.11-0.08c-0.01-0.01-0.01-0.01-0.02-0.02c-0.06,0.03-0.05,0.02-0.13,0.01
			c0,0,0,0.01,0,0.01c0.01,0,0.02,0.01,0.03,0.01c-0.02,0.02-0.01,0.02-0.05,0.03c0.01-0.04,0-0.04,0.03-0.07
			c-0.01,0-0.03-0.01-0.04-0.01c0.02-0.01,0.04-0.02,0.05-0.03C112.24,69.05,112.24,69.05,112.24,69.05z"/>
		<path class="st0" d="M112.38,69.09c0.02,0,0.04,0,0.05,0c0-0.01,0-0.02,0-0.03c-0.01,0-0.03,0-0.04,0
			C112.39,69.07,112.39,69.08,112.38,69.09z"/>
		<path class="st0" d="M112.08,69.11c-0.02,0-0.04,0-0.05,0c0,0.01-0.01,0.01-0.01,0.02c0,0.01,0.01,0.01,0.01,0.02
			c0.01,0,0.03,0,0.04,0C112.07,69.14,112.07,69.12,112.08,69.11z"/>
		<path class="st0" d="M112.53,69.14c-0.02-0.01-0.04-0.02-0.05-0.03c-0.02,0.03-0.02,0.02-0.03,0.06c0.02,0,0.04,0.01,0.06,0.01
			C112.52,69.17,112.52,69.15,112.53,69.14z"/>
		<path class="st0" d="M112.11,69.2c0-0.01,0-0.02,0-0.03c-0.02,0-0.04,0-0.06,0c0,0.01,0,0.02,0,0.03c0,0,0.01,0,0.01,0
			C112.07,69.2,112.09,69.2,112.11,69.2z"/>
		<path class="st0" d="M112.4,69.25c0.05,0.01,0.04,0,0.04,0.03c0.02,0,0.04,0,0.06,0c0-0.01,0.01-0.01,0.01-0.02
			c0-0.02-0.01-0.04-0.01-0.05c-0.02,0-0.04-0.01-0.05-0.01c-0.01,0.01-0.03,0.01-0.04,0.02C112.41,69.22,112.41,69.24,112.4,69.25z
			"/>
		<path class="st0" d="M113.04,69.31c-0.01,0.01-0.01,0.01-0.02,0.02c0.01,0.01,0.03,0.01,0.04,0.02c0.01-0.01,0.01-0.01,0.02-0.02
			C113.07,69.32,113.05,69.32,113.04,69.31z"/>
		<path class="st0" d="M113.15,69.37c0,0.01,0,0.02,0,0.03c0.02,0,0.04,0,0.05,0C113.19,69.37,113.21,69.38,113.15,69.37z"/>
		<path class="st0" d="M112.78,69.39c0,0.01-0.01,0.01-0.01,0.02c0.01,0,0.01,0.01,0.02,0.01c0,0,0.01,0,0.01,0
			C112.79,69.39,112.81,69.41,112.78,69.39z"/>
		<path class="st0" d="M113.22,69.56c-0.01-0.01-0.02-0.02-0.03-0.03c-0.01,0.01-0.03,0.02-0.04,0.03c0.02,0.04,0,0.02,0.05,0.03
			c-0.09,0.05-0.27-0.03-0.28-0.07c-0.01-0.01-0.03-0.02,0-0.03c-0.01-0.05,0-0.03-0.03-0.05c-0.07,0.02-0.14,0.05-0.21,0.07
			c0,0,0,0.01,0,0.01c0.05,0.06,0.23,0.1,0.31,0.13c0.01,0.03,0.01,0.06,0.02,0.09c0.01,0,0.01,0.01,0.02,0.01
			c0.08,0,0.09-0.03,0.12-0.07c0.13,0.02,0.25,0.06,0.36,0.09c0.03-0.01,0.06-0.01,0.09-0.02c0.01-0.01,0.01-0.02,0.02-0.03
			c-0.13-0.06-0.22-0.13-0.4-0.14C113.21,69.58,113.21,69.57,113.22,69.56z"/>
		<path class="st0" d="M113.53,69.58c-0.02,0-0.04-0.01-0.05-0.01c0.01,0.01,0.01,0.03,0.02,0.04c0,0,0.01,0,0.01,0
			C113.52,69.6,113.53,69.59,113.53,69.58z"/>
		<path class="st0" d="M129.68,70.27c0.01-0.01,0.01-0.01,0.02-0.02c-0.01,0-0.01,0-0.02,0C129.68,70.26,129.68,70.26,129.68,70.27z
			"/>
		<path class="st0" d="M142.71,72.39c-0.04,0-0.07-0.01-0.11-0.01c-0.13,0.12-0.15,0.35-0.2,0.54c-0.08,0.29-0.27,0.83-0.13,1.21
			c0.07,0.02,0.82,0.03,0.85,0.01c0.02-0.01,0.04-0.02,0.05-0.03c0-0.01,0-0.03,0-0.04c-0.17-0.11-0.42-0.15-0.72-0.15
			c-0.12-0.27,0.2-1.13,0.35-1.42C142.78,72.45,142.76,72.41,142.71,72.39z"/>
		<path class="st0" d="M144.59,73.52c0,0.01,0,0.02,0,0.03c0.01,0,0.02,0,0.03,0C144.6,73.51,144.62,73.54,144.59,73.52z"/>
		<path class="st0" d="M143.8,74.56c0.41,0.24,0.76-0.32,0.72-0.66c-0.07-0.05-0.08-0.08-0.19-0.09c-0.01-0.05-0.02-0.09-0.03-0.14
			c-0.06-0.08-0.14-0.12-0.3-0.12c-0.14,0.07-0.3,0.11-0.4,0.22C143.39,74,143.58,74.44,143.8,74.56z M144.08,73.78
			c0.06,0.02,0.13,0.05,0.19,0.07c0.01,0.06,0.03,0.07,0.06,0.12c-0.01,0.1-0.17,0.41-0.24,0.44c-0.05,0.04-0.11,0.03-0.18,0.02
			C143.62,74.12,143.72,73.95,144.08,73.78z"/>
		<path class="st0" d="M146.09,73.59c0,0.02-0.01,0.04-0.01,0.05c0.01,0,0.03,0.01,0.04,0.01
			C146.12,73.61,146.12,73.61,146.09,73.59z"/>
		<path class="st0" d="M145.93,74.84c-0.01,0.05,0.03,0.06,0.05,0.08c0.05,0.06,0.08,0.16,0.18,0.2c0.28,0.12,0.61-0.11,0.63-0.28
			c0.12,0.12,0.29,0.61,0.64,0.54c0.01,0,0.01-0.01,0.02-0.01c0-0.01,0-0.01,0-0.02c-0.04-0.06-0.13-0.09-0.17-0.13
			c-0.17-0.16-0.33-0.53-0.28-0.77c0.02-0.12,0.2-0.47,0.17-0.58c-0.01-0.04-0.03-0.05-0.06-0.07c-0.03-0.03-0.07-0.03-0.11-0.03
			c-0.39,0.32-0.08,1.2-0.71,1.2c-0.13-0.08-0.23-0.29-0.14-0.45c0.03-0.05,0.08-0.04,0.09-0.09c0.02-0.02,0.02-0.03,0.01-0.06
			c-0.01-0.01-0.01-0.01-0.02-0.02c-0.09-0.07-0.29-0.12-0.42-0.06c-0.26,0.12-0.3,0.35-0.31,0.57
			C145.62,74.97,145.81,74.89,145.93,74.84z"/>
		<path class="st0" d="M145.24,75.08c0.03-0.02,0.02-0.01,0.03-0.05c-0.18-0.11-0.22-0.19-0.26-0.37c-0.08-0.33,0.31-0.57,0.53-0.35
			c0.03,0,0.06-0.01,0.08-0.01c0.03-0.11,0-0.21-0.05-0.3c-0.05-0.01-0.1-0.02-0.15-0.03c-0.08,0.01-0.16,0.03-0.24,0.04
			c-0.26,0.09-0.37,0.29-0.41,0.46C144.72,74.66,145,75.18,145.24,75.08z"/>
		<path class="st0" d="M144.27,74.91c0.01-0.01,0.01-0.01,0.02-0.02c-0.01,0-0.01,0-0.02,0C144.27,74.9,144.27,74.9,144.27,74.91z"
			/>
		<path class="st0" d="M143.36,76.53c0.1-0.34,0.29-0.63,0.49-0.94c0-0.04-0.01-0.07-0.01-0.11c-0.06-0.04-0.07-0.06-0.17-0.06
			c-0.05,0.04-0.1,0.08-0.15,0.13c-0.06,0.11-0.11,0.21-0.17,0.32c-0.04,0.04-0.54-0.01-0.63,0c-0.03-0.1,0.03-0.13,0.06-0.17
			c-0.03-0.02,0.02-0.08,0.04-0.11c0.19-0.21,0.22-0.25,0.56-0.24c0.04-0.05,0.05-0.09,0.04-0.19c-0.37-0.27-0.92,0.33-0.93,0.62
			c-0.12,0.06-0.26,0.01-0.35,0.11c0,0,0,0.01,0,0.01c0.06,0.06,0.16,0.1,0.25,0.13c0,0.07-0.01,0.11-0.04,0.16l0.02,0.53
			c0.03,0.01,0.05,0.04,0.08,0.02c0.02,0,0.04-0.01,0.05-0.01c0.01-0.15,0.01-0.3,0.02-0.45c0.05-0.06,0.06-0.09,0.06-0.19
			c0.01-0.01,0.01-0.01,0.02-0.02c0.19,0.02,0.39,0.06,0.61,0.05c-0.01,0.09-0.06,0.13-0.07,0.16c-0.09,0.21,0.01,0.47,0.14,0.61
			c0.04,0.05,0.1,0.12,0.18,0.09C143.55,76.93,143.32,76.66,143.36,76.53z"/>
		<path class="st0" d="M146.04,76.21c0.01,0,0.01,0,0.02,0c-0.01-0.03,0-0.01-0.02-0.03C146.04,76.19,146.04,76.2,146.04,76.21z"/>
		<path class="st0" d="M145.51,76.53c-0.2,0.21-0.29,0.56-0.6,0.62c0-0.01-0.01-0.03-0.01-0.04c-0.09-0.14,0.06-0.54-0.02-0.58
			c-0.16-0.12-0.42,0.32-0.52,0.41c-0.21-0.15,0.05-0.43-0.12-0.56c0.01-0.03,0.02-0.06,0.03-0.08c-0.04-0.02-0.05-0.05-0.06-0.08
			c-0.06-0.01-0.11-0.01-0.17-0.02c-0.3,0.15-0.57,0.34-0.37,0.68c0.12,0.03,0.37-0.02,0.37-0.02c0.11,0.05,0.11,0.25,0.24,0.33
			c0.04,0,0.08-0.01,0.12-0.01c0.1-0.04,0.13-0.09,0.2-0.16c0.01,0,0.02,0,0.03,0c0.02,0.16,0.06,0.24,0.13,0.34
			c0.07,0.12,0.28,0.03,0.38-0.03c0.26-0.17,0.45-0.5,0.51-0.72C145.62,76.56,145.59,76.54,145.51,76.53z M143.92,76.68
			c-0.02,0-0.05,0.01-0.07,0.01c0.01-0.17,0.1-0.17,0.19-0.24c0,0,0.01,0,0.01,0C144.09,76.55,143.96,76.61,143.92,76.68z"/>
		<path class="st0" d="M147.28,76.98c-0.01-0.01-0.01-0.01-0.02-0.02c-0.03,0-0.06,0-0.09,0c-0.17,0.2-0.21,0.51-0.44,0.63
			c-0.02-0.03-0.02-0.03-0.05-0.04c-0.03-0.13,0.05-0.34-0.01-0.42c-0.1-0.15-0.4-0.32-0.59-0.35c-0.13,0.06-0.3,0.04-0.39,0.14
			c-0.18,0.19-0.18,0.63,0.06,0.76c0.19,0.1,0.39-0.17,0.43-0.16c0.01-0.11,0.12-0.25,0.11-0.39c0.04-0.04,0.1-0.02,0.12,0.04
			c0,0.08-0.01,0.15-0.01,0.23c0.08,0.15,0.07,0.31,0.26,0.39C146.99,77.94,147.29,77.21,147.28,76.98z M145.86,77.46
			c-0.04,0.02-0.04,0.02-0.06-0.03c-0.15-0.11,0.08-0.32,0.13-0.37c0.02,0,0.05,0,0.07,0c0.01,0.01,0.01,0.03,0.02,0.04
			C146.1,77.24,145.96,77.45,145.86,77.46z"/>
		<path class="st0" d="M143.88,77.05c-0.01,0.01-0.01,0.01-0.02,0.02c0,0.01,0.01,0.02,0.01,0.03c0,0.01,0,0.01,0,0.02
			c0.03,0,0.06-0.01,0.09-0.01c0-0.01,0.01-0.03,0.01-0.04c-0.02-0.01-0.04-0.02-0.05-0.03C143.91,77.04,143.89,77.05,143.88,77.05z
			"/>
		<path class="st0" d="M148.14,77.2c-0.14,0.09-0.43,0.1-0.52,0.25c-0.06-0.04-0.03-0.13-0.11-0.17c-0.04-0.02-0.12-0.01-0.15,0.01
			c-0.04,0.02-0.16,0.39-0.17,0.54c0.04,0.02,0.08,0.05,0.12,0.07c0.19-0.01,0.41-0.3,0.59-0.4c0.11-0.05,0.23-0.09,0.34-0.14
			c0.11-0.02,0.14,0.03,0.23-0.01c0-0.01,0-0.02,0-0.03C148.39,77.24,148.33,77.19,148.14,77.2z"/>
	</g>
</g>
</svg>
