<?xml version="1.0" encoding="utf-8"?>
<!-- Generator: Adobe Illustrator 26.0.2, SVG Export Plug-In . SVG Version: 6.00 Build 0)  -->
<svg version="1.1" id="Layer_1" xmlns="http://www.w3.org/2000/svg" xmlns:xlink="http://www.w3.org/1999/xlink" x="0px" y="0px"
	 viewBox="0 0 2721.24 1533.72" style="enable-background:new 0 0 2721.24 1533.72;" xml:space="preserve">
<style type="text/css">
	.st0{fill-rule:evenodd;clip-rule:evenodd;fill:#EB5F65;}
</style>
<g>
	<path class="st0" d="M1344.96,709.44c0.86,3.05,2.88,12.79,4.68,14.16c2.32,0.41,7.05-4.9,6.24-7.68
		c-1.08-2.16-2.16-4.32-3.24-6.48c0.36-0.08,0.72-0.16,1.08-0.24c0.04-0.08,0.08-0.16,0.12-0.24c-0.45-0.38-0.18-0.61-0.96-0.84
		c0.9-1.26,1.74-1.61,1.68-3.96c0.8,0,1.6,0,2.4,0c0.44,1.8,0.88,3.6,1.32,5.4c-0.75,0.87-3.83,2.59-2.28,4.44
		c0.39,0.7,1.11,0.8,2.16,0.84c3.17,0.13,4.32-0.82,5.64-2.76c1.39-2.04-1.03-11.43-1.2-11.76c0.75-0.89,3.79-3.29,1.32-4.44
		c-0.16-0.08-0.32-0.16-0.48-0.24c-1.87-0.52-4.33,1.23-6.12,1.56c-1.68-0.04-3.36-0.08-5.04-0.12c-0.28,0.28-0.56,0.56-0.84,0.84
		c-0.27,1.61,0.63,2.31,0.84,3.72c-2,0.43-4.71,0.71-6.84,0.12c-1.2-0.34-2.19-1.76-3.6-1.32c-4.61,1.45-1.5,7.14,0.48,9.12
		C1343.47,709.43,1344.03,709.52,1344.96,709.44z"/>
	<path class="st0" d="M1368.6,706.44c-1.04,2.49-0.99,7.24-2.28,9.6c0,0.08,0,0.16,0,0.24c-1.6-0.17-1.81-1.09-3.36-1.2
		c-4.85,4.24,3.46,12.47,7.56,10.08c2.31-1.11,1.51-6.59,2.4-9.12c0.78-2.24,4.89-10.46,3.48-12.48c-0.63-0.9-2.79-1.08-3.72-1.68
		c-1.2-0.78-2.5-1.63-4.44-1.68c-1.14,0.65-3.14,2.63-1.92,4.68C1366.81,705.88,1367.87,705.73,1368.6,706.44z"/>
	<path class="st0" d="M1374.6,713.88c-0.95,2.59,2.33,6.69,3.84,7.2c1.09,0.37,2.49-0.12,3.36-0.48c2.49-1.03,4.14-3.73,4.68-6.72
		c0.48-2.65-1.94-4.32,0.12-5.64c1.58,0.69,2.27,1.87,3.84,2.52c1.86-0.08,2.65-1.77,2.28-3.96c-0.39-2.29-3.26-5.43-6.24-5.4
		c-3.93,1.99-7.15,0.49-7.2,6.72c-0.01,1.36-0.38,2.46,0,3.6C1377.13,712.61,1375.69,710.91,1374.6,713.88z"/>
	<path class="st0" d="M1312.2,716.16c0,0.12,0,0.24,0,0.36c0.2-0.04,0.4-0.08,0.6-0.12c0.76,0.84,6.49,7.12,8.4,7.8
		c4.01,1.42,7.82-1.58,7.44-5.4c0.38-0.3,0.55-0.38,1.32-0.36c1.86,1.42,3.59,3.95,4.68,6.12c0.32,0.84,0.64,1.68,0.96,2.52
		c0.32,0.42,0.84,0.43,1.56,0.48c0.28-0.32,0.56-0.64,0.84-0.96c0.34-0.93-0.3-1.54-0.36-2.64c0.36-0.28,0.72-0.56,1.08-0.84
		c0.2,0,0.4,0,0.6,0c0.96,1.15,1.82,2.72,3.48,2.16c4.38-1.86-0.34-6.9-3.12-7.68c0.52-0.76,1.04-1.52,1.56-2.28
		c1.32-2.87-1.52-5.43-3.24-6c-0.8,0.04-1.6,0.08-2.4,0.12c-1.09-0.15-2.14-1.02-3.72-0.72c-0.88,0.2-1.76,0.4-2.64,0.6
		c-2.59-0.72-3.55-4.1-6.24-4.32c-1.16,0.28-2.32,0.56-3.48,0.84c-2.15,1.11-2.78,2.84-4.56,4.08c-1.02,0.72-2.66,1.03-3.36,2.04
		c-0.08,0.68-0.16,1.36-0.24,2.04c0.4,0.48,0.8,0.96,1.2,1.44C1312.44,715.68,1312.32,715.92,1312.2,716.16z"/>
	<path class="st0" d="M1311.48,738.24c3.28,1.29,3.72-1.87,4.68-3.36c0.91-1.41,2.79-1.34,3.36-3.36
		c1.06-3.75-4.57-11.11-7.32-11.16c-1.94,1.33-2.43,1.92-3.48,4.2c-0.68,0.28-1.36,0.56-2.04,0.84c-1.19,0.82-2.58,3.03-3,4.56
		C1303.19,731.75,1310.2,737.63,1311.48,738.24z"/>
	<path class="st0" d="M1311.6,744.24c-0.56-0.6-1.12-1.2-1.68-1.8c-1.06-1.8-1.73-3.71-3.24-5.04c-0.95-0.84-2.01-0.09-3.36-0.72
		c-1.75-0.81-1.69-3.33-4.44-3.48c-2.29,1.4-4.8,3.55-4.8,7.08c1.34,1.47,3.44,2.26,4.8,3.72c2.38,2.56,4.91,12.21,10.32,8.04
		C1310.75,750.84,1312.83,746.98,1311.6,744.24z"/>
	<path class="st0" d="M1402.8,754.56c0.34,1.7,1.84,2.58,2.64,3.84c0.44,1.4,0.88,2.8,1.32,4.2c0.28,0.16,0.56,0.32,0.84,0.48
		c1.66-0.09,1.4-0.85,2.4-1.32c2.12-0.99,4.15-1.25,6.12-2.28c1.3-0.68,1.94-1.93,3.48-2.52c1.65-2.76-0.75-5.34-1.92-7.08
		c-0.76-1.14-0.73-2.61-1.44-3.96c-1.45-2.77-4.94-4.41-7.32-6.24c-1.28-0.98-1.85-2.58-4.08-2.64c-0.2,0.12-0.4,0.24-0.6,0.36
		c-1.36,2.29,0.76,3.63,0.36,6c-0.16,1.04-0.32,2.08-0.48,3.12c0.08,0.92,0.16,1.84,0.24,2.76
		C1403.94,750.45,1402.43,752.71,1402.8,754.56z"/>
	<path class="st0" d="M1388.88,780.12c0-0.08,0-0.16,0-0.24c-0.28-0.16-0.56-0.32-0.84-0.48c-1.69,1.31-2.16,4.21-3.48,5.88
		c-2.46,3.11-6.66,4.66-9.12,7.8c-2.96,3.79-4.45,8.92-6.36,13.68c-0.61,1.52-2.46,2.22-3.24,3.84c0.04,0.28,0.08,0.56,0.12,0.84
		c1.42,0.64,5.9-2.8,6.48-3.84c0.57-1.03,0-2.03,0.36-3c0.72-1.16,1.44-2.32,2.16-3.48c0.96-1.89,1.31-4.04,2.52-5.64
		C1380.17,791.9,1390.69,787.03,1388.88,780.12z"/>
	<path class="st0" d="M1110.96,897.96c0.2,0.56,0.36,0.69,0.84,0.96c1.23-0.02,1.29-0.68,2.04-0.96c1.44,0.08,2.88,0.16,4.32,0.24
		c3.24,0.6,6.07-0.27,7.32-1.08c0.88-3.55-3.25-5.99-4.8-8.16c2.88-2,5.76-4,8.64-6c8.67-6.19,18.38-11.27,27.6-16.92
		c7.76-4.76,15.71-9.66,23.64-14.4c4.96-2.72,9.92-5.44,14.88-8.16c13.72-8.38,27.66-16.93,41.88-24.72
		c10.16-5.56,19.5-12.09,29.16-18c1.8-1.1,10.23-5.27,10.92-6.48c0.26-0.58,0.01-0.95-0.24-1.32c-0.28,0-0.56,0-0.84,0
		c-2.92,3.23-8.14,5.21-11.88,7.56c-6.87,4.33-13.13,9.06-20.4,13.2c-15.83,9.02-32.06,18.52-47.52,27.96
		c-12.43,7.58-25.54,14.09-37.8,21.6c-9.5,5.82-19.42,11.41-28.92,17.4c-2.37,1.49-7.5,6.55-10.44,6.6
		c-2.08-1.87-2.93-4.38-5.16-5.88c-3.26,0.23-11.24,9.3-12.84,11.88c-0.12,0.64-0.24,1.28-0.36,1.92c-0.61,1.32-2.28,1.39-2.64,3.24
		C1099.23,899.9,1107.65,898,1110.96,897.96z"/>
	<path class="st0" d="M1541.64,1014c-0.16-1.6-0.32-3.2-0.48-4.8c0.35-1.63,0.55-3.41-0.12-5.4c-0.11-0.29-0.52-0.63-0.96-0.84
		c-2.72-1.07-7.56,5.45-10.8,3.84c-2.18-1.09-4.01-4.13-5.52-6.24c-2.75-3.85-5.59-7.33-8.64-11.04c-1.72-2.1-2.93-4.54-4.8-6.48
		c-6.79-7.06-12.49-15.32-18.48-23.16c-5.47-7.16-11.81-13.92-16.8-21.48c-6.99-10.58-11.69-22.84-19.08-33
		c-7.39-10.16-17.4-17.72-25.08-27.6c-2.72-3.52-5.44-7.04-8.16-10.56c-2.2-2.44-4.4-4.88-6.6-7.32c-2.08-3.64-4.16-7.28-6.24-10.92
		c-2.16-3.03-4.97-5.43-7.2-8.28c-3.48-4.52-6.96-9.04-10.44-13.56c-3.04-3.77-7.36-6.42-10.56-10.08c0.17-0.75,0.62-1.53,0.12-2.28
		c-0.3-0.47-0.54-0.59-1.32-0.6c-1.03,0.64-1.39,0.76-2.04,1.8c0.19,3.96,8.5,8.27,11.04,10.8c3.12,3.1,5.56,6.81,8.28,10.32
		c3.44,3.96,6.88,7.92,10.32,11.88c1.44,2.48,2.88,4.96,4.32,7.44c3.11,5.14,6.59,8.39,10.08,12.84
		c5.26,6.71,10.83,13.07,16.08,19.68c1.44,1.32,2.88,2.64,4.32,3.96c4.19,4.15,8.45,8.42,11.88,13.32
		c6.92,9.89,11.72,21.31,18.24,31.68c3.45,5.48,7.94,10.13,11.76,15.24c8.14,10.9,16.91,21.4,25.68,31.68
		c3.54,4.15,6.46,9.11,9.84,13.08c0.76,0.89,2.02,2.02,2.52,2.76c1.5,2.23,3.87,6.23,6,7.44c-0.43,1.35-3.46,3.26-4.44,4.8
		c0.2,0.44,0.4,0.88,0.6,1.32c0.52-0.08,1.04-0.16,1.56-0.24c2.33,1.79,6.15,3.3,9,4.44c1.04-0.41,5.8,0.38,6.6,0.6
		c0.33-0.34,0.54-0.54,0.84-0.6c0.43-1.19-0.61-2.85-1.08-3.96C1541.8,1014.32,1541.72,1014.16,1541.64,1014z"/>
	<path class="st0" d="M1305.36,833.76c1.2-0.68,2.4-1.36,3.6-2.04c0.26-0.46-0.01-0.83-0.12-1.2c-0.24-0.08-0.48-0.16-0.72-0.24
		c-10.61,5.76-17.58,15.49-26.64,22.8c-7.41,5.98-13.55,13.42-20.76,19.56c-3.51,2.99-7.06,6.37-9.96,9.96
		c-3.65,4.52-8.32,8.29-12,12.84c-7.12,6.76-14.24,13.52-21.36,20.28c-9.15,9.11-18.64,18.35-26.76,28.44
		c-5.09,6.32-11.44,11.62-16.56,18c-5.68,7.07-13.24,12.76-18.72,20.04c-0.28,0-0.56,0-0.84,0c-1.05-0.74-1.71-2.59-2.76-3.12
		c-0.83-0.41-1.69,0.23-2.64-0.36c-0.74-0.46-0.56-1.59-1.44-2.04c-0.28-0.04-0.56-0.08-0.84-0.12c-2.3,2.24-2.34,6.93-3.36,10.44
		c-0.93,3.19-2.04,6.45-3.24,9.36c-0.57,1.39-2.4,4.38-1.92,5.52c0.2,0.2,0.4,0.4,0.6,0.6c2.1-0.07,6.25-4.81,8.16-6
		c3.67-2.29,8.19-2.59,13.08-3.96c1.58-0.44,2.14-0.87,4.08-1.08c0.34-0.48,0.57-0.81,0.36-1.56c-0.94-2.05-6.67-4.03-8.4-6.12
		c1.08-1.2,2.16-2.4,3.24-3.6c3.5-4.4,7.8-8.05,11.28-12.36c6.87-8.51,14.98-15.96,22.2-24.12c14.16-16,29.96-30.26,45-45.36
		c10.45-10.49,19.98-21.97,31.08-31.8c10.12-9.28,20.24-18.56,30.36-27.84C1301.36,837.04,1303.36,835.4,1305.36,833.76z
		 M1141.32,997.56c0.16,0.08,0.32,0.16,0.48,0.24C1141.36,997.68,1141.56,997.81,1141.32,997.56z M1148.04,983.52
		c0.04,0.04,0.08,0.08,0.12,0.12c-0.04,0.12-0.08,0.24-0.12,0.36C1147.81,983.62,1147.92,983.97,1148.04,983.52z M1148.28,986.64
		c0.04,0,0.08,0,0.12,0c-0.24,0.21-0.02,0.26-0.36,0.12C1148.12,986.72,1148.2,986.68,1148.28,986.64z M1148.76,993.36
		c-0.2,0-0.4,0-0.6,0c0-0.04,0-0.08,0-0.12c0.24-0.32,0.48-0.64,0.72-0.96c0.04,0.32,0.08,0.64,0.12,0.96
		C1148.92,993.28,1148.84,993.32,1148.76,993.36z M1151.88,988.44c-0.36,0.08-0.72,0.16-1.08,0.24c0.08,0.12,0.16,0.24,0.24,0.36
		c-0.39-0.26-0.33-0.21-0.36-0.84c0.54,0.35,0.54,0.28,1.2,0.12C1151.88,988.36,1151.88,988.4,1151.88,988.44z M1152,982.56
		c0.38,0.19,0.38,0.3,0.6,0.6c0,0.04,0,0.08,0,0.12C1151.9,983.11,1151.98,983.13,1152,982.56z M1152.12,988.32
		c0.12-0.2,0.24-0.4,0.36-0.6c0.12,0,0.24,0,0.36,0C1152.64,988.12,1152.48,988.12,1152.12,988.32z M1153.2,984.12
		c-0.12-0.08-0.24-0.16-0.36-0.24C1153.2,984.04,1152.98,983.88,1153.2,984.12z M1152.96,987.72c0.16,0.04,0.32,0.08,0.48,0.12
		C1153.11,987.94,1153.23,987.9,1152.96,987.72z M1153.92,986.28c-0.16-0.04-0.32-0.08-0.48-0.12c0.12-0.58,0.2-0.14,0.48-0.48
		c0.16,0.04,0.32,0.08,0.48,0.12C1154.24,985.96,1154.08,986.12,1153.92,986.28z M1159.92,977.76c0.04-0.08,0.08-0.16,0.12-0.24
		c0.08,0,0.16,0,0.24,0C1160.06,977.76,1160.28,977.61,1159.92,977.76z"/>
	<path class="st0" d="M1335.6,998.52c1.16-6.44,2.32-12.88,3.48-19.32c0.6-4.64,1.2-9.28,1.8-13.92
		c5.71-24.98,7.44-52.86,7.44-82.56c0-2.64,0-5.28,0-7.92c0.2-2.24,0.4-4.48,0.6-6.72c-0.56-5.88-1.12-11.76-1.68-17.64
		c-0.8-5.33,0.46-10.36-0.96-14.88c-0.4-0.29-0.39-0.41-1.08-0.48c-0.16,0.32-0.32,0.64-0.48,0.96c1.21,3.74,0.21,8.39,0.96,13.08
		c0.6,6.2,1.2,12.4,1.8,18.6c-0.2,4.04-0.4,8.08-0.6,12.12c0.04,2.04,0.08,4.08,0.12,6.12c0.59,3.87,0.61,9.51,0,13.44
		c0,1.32,0,2.64,0,3.96c-0.36,4.48-0.72,8.96-1.08,13.44c-0.86,5.52-0.05,10.67-0.96,15.84c-1.98,11.18-3.64,23.17-5.76,34.2
		c-0.48,3.8-0.96,7.6-1.44,11.4c-1.16,6.44-2.32,12.88-3.48,19.32c-0.4,4.48-0.8,8.96-1.2,13.44c-0.93,5.11-1.95,10.85-2.04,16.56
		c-1.52,0.83-4.91,1.41-7.08,0.96c-0.49-0.9-0.75-1.5-1.44-2.16c-1.94,0.23-2.42,1.41-3.24,2.76c-0.04,0.16-0.08,0.32-0.12,0.48
		c0.74,1.14,1.41,1.38,3,1.68c1.08,1.82,1.35,4.27,2.16,6.36c1.11,2.84,4.43,11.3,6.72,12.48c0.96,0.36,2.25-0.48,2.64-1.08
		c0.32-1.44,0.64-2.88,0.96-4.32c0.88-2.08,1.76-4.16,2.64-6.24c1-1.68,7.97-10.54,5.4-12.6c-1.5-1.2-7.9,1.24-9.96,1.32
		c-0.7-2.4,1.18-12.24,1.68-14.88C1334.8,1007.72,1335.2,1003.12,1335.6,998.52z"/>
	<path class="st0" d="M1017,948c-5.88-0.52-5.11-7.61-2.52-11.28c0.67-0.95,2.2-1.32,2.64-2.4c0.04-0.12,0.08-0.24,0.12-0.36
		c-1.12-1.14-0.92-0.4-2.4-1.08c-0.36-0.16-0.61-0.93-0.96-1.2c-2.42-0.45-4.26,0.82-6.36,1.56c-0.04,0-0.08,0-0.12,0
		c-0.92-4.86-0.57-10.5-1.32-15.12c-0.32-2,0.01-4.54-1.2-5.64c-0.21,0.15-0.31,0.16-0.48,0.36c-0.88,1.13,0.17,7.27,0.48,8.88
		c1.38,7.11,0.74,15.56,2.4,21.72c0.56,2.08,0.58,4.92,1.92,6.24c0.2,0,0.4,0,0.6,0c0.08-0.16,0.16-0.32,0.24-0.48
		c0.83-2.52-2.84-7.13-2.4-10.2c0.49-3.43,4.25-4.18,6.72-5.76c-2.77,3.55-6.02,8.56-2.64,14.04c1.69,2.75,7.61,4.41,9.24,0.36
		c0.04-0.32,0.08-0.64,0.12-0.96c-0.08-0.04-0.16-0.08-0.24-0.12C1019.33,946.72,1018.72,948.15,1017,948z"/>
	<path class="st0" d="M1020.48,933c0.52-0.04,1.04-0.08,1.56-0.12c-0.44-3.32-0.88-6.64-1.32-9.96c-0.57-3.39-0.53-6.86-1.32-9.6
		c-0.2-0.08-0.4-0.16-0.6-0.24c-0.32-0.1-0.38-0.01-0.72,0.12c-0.3,1.32,0.12,2.63,0.36,4.08
		C1019.33,922.73,1020.03,927.78,1020.48,933z"/>
	<path class="st0" d="M991.2,941.4c-0.73-2.13,4.8-8.3,3.72-13.08c-0.99-4.4-6.31,1.54-6.6,2.76c-1.19-1.66-0.95-7.75-1.44-10.08
		c-0.24-0.08-0.48-0.16-0.72-0.24c-0.48,0.91-0.09,12.61,0.36,14.28c-0.11,0.57-0.14,0.63,0.6,0.72c-0.16,0.08-0.32,0.16-0.48,0.24
		c-0.08,1.52-0.16,3.04-0.24,4.56c-0.47,2.87-1.01,6.56-0.36,9.48c0.24,0.04,0.48,0.08,0.72,0.12c0.68-0.4,1.36-0.8,2.04-1.2
		c0.2-1.52,0.4-3.04,0.6-4.56c0.24-0.04,0.48-0.08,0.72-0.12c1.85,1.33,5.42,5.3,7.92,5.4c0.08-0.12,0.16-0.24,0.24-0.36
		c0.04-0.24,0.08-0.48,0.12-0.72C996.4,945.89,992.7,944.63,991.2,941.4z M990.24,937.68c0,0.08,0,0.16,0,0.24
		c-0.08,0.04-0.16,0.08-0.24,0.12c-1.27-2.53,0.7-5.94,1.92-7.56c2.59,0.41-1.44,6.96-1.44,6.96
		C990.4,937.52,990.32,937.6,990.24,937.68z"/>
	<path class="st0" d="M1077.6,931.8c0.24-0.76,0.48-1.52,0.72-2.28c0.86-4.04-0.88-7.62-4.56-7.68c-2.77,2.08-4.63,3.68-5.52,7.68
		c-0.2,1.44-0.4,2.88-0.6,4.32c0,0.08,0,0.16,0,0.24c-1.95-0.49-6.24-6.16-7.68-7.8c0-0.16,0-0.32,0-0.48
		c2.1-1.11,4.84,0.4,5.76,1.68c1.06-0.07,1.18-0.48,1.44-1.32c-0.34-1-0.84-2.03-1.68-2.52c-2.28-1.33-8.04-0.48-9.12,1.08
		c-0.63,3.65,10.58,9.03,9.96,12.84c-0.38,2.32-3.61,4.78-5.52,6c-1.24,0.79-2.3,0.52-3,1.8c0.04,0.4,0.08,0.8,0.12,1.2
		c2.19,1.17,7.86-4.63,9.48-5.88c0.08,0.04,0.16,0.08,0.24,0.12c0.92,6.86,0.96,13.72,2.4,19.92c0.41,0.24,0.59,0.35,1.32,0.36
		c0.08-0.04,0.16-0.08,0.24-0.12c0.28-0.5,0.03-14.97-0.36-17.52c-0.04-1.52-0.08-3.04-0.12-4.56c1-0.88,2-1.76,3-2.64
		C1075.44,934.95,1076.78,933.57,1077.6,931.8z M1071,935.88c-0.3-1.44-0.1-3.12,0.12-4.56c0.18-1.21-0.44-1.64-0.6-2.28
		c-0.5-2.07,2.37-4.06,3.48-4.8c3.44,0.8,2.37,6.55,0.84,8.64c-1.12,1-2.24,2-3.36,3C1071.32,935.88,1071.16,935.88,1071,935.88z"/>
	<path class="st0" d="M1046.64,929.4c0-1.52,0-3.04,0-4.56c-0.24-0.61-0.7-0.68-1.56-0.72c-1,1.15-0.61,4.18-0.48,6.12
		c0.36,5.57,0.32,11.7,2.76,15.24c0.12,0,0.24,0,0.36,0c0.6-1.18-0.02-2.63-0.36-3.96C1046.49,938.12,1046.64,933.66,1046.64,929.4z
		"/>
	<path class="st0" d="M1098.72,939.72c1.12,0.67,1.96,1.62,3.36,2.04c3.21,0.97,9.59-0.1,11.76-1.44c0-0.12,0-0.24,0-0.36
		c-2.73-1.38-8.72,1.33-12-0.72c-0.36-0.44-0.72-0.88-1.08-1.32c0.73-3.18,6.06-6.77,5.4-10.8c-0.47-0.3-0.83-0.51-1.56-0.6
		c-4.03,2.57-6.89,4.54-6.48,11.28c-1,0.8-2,1.6-3,2.4c-0.52-0.04-1.04-0.08-1.56-0.12c-0.12-0.04-0.24-0.08-0.36-0.12
		c-0.91-2.97,0.57-7.72,1.32-10.2c0.36-0.12,0.72-0.24,1.08-0.36c0.75-0.43,0.39-1.06,0.72-1.92c0.52-1.35,1.68-3.33-1.2-3.36
		c-3.01,2.29-5.41,13.14-3.48,17.88C1094.46,943.92,1096.93,941.03,1098.72,939.72z M1103.28,929.64c0.16,0.04,0.32,0.08,0.48,0.12
		c-0.71,1.48-1.56,3.95-3.12,4.56c-0.04-0.04-0.08-0.08-0.12-0.12c-0.08,0-0.16,0-0.24,0
		C1100.59,932.08,1102.11,930.92,1103.28,929.64z"/>
	<path class="st0" d="M1000.68,931.92c0.16-1.12,0.32-2.24,0.48-3.36c0.6-0.84,1.2-1.68,1.8-2.52c-0.08-0.28-0.16-0.56-0.24-0.84
		c-0.25-0.35-0.32-0.38-0.84-0.48c-3.59,1.97-3.13,3.78-1.68,7.2C1000.36,931.92,1000.52,931.92,1000.68,931.92z"/>
	<path class="st0" d="M1078.08,942.24c2.93,1.15,3.94-3.88,5.52-4.8c1.32,1.52,1.24,5.62,4.56,4.32c0.8-0.31,1.27-0.62,1.56-1.44
		c0-0.12,0-0.24,0-0.36c-0.57-0.69-1.57,0.22-2.52-0.24c-3.51-1.78,0.56-9.82-0.36-11.64c-0.22-0.38-0.34-0.41-0.72-0.6
		c-0.32,0.08-0.64,0.16-0.96,0.24c-0.89,1.37-0.79,3.05-1.32,4.92c-0.75,2.62-2.46,5.03-4.2,6.72c-0.16,0-0.32,0-0.48,0
		c-0.8-3.31,0.89-7.16,2.28-9.24c0.58-0.86,1.62-1.27,1.92-2.4c-0.04-0.28-0.08-0.56-0.12-0.84c-0.25-0.54-0.55-0.71-1.08-0.96
		c-3.58,1.86-4.45,6.01-5.28,10.68C1076.53,938.59,1076.9,941.67,1078.08,942.24z"/>
	<path class="st0" d="M1043.04,927.96c-0.8,1.16-0.64,2.85-1.32,4.32c-0.34,0.51-1.02,0.53-1.44,0.96c-0.53,2.95,0,7.86,0.84,10.44
		c0.36,0.08,0.72,0.16,1.08,0.24c-0.2,0.04-0.4,0.08-0.6,0.12c0,0.08,0,0.16,0,0.24c0.48-0.08,0.96-0.16,1.44-0.24
		c0.39-0.69,0.68-14.28,0.36-15.96C1043.28,928.04,1043.16,928,1043.04,927.96z"/>
	<path class="st0" d="M1037.16,945.12c-0.72-0.45-0.71-1.58-1.2-2.28c-0.22-0.32-0.14-0.14-0.6-0.24c0.9-1.35,3.27-12.65,0.36-14.04
		c-4.06-1.62-3.35,8.62-2.52,11.16c-0.01,0.94-0.28,1.33-0.84,1.68c-0.3,0.24-0.71,0.26-1.32,0.24c-1.67-2.07-1.96-5.43-2.52-8.64
		c-0.16-1.32-0.32-2.64-0.48-3.96c-0.36-0.64-0.99-0.72-1.56-0.84c-0.16,0.12-0.32,0.24-0.48,0.36c-1.45,0.9-2.79,10.86-3.12,10.92
		c0.04,0.12,0.08,0.24,0.12,0.36c-0.9-0.82-0.84-5.22-0.84-6.72c-0.24,0-0.48,0-0.72,0c-0.32,0-0.64,0-0.96,0
		c0.31,3.29,0.5,13.84,1.8,15.72c0.24,0.2,0.48,0.4,0.72,0.6c0.4-0.2,0.8-0.4,1.2-0.6c0.12-3.24,0.24-6.48,0.36-9.72
		c0.44-2,0.88-4,1.32-6c0.2,0.04,0.4,0.08,0.6,0.12c0.64,2.84,1.28,5.68,1.92,8.52c0.47,1.07,1.68,1.98,2.04,2.64
		c1.6,0.22,2.14-0.3,3.24-0.72c1.39,1.26,1.41,2.9,3.36,3.72c0.88-0.08,1.04-0.34,1.56-0.72c0.1-0.39,0.41-0.92,0.12-1.32
		C1038.2,945.28,1037.68,945.2,1037.16,945.12z M1035.12,934.92c0-0.52,0-1.04,0-1.56c0.25,0.32,0.27,0.81,0.24,1.44
		c-0.04,0.04-0.08,0.08-0.12,0.12C1035.2,934.92,1035.16,934.92,1035.12,934.92z"/>
	<path class="st0" d="M1000.92,935.16c-0.24-0.04-0.48-0.08-0.72-0.12c-0.2,0.2-0.4,0.4-0.6,0.6c-0.34,2.37,1.52,6.39,1.92,9.36
		c0.32,0.16,0.64,0.32,0.96,0.48C1004.05,944.11,1002.5,935.91,1000.92,935.16z"/>
	<path class="st0" d="M1079.04,1009.56c1.12-1.12,2.24-2.24,3.36-3.36c2.36-1.78,4.99-3.67,8.4-4.32c1.28,0,2.56,0,3.84,0
		c0.08-0.24,0.16-0.48,0.24-0.72c-1.16-0.79-2.83-0.9-4.92-0.84c-3.23,1.46-12.41,4.91-13.08,8.04
		C1077.29,1008.96,1077.88,1010.14,1079.04,1009.56z"/>
	<path class="st0" d="M1553.28,1029.24c-0.24-5.56-0.48-11.12-0.72-16.68c-0.01-3.03-0.29-7.2,2.04-7.2
		c0.18-0.39,0.21-0.98,0.24-1.32c-0.48-0.4-0.96-0.8-1.44-1.2c-0.28-0.04-0.56-0.08-0.84-0.12c-3.64,3.56-0.58,20.31-0.36,26.76
		c-0.97,1.07-3.78,1.54-4.8,3.6c-0.04,0.4-0.08,0.8-0.12,1.2c0.16,0.12,0.32,0.24,0.48,0.36c1.77-0.26,2.93-1.67,4.44-2.4
		c0.12,7.77-0.33,16.44-0.36,23.64c0.82,0.86,1.06,0.62,2.04,0.12c0.54-2.28-0.55-5.68-0.48-8.52c0.13-5.36,0.42-10.31-0.24-15.48
		c1.22-0.97,3.49-1.32,5.04-1.92c0.04-0.16,0.08-0.32,0.12-0.48c-0.24-0.28-0.48-0.56-0.72-0.84
		C1556.16,1028.92,1554.72,1029.08,1553.28,1029.24z"/>
	<path class="st0" d="M1085.64,1008c-0.16,0.2-0.32,0.4-0.48,0.6c-0.75,1.93,0.89,4.98,1.08,7.08c0.4,6.96,0.8,13.92,1.2,20.88
		c0.38,0.24,0.64,0.47,1.2,0.24c0.12-0.04,0.24-0.08,0.36-0.12c0.6-2.52-0.29-6.23-0.72-9c-1.06-6.86,0.56-14.24-1.92-19.56
		C1086.12,1008.08,1085.88,1008.04,1085.64,1008z"/>
	<path class="st0" d="M1623.12,1011.12c-1.09,0.43-2.23,0.31-3.12,0.84c-5.29,3.19-2.34,10.2-0.48,14.88
		c0.6,0.17,0.84,0.19,1.56,0.12c0.12-0.2,0.24-0.4,0.36-0.6c1.15-2.88-4.36-6.91-1.08-11.28c1.48-1.97,4.58-1.65,6.84-1.08
		c1.22,0.31,3.28,0.66,3.6-0.6C1629.67,1011.93,1625.17,1011.65,1623.12,1011.12z"/>
	<path class="st0" d="M1180.92,1013.76c-0.4-0.2-0.8-0.4-1.2-0.6c-1.76,1.27-2.78,4.94-4.92,5.52c-0.86-0.79-1.41-3.18-2.88-2.88
		c-0.87,0-3.1,3.4-3.48,4.32c-0.04,2.28-0.08,4.56-0.12,6.84c0.24,0.2,0.48,0.4,0.72,0.6c0.28,0.04,0.56,0.08,0.84,0.12
		c0.24-0.24,0.48-0.48,0.72-0.72c0.39-2.4-0.67-6.59,1.2-7.8c1.43,0.99,1.17,2.8,1.08,4.8c0.2,0.2,0.4,0.4,0.6,0.6
		c0.63,0.12,1.01,0.04,1.56-0.12c0.4-1.24,0.8-2.48,1.2-3.72c0.8-1.36,1.6-2.72,2.4-4.08c0.93,0.48,3.44,7.84,4.32,9.24
		c0.16,0,0.32,0,0.48,0c0.08-0.04,0.16-0.08,0.24-0.12c0.45-2.72-1.36-5.77-2.04-8.04
		C1181.27,1016.47,1181.28,1014.84,1180.92,1013.76z"/>
	<path class="st0" d="M1613.64,1023.48c-1.77,2.49-4.48,2.57-8.52,2.4c1.39-1.9,8.44-5.82,5.76-9.96c-0.91-1.41-1.57-1.84-3.48-1.92
		c-2.78,2.39-6.49,6.41-5.28,11.76c-0.92,1.29-6.68,2.62-8.4,3.48c-0.12,0.04-0.24,0.08-0.36,0.12c-0.33,0.05-0.09,0.29-0.48,0
		c-0.15,0.11-0.77,0.95-1.2,0.36c-0.38-0.53,1.6-3.74,1.8-4.08c1.64-2.75,4.62-7.42,2.4-10.32c-3.77-0.08-9.32,2.08-8.16,6.12
		c0.2,0.12,0.4,0.24,0.6,0.36c2.24-1.04,3.08-3.38,6.24-3.72c-0.82,5.18-4.98,8.09-5.28,13.44c0.4,0.36,0.8,0.72,1.2,1.08
		c1.95,0.88,6.72-2.66,8.52-3.36c1.28-0.5,3.43-0.67,3.96-1.92c0.8,0.4,1.6,0.8,2.4,1.2c3.89,0.83,9.09-1.92,9.36-4.8
		C1614.27,1023.4,1614.31,1023.43,1613.64,1023.48z M1608.24,1016.64c0.28,0.2,0.56,0.4,0.84,0.6c0.04,1.58-2.72,5.52-4.56,5.88
		C1604.55,1019.86,1606.41,1018.13,1608.24,1016.64z"/>
	<path class="st0" d="M1584.72,1030.44c-1.03,0.43-1.83-0.03-2.4,0c-0.27,0.02-0.11,0.04-0.12,0.24c-0.65-0.42-1.11-0.48-1.56-1.2
		c1.21-1.7,9.23-13.66,2.16-13.44c-4.76,2.52-7.83,6.93-5.52,13.92c-0.96,0.99-3.24,2-4.68,0.96c-0.48-0.27-1.46-1.52-1.44-3.12
		c1.65-1.99,7.01-5.77,4.68-9.84c-0.78-1.37-1.69-1.74-3.72-1.68c-2.2,1.91-2.96,5.97-3.48,9.48c-1.21-0.55-2.85-1.47-2.16-3.24
		c-0.16,0-0.32,0-0.48,0c-1.11-1.35-0.81-3.54-2.28-4.56c-3.59,0.5-3.16,7.27-3.12,11.16c0.02,1.81-0.53,4.82,0.84,5.52
		c0.41,0.19,0.78,0.09,1.08-0.12c1.32-0.97-1.11-9.78,0.24-12.48c0.12-0.12,0.24-0.24,0.36-0.36c1.9,2.42,1.47,6.33,5.4,6.72
		c2.13,5.88,4.3,6.23,9.96,3.72c0.76-0.5,3.15,1.02,4.32,0.84c2.85-0.43,4.17-2.31,5.4-3.6c-0.12-0.24-0.24-0.48-0.36-0.72
		C1586.31,1028.85,1585.9,1029.95,1584.72,1030.44z M1573.2,1018.8c3.03,0.66-1.29,5.43-2.04,5.88
		C1571.23,1022.54,1572.09,1020.02,1573.2,1018.8z M1579.2,1027.92c-2.19-3.67,1.47-8.14,3.96-9.36c0.16,0.04,0.32,0.08,0.48,0.12
		c-0.4,1.36-0.8,2.72-1.2,4.08c-0.88,1.56-1.76,3.12-2.64,4.68C1579.6,1027.6,1579.4,1027.76,1579.2,1027.92z"/>
	<path class="st0" d="M1152.96,1026.48c-0.08-0.12-0.16-0.24-0.24-0.36c-2.78,0.28-4.07,2.19-6.84,0.72
		c-0.04-0.24-0.08-0.48-0.12-0.72c1.77-2.26,6.44-5.12,5.28-9.24c-0.4-0.24-0.8-0.48-1.2-0.72c-3.38,0.32-5.52,5.35-6.12,8.4
		c-3.81,2.13-5.14-3.49-6.84-5.16c-0.2-0.04-0.4-0.08-0.6-0.12c-0.12,0.04-0.24,0.08-0.36,0.12c-1.39,1.96-1.26,8.07,0,10.2
		c1.74,2.93,2.99-0.67,2.88-2.76c1.52,0.13,2.51,0.62,4.44,0.6c1.77,2.93,8.23,2.98,9.72-0.36
		C1152.96,1026.88,1152.96,1026.68,1152.96,1026.48z M1147.92,1020c0.08,0.08,0.16,0.16,0.24,0.24c0,0.04,0,0.08,0,0.12
		c-0.12-0.08-0.24-0.16-0.36-0.24C1147.84,1020.08,1147.88,1020.04,1147.92,1020z"/>
	<path class="st0" d="M1157.28,1019.88c0.46-0.27,1.41-0.14,1.68-0.6c0.27-0.46,0.06-1.02-0.12-1.32c-0.34-0.54-0.85-0.78-1.68-0.84
		c-2.52,1.46-5.74,4.8-4.44,8.76c2.52,1.64,4.87-0.88,6.12-2.64c2.61,0.29,5.51,2.12,6.96-0.84c0-0.2,0-0.4,0-0.6
		c-0.12-0.08-0.24-0.16-0.36-0.24c-0.99-0.42-1.67,0.74-3,0.36c-1.48-0.42-2.42-3.25-4.08-1.44c-0.78,0.85-1.58,1.89-2.28,2.76
		c-0.28,0-0.56,0-0.84,0c-0.04-0.08-0.08-0.16-0.12-0.24C1155.62,1021.91,1156.29,1020.47,1157.28,1019.88z"/>
	<path class="st0" d="M1129.2,1020.48c1.12-0.51,2.52,0.1,3.12-0.96c0.04-0.36,0.08-0.72,0.12-1.08c-0.59-0.54-0.88-0.79-1.8-1.08
		c-1.18,0.47-2.19,0.55-3.12,1.2c-1.68,1.17-7.18,7.84-5.28,11.04c2.58,4.33,11.56,0.06,11.76-3.72c-0.12-0.08-0.24-0.16-0.36-0.24
		c-1.94,1.05-6.69,6.56-9.48,2.52C1123.63,1025.07,1127.08,1021.45,1129.2,1020.48z"/>
	<path class="st0" d="M1104.84,1033.8c0.76,0.32,1.52,0.64,2.28,0.96c2.79,0.6,8.25-2.36,10.32-3.24c0.12-0.24,0.24-0.48,0.36-0.72
		c-0.12-0.12-0.24-0.24-0.36-0.36c-3.17-0.47-6.16,2.38-9.72,1.68c-0.08-0.04-0.16-0.08-0.24-0.12c1.35-2.21,6.35-6.38,5.28-9.84
		c-0.32-0.36-0.64-0.72-0.96-1.08c-4.99-1-7.99,6.03-7.56,10.8c-3.48,2.36-6.89,1.48-5.28-3.84c0.82-2.69,2.21-4.44,4.68-5.52
		c0-0.4,0-0.8,0-1.2c-0.28-0.28-0.56-0.56-0.84-0.84c-0.28-0.04-0.56-0.08-0.84-0.12c-3.14,1.97-4.51,4.94-5.28,9.24
		c0,1.2,0,2.4,0,3.6c-2.2,1-4.4,2-6.6,3c-3.56,2.03-6.53,5.12-9.72,7.56c-1.11,0.85-2.65,1.4-3.36,2.64c0,0.28,0,0.56,0,0.84
		c0.36,0.28,0.72,0.56,1.08,0.84c2.21-0.18,3.87-3.03,5.16-4.32c3.15-3.15,7.06-5.88,10.92-8.28
		C1097.18,1033.61,1100.86,1037.23,1104.84,1033.8z M1110.84,1023.6c-0.2,2.39-2.47,5.63-4.44,6.36c-0.08-0.04-0.16-0.08-0.24-0.12
		C1106.39,1027.18,1108.12,1023.76,1110.84,1023.6z"/>
	<path class="st0" d="M1144.44,1053.96c0.04-0.68,0.08-1.36,0.12-2.04c0.14-3.21,0.12-8.04-2.16-8.4c-0.35-0.26-0.53-0.13-1.08,0
		c-0.9,1.1-1.65,2.61-2.04,4.2c-0.08,0.04-0.16,0.08-0.24,0.12c-0.12,0-0.24,0-0.36,0c-0.18-3.87-0.1-8.5-1.44-11.4
		c-0.32-0.08-0.64-0.16-0.96-0.24c-0.2,0.2-0.4,0.4-0.6,0.6c-0.48,3.35,2.8,13.24,0.96,16.68c-0.68,1.27-5.9,5.68-7.8,3.24
		c-1.69-2.17,0.06-5.42,0.84-7.2c0.5-0.31,0.83-0.3,1.44-0.36c0.24-0.52,0.48-1.04,0.72-1.56c0.12-0.34,0.06-0.53-0.12-0.84
		c-0.24-0.5-0.47-0.61-0.96-0.84c-3.76,0.3-6.08,7.26-4.08,11.28c2.08,4.18,7.29,1.97,9.24-0.84c0.6,0.04,0.9,0.33,1.68,0.48
		c0.36-0.24,0.72-0.48,1.08-0.72c0.32-1.48,0.64-2.96,0.96-4.44c0.52-1.4,1.04-2.8,1.56-4.2c0.24-0.08,0.48-0.16,0.72-0.24
		c1.16,2.11-0.61,7.96,1.2,9.24c0.2,0.12,0.4,0.24,0.6,0.36c0.8-0.07,0.96-0.27,1.44-0.6c0.08-0.24,0.16-0.48,0.24-0.72
		C1145.28,1054.45,1144.69,1054.64,1144.44,1053.96z"/>
	<path class="st0" d="M1144.08,1039.68c-0.24,0.12-0.48,0.24-0.72,0.36c-0.08,0.2-0.16,0.4-0.24,0.6c0.1,1.52,1.13,1.82,2.4,2.16
		c0.24-0.36,0.48-0.72,0.72-1.08c-0.08-0.44-0.16-0.88-0.24-1.32C1145.42,1039.99,1145.11,1039.69,1144.08,1039.68z"/>
	<path class="st0" d="M1368.84,1060.92c0-0.16,0-0.32,0-0.48c0.72-0.28,1.56-0.39,2.64-0.36c0.36,0.4,0.72,0.8,1.08,1.2
		c0.12,0,0.24,0,0.36,0c0.24-0.2,0.48-0.4,0.72-0.6c0.58-4.74-6.64-4.1-7.92-0.84c-1.08,2.74,4.88,6.39,6.72,6.96
		c0.08,0.12,0.16,0.24,0.24,0.36c-2.86,0.9-6.15,2.81-7.44,5.28c-0.98,0.26-1.84,0.4-2.88,0.12c-2.22-3.26-2.87-9.42-2.76-14.76
		c1.2-1.22,3.08-1.7,4.32-2.88c-0.04-0.16-0.08-0.32-0.12-0.48c-0.61-1.12-2.75-1.02-4.32-0.96c-0.04-1.84,0.92-12.75-0.24-13.68
		c-3.04-0.41-1.51,11.67-1.44,15.36c-0.81,0.69-1.41,1.39-2.04,2.28c0.02,1.45,0.58,1.9,2.16,1.8c0.52,4.3,1.06,17.71,6.12,16.32
		c2.26-0.62,2.87-3.34,4.8-4.32c2.52-1.28,5.76-1.23,6.96-3.84C1375.6,1065.02,1370.42,1062.73,1368.84,1060.92z"/>
	<path class="st0" d="M1170.96,1052.64c-0.08,0-0.16,0-0.24,0c0.93-2.46,2.92-4.32,3.72-7.08c-0.13-0.57-0.02-0.39-0.48-0.6
		c0.88-1.54-0.86-2.67-3.12-2.52c-0.36,0.16-0.72,0.32-1.08,0.48c-0.79,1.05-0.81,1.72-1.56,3.12c-1.75,3.24-2.5,3.76,0.12,7.2
		c-0.86,1.19-3,2.32-4.92,1.68c-0.44-0.32-0.88-0.64-1.32-0.96c0.32-1.21-0.03-8.64-0.84-9.84c-1.42-2.1-4.39-1.3-5.28,0.84
		c-0.28,0.08-0.56,0.16-0.84,0.24c-0.48-0.55-1.48-2.03-2.16-0.6c-0.68,1.6,0.99,2.62,1.08,4.08c-0.2,1.24-0.4,2.48-0.6,3.72
		c-0.41,2.57,0.15,5.41,0.36,7.56c4.85,3.97,2.17-9.81,2.4-11.52c0.17-1.23,1.42-2.26,2.16-3c0.16,0,0.32,0,0.48,0
		c1.59,2.12,1.55,6.25,2.64,8.28c-0.16,0.08-0.32,0.16-0.48,0.24c0.11,1.09,0.43,1.58,0.84,2.28c-0.19,1.01,1.51,1.43,2.88,1.32
		c1.37-1.38,3.48-2.06,4.68-3.6c3.2,0.22,7.66,0.05,9.96-1.68c0.08,0,0.16,0,0.24,0c0-0.24,0-0.48,0-0.72
		C1177.32,1052.08,1173.12,1053.56,1170.96,1052.64z M1169.52,1052.16c-0.24-0.08-0.48-0.16-0.72-0.24
		c-0.33-0.88-0.87-2.5-0.84-3.84c0.16,0,0.32,0,0.48,0c0.04-0.4,0.08-0.8,0.12-1.2c0.61-0.9,1.61-1.45,2.28-2.16
		c0.08-0.04,0.16-0.08,0.24-0.12c-0.04-0.12-0.08-0.24-0.12-0.36c0.64,0.12,1.28,0.24,1.92,0.36c-0.59,0.87,0.39,0.78,0.24,1.92
		C1172.9,1048.14,1170.74,1051.36,1169.52,1052.16z"/>
	<path class="st0" d="M1106.28,1045.92c-1.9,1.19-3.46,3.53-3.6,6.36c-0.12,0.04-0.24,0.08-0.36,0.12c-1.14-0.82-0.88-2.88-2.16-3.6
		c-1.82-2.28-4,0.96-4.56,2.4c-1.47,3.78-2.74,12.46-0.72,16.68c0.08,0.08,0.16,0.16,0.24,0.24c0.4-0.04,0.8-0.08,1.2-0.12
		c0.69-1.37,0.01-3.27-0.24-4.8c-0.58-3.62,0.59-10.96,2.16-12.48c0.2,0,0.4,0,0.6,0c1.38,1.9,1.81,4.29,2.28,7.2
		c0,1.12,0,2.24,0,3.36c0.28,0.28,0.56,0.56,0.84,0.84c0.36-0.12,0.72-0.24,1.08-0.36c0.91-1.64,0.58-4.48,0.96-6.6
		c0.41-2.27,1.01-4.33,1.68-6.12c0.28-0.08,0.56-0.16,0.84-0.24c3.01,2.99-0.35,14.44,3.12,16.44c0.16,0.04,0.32,0.08,0.48,0.12
		c0.04,0,0.08,0,0.12,0c0.68-1.19-0.46-3.47-0.72-5.16C1108.73,1055.16,1111.45,1046.88,1106.28,1045.92z M1096.44,1067.52
		c-0.08,0.04-0.16,0.08-0.24,0.12c-0.04-0.12-0.08-0.24-0.12-0.36C1096.2,1067.36,1096.32,1067.44,1096.44,1067.52z"/>
	<path class="st0" d="M1147.44,1046.04c-0.16,0.2-0.32,0.4-0.48,0.6c-0.33,0.84,0.73,8.21,1.2,8.88c0.16,0.16,0.32,0.32,0.48,0.48
		c0.24-0.04,0.48-0.08,0.72-0.12c1.33-2.47-0.55-6.94-0.84-9.36C1148.13,1046.26,1148.07,1046.13,1147.44,1046.04z"/>
	<path class="st0" d="M1120.8,1057.32c-1.07-2.37,1.85-6.57,1.92-9.24c-0.44-0.46-0.63-0.71-1.44-0.84
		c-1.64,1.46-1.61,4.52-2.52,6.72c-0.69,1.66-1.94,2.92-2.88,4.32c-0.24,0-0.48,0-0.72,0c-0.81-3.45,2.15-6.5,3.12-8.64
		c0.22-0.52,0.02-0.99-0.12-1.44c-0.4-0.24-0.8-0.48-1.2-0.72c-3.17,0.34-5.61,12.54-2.28,14.16c2.06-0.04,2.65-1.75,3.48-3
		c0.52,0.36,1.04,0.72,1.56,1.08c1.7,0.69,3.91-0.55,4.2-1.8c0.04-0.12,0.08-0.24,0.12-0.36c-0.12-0.08-0.24-0.16-0.36-0.24
		C1122.72,1057.32,1121.76,1057.32,1120.8,1057.32z"/>
	<path class="st0" d="M1181.04,1051.08c-0.24,0.2-0.48,0.4-0.72,0.6c0,0.12,0,0.24,0,0.36c0.59,0.04,0.84,0.14,1.2-0.24
		c0.12-0.04,0.24-0.08,0.36-0.12c-0.04-0.16-0.08-0.32-0.12-0.48C1181.52,1051.16,1181.28,1051.12,1181.04,1051.08z"/>
	<path class="st0" d="M1340.04,1060.56c-1.13-2.06-1.78-4.91-4.8-5.04c-3.8,2.94-2.04,9.82-1.2,15c0.36,2.2-2.26,5.49,0.6,6.12
		c1.26,6.22,1.97,12.92,3.72,18.84c0.65,0.37,1.24,0.33,1.44-0.48c0.21-0.98-0.7-2.6-0.96-3.72c-0.28-1.84-0.56-3.68-0.84-5.52
		c-0.53-2.36-2.66-8.11-2.04-10.8c0.51-2.21,4.06-4.18,6.48-4.44c1.04,0.75,1.09,2.42,1.92,3.36c0.63-0.1,0.69-0.22,1.08-0.48
		c0.67-2.96-1.76-11.48-3.24-12.6C1341.52,1060.29,1341.04,1060.53,1340.04,1060.56z M1335.6,1069.68
		c-0.62-3.16-0.8-8.77,0.48-11.16c0.36,0.16,0.72,0.32,1.08,0.48c0.44,1.04,0.88,2.08,1.32,3.12c0.86,1.18,2.82,2.18,3.48,3.48
		c0.12,0.72,0.24,1.44,0.36,2.16C1340.57,1068.61,1337.61,1069.84,1335.6,1069.68z"/>
	<path class="st0" d="M1303.68,1067.52c-0.08-0.12-0.16-0.24-0.24-0.36c1.11-1.92,7-10.98-0.12-10.8c-3.82,1.98-6.9,4.01-8.16,8.52
		c0.25,0.57,0.23,0.71,0.96,0.84c2.07-2.33,3.98-6.91,8.16-6.96c0.08,0.04,0.16,0.08,0.24,0.12c0.96,3.4-1.94,8.43-4.92,8.76
		c-0.26-0.63-0.36-1.13-0.96-1.44c-0.43-0.16-0.65-0.01-1.08,0.12c-1.22,2.01-1.51,7.79-0.96,11.16c0.04,1.36,0.08,2.72,0.12,4.08
		c-0.32,0.28-0.64,0.56-0.96,0.84c-0.53,1.46,1.29,2.98,2.04,3.24c0.56-0.08,1.12-0.16,1.68-0.24
		C1308.29,1085.51,1314.39,1069.16,1303.68,1067.52z M1299,1083.12c-1.57-1.2-0.26-9.18-0.12-11.4c1.04-0.47,1.79-0.5,2.52-1.2
		C1314.22,1070.11,1303.82,1085.82,1299,1083.12z"/>
	<path class="st0" d="M1330.2,1073.76c-0.08-0.08-0.16-0.16-0.24-0.24c-0.04-0.08-0.08-0.16-0.12-0.24
		c-0.08-0.12-0.16-0.24-0.24-0.36c-1.05-3.01,5.37-8.96,0.24-11.88c-1.85,0.17-1.97,1.5-3.12,2.28c-0.24,0.04-0.48,0.08-0.72,0.12
		c-0.68-1.34-0.71-3.55-1.32-4.8c-0.28-0.04-0.56-0.08-0.84-0.12c-0.12,0.08-0.24,0.16-0.36,0.24c-0.94,4.06,1.51,8.02,0.72,12.96
		c-0.15,0.96,0.11,1.98-0.24,2.64c-0.58,1.01-2.69,1.12-3.96,0.72c-0.8-1.62,0.37-3.38,0.48-5.04c0.22-3.37-2.65-4.68-5.04-5.52
		c-2.64,1.65-7.19,13.95-2.16,15.72c1.15-0.66,1.38-1.14,1.92-2.4c0.76-0.2,1.52-0.4,2.28-0.6c3,2.24,3.61,0.35,6.72,0.12
		c0.4,1.28,0.8,2.56,1.2,3.84c0.58,0.36,0.84,0.48,1.68,0.36c0.16-0.24,0.32-0.48,0.48-0.72c-0.32-2.45-1.18-4.84-0.72-7.8
		c0.04,0,0.08,0,0.12,0c0.52,2.19,4.86,6.65,6.84,7.2C1337.41,1080.78,1330.3,1073.87,1330.2,1073.76z M1316.64,1074.6
		c-0.65,0.19-1.72,0.59-2.52,0.24c-0.16-0.16-0.32-0.32-0.48-0.48c0.68-2.38,0.92-4.42,1.8-6.36c0.6,0.2,1.2,0.4,1.8,0.6
		c0.08,0.16,0.16,0.32,0.24,0.48C1317.65,1069.73,1316.64,1072.71,1316.64,1074.6z M1327.32,1070.88c-0.08,0.04-0.16,0.08-0.24,0.12
		c0-0.08,0-0.16,0-0.24c-0.45-1.52,0.88-4.19,1.56-5.16C1330.05,1066.23,1327.65,1070.05,1327.32,1070.88z"/>
	<path class="st0" d="M1352.76,1069.44c0.58-1.99,5.15-7.39-0.36-8.28c-2.97,1.3-4.28,3.66-2.76,7.32c0,0.16,0,0.32,0,0.48
		c-1.28,0.14-2.12,0.32-2.76,1.08c-0.12,0.53-0.15,0.93,0.12,1.32c1.14,1.83,2.8,0.07,3.84,0.72c1.41,0.88,1.37,3.91,4.32,3
		c0.93-0.28,1.36-0.56,1.56-1.56c0-0.2,0-0.4,0-0.6c-0.96-0.2-1.92-0.4-2.88-0.6C1353.43,1071.74,1352.4,1070.68,1352.76,1069.44z
		 M1351.8,1065.6c-0.08,0-0.16,0-0.24,0c0.13-0.87,0.35-1.09,0.84-1.56c0.74,0.27,0.5,0.98,0.24,1.56
		C1352.36,1065.6,1352.08,1065.6,1351.8,1065.6z"/>
</g>
</svg>
