<?xml version="1.0" encoding="utf-8"?>
<!-- Generator: Adobe Illustrator 26.0.2, SVG Export Plug-In . SVG Version: 6.00 Build 0)  -->
<svg version="1.1" id="Layer_1" xmlns="http://www.w3.org/2000/svg" xmlns:xlink="http://www.w3.org/1999/xlink" x="0px" y="0px"
	 viewBox="0 0 2721.24 1533.72" style="enable-background:new 0 0 2721.24 1533.72;" xml:space="preserve">
<style type="text/css">
	.st0{fill-rule:evenodd;clip-rule:evenodd;fill:#CAC8C9;}
</style>
<g>
	<path class="st0" d="M968.64,431.28c1.07,1.35,1.18,0.56,2.28,1.2c0.58,0.34,0.83,1.57,1.92,1.92c3.32,1.08,4.94-2.79,5.28-4.56
		c0.89-4.61-4.65-13.57-6.96-8.16c-0.16,0.12-0.32,0.24-0.48,0.36c-0.56-3.72-1.12-7.44-1.68-11.16c-0.2-0.24-0.4-0.48-0.6-0.72
		c-0.36-0.04-0.72-0.08-1.08-0.12c-0.24,0.16-0.48,0.32-0.72,0.48c-0.63,2.21,0.23,4.97,0.84,6.72
		C968.59,420.53,969.39,426.93,968.64,431.28z M972.84,423.24c0.24-0.04,0.48-0.08,0.72-0.12c2.04,1.5,3.44,6.42,0,8.4
		c-0.44-0.12-0.88-0.24-1.32-0.36C970.55,428.76,971.91,425.18,972.84,423.24z"/>
	<path class="st0" d="M988.92,435.36c0.73,1.03,2.58,1.27,3.48,2.16c1.8,1.8,9.11,5.07,11.52,1.32c0-0.2,0-0.4,0-0.6
		c-1.12-0.41-1.95,0.31-3,0.24c-2.82-0.18-6.57-1.16-7.08-4.08c2.44-2.12,6.1-6.39,6.24-10.2c-4.71-5.33-7.98,5.58-8.88,9.12
		c-0.24,0.08-0.48,0.16-0.72,0.24c-1.94-3.1-4.66-8.19-4.56-12.96c0.05-2.44,0.72-5.68,0.48-7.2c-0.14-0.93-1.03-1.08-2.16-1.08
		c-0.4,0.16-0.8,0.32-1.2,0.48c-0.12,0.16-0.24,0.32-0.36,0.48c0.73,1.59,0.29,6.65,0.84,8.52
		C984.72,425.86,985.67,430.81,988.92,435.36z M995.28,428.76c0.24-0.28,0.48-0.56,0.72-0.84c0.11,0.34-0.29,0.77-0.72,0.96
		C995.28,428.84,995.28,428.8,995.28,428.76z"/>
	<path class="st0" d="M941.04,427.08c0.28,0.16,0.56,0.32,0.84,0.48c0.69,0.55,0.28,3.02,0.48,4.2c0.43,2.57,0.33,4.52,1.92,6.12
		c0.28-0.08,0.56-0.16,0.84-0.24c0.15-0.1-0.57-8.53-0.6-11.16c1.95-0.41,1.53-0.59,3.48-0.6c-0.16-0.04-0.32-0.08-0.48-0.12
		c0-0.04,0-0.08,0-0.12c0.84,0,1.68,0,2.52,0c0.08,0.04,0.16,0.08,0.24,0.12c-1.51,3.08-2.18,9.68,1.32,10.56
		c2.22,0.56,2.98-3.5,4.44-3.84c0.78,1.57,1.01,4.82,4.08,5.04c3.77-2.07,3.12-7.17,2.4-12.12c-0.12-0.08-0.24-0.16-0.36-0.24
		c-1.09,0.71-1.27,7.44-1.8,9.36c-0.12,0.08-0.24,0.16-0.36,0.24c-1.67-1.68-0.67-5.58-1.56-7.44c-0.24-0.5-0.47-0.61-0.96-0.84
		c-2.09,0.15-3.84,5.13-5.52,6.48c-1.82-2.38,1.49-7.38,2.76-7.8c-0.08,0.08-0.16,0.16-0.24,0.24c1.04-0.06,1.32-0.4,1.92-0.84
		c0.16-0.65,0.39-1.84-0.24-2.52c-0.97-1.78-3.31-0.33-3.96,0.72c-2.52-0.47-4.6,0.07-7.08,0.48c-0.2,0.04-0.4,0.08-0.6,0.12
		c0.04-2.2,0.08-4.4,0.12-6.6c-0.28-0.28-0.56-0.56-0.84-0.84c-0.32-0.04-0.64-0.08-0.96-0.12c-0.16,0.08-0.32,0.16-0.48,0.24
		c-1.06,1.7-0.9,5.59-0.36,7.92c-1.06,0.96-1.81,1.49-1.44,3C940.98,427.22,940.83,427.42,941.04,427.08z M945.72,425.88
		c0.08,0,0.16,0,0.24,0c-0.12,0.08-0.24,0.16-0.36,0.24C945.64,426.04,945.68,425.96,945.72,425.88z"/>
	<path class="st0" d="M940.2,438.48c-1.15-1.24-1.69-2.44-1.92-4.68c-0.2-0.08-0.4-0.16-0.6-0.24c-0.04,0-0.08,0-0.12,0
		c-1.82,2.53,0.85,8.53,3.96,7.56c0.4-0.28,0.8-0.56,1.2-0.84c1.06-6.49-6.6-12.73-5.04-19.56c0.08-0.08,0.16-0.16,0.24-0.24
		c0.2,0,0.4,0,0.6,0c0,0.04,0,0.08,0,0.12c-0.24,0.08-0.48,0.16-0.72,0.24c0.6,0.18,1.39-0.42,1.56-1.08
		c1.04-2.43-4.02-2.83-4.8,0.48c-1.06,4.51,6.4,13.28,6.24,18.24C940.6,438.48,940.4,438.48,940.2,438.48z"/>
	<path class="st0" d="M931.92,431.04c-0.7-3.53-1.34-7.66-5.4-7.68c-5.21,2.83-4.23,13.41,0.96,14.52c0-0.04,0-0.08,0-0.12
		c-0.4-0.2-0.8-0.4-1.2-0.6c-0.04-0.08-0.08-0.16-0.12-0.24c0.95,0.49,2,0.5,3.24,0.96c-0.64,0-1.28,0-1.92,0
		c0.63,0.46,1.02,0.28,1.92,0.24c0.69-0.74,1.51-1.24,2.04-2.16C931.32,435.74,932.22,432.55,931.92,431.04z M928.56,435.48
		c-4.18-0.37-3.18-5.73-2.64-7.8c1.21-0.3,1.74,0.06,2.88,0.24c0-0.04,0-0.08,0-0.12c-0.89-0.22-1.53-0.59-2.64-0.36
		c0.08-0.08,0.16-0.16,0.24-0.24c0.16-0.16,0.32-0.32,0.48-0.48c0.93,0.2,0.87,0.77,1.8,0.6
		C929.54,428.63,930.26,432.85,928.56,435.48z"/>
	<path class="st0" d="M913.68,443.4c0.19,0.29,1.41,5.18,1.44,5.76c0.52,0.81,0.83,1.29,2.16,1.32c0.2-0.12,0.4-0.24,0.6-0.36
		c0.46-2.14-1.34-4.89-2.04-7.2c-0.4-2.24-0.8-4.48-1.2-6.72c1.16-0.36,2.32-0.72,3.48-1.08c-0.4,0.24-0.8,0.48-1.2,0.72
		c-0.04,0.08-0.08,0.16-0.12,0.24c5.7-1.07,5.11-11.01-1.56-10.8c-7.4,4.05-2.07,12.77-1.92,17.88
		C913.62,443.47,913.35,443.34,913.68,443.4z M915.48,427.8c1.02,0.02,1.6,0.36,1.92,1.08c-0.68-0.32-1.7-0.45-2.64-0.24
		C915,428.36,915.24,428.08,915.48,427.8z M915.12,428.64c1.26,0,2.04,0.4,2.64,0.48c0.02,0.68,0.36,0.56,0.48,1.8
		c-0.87,1.64-1.48,2.36-3.6,2.76c-0.04,0-0.08,0-0.12,0C913.79,431.63,914.08,429.36,915.12,428.64z"/>
	<path class="st0" d="M893.16,436.2c0,0.12,0,0.24,0,0.36c0.2-0.12,0.4-0.24,0.6-0.36c0.48,2.08,0.09,7,2.28,6.6
		c0.73-0.13,0.88-0.1,1.2-0.6c0.83-0.99,0.42-5.68,0.96-6.84c0-0.08,0-0.16,0-0.24c1.17,1.06,3.18,4.58,2.88,6.12
		c0.45,0.62,0.67,0.88,1.44,1.2c0.83-0.06,1.07-0.26,1.56-0.6c0.24-1.76,0.48-3.52,0.72-5.28c0.08-0.08,0.16-0.16,0.24-0.24
		c1.2,1.67,2.09,4.15,3.84,5.16c0.4-0.04,0.8-0.08,1.2-0.12c0.21-0.33,0.67-0.74,0.48-1.44c-0.84-1.28-1.68-2.56-2.52-3.84
		c-0.76-1.84-1.52-3.68-2.28-5.52c-0.52-0.12-1.04-0.24-1.56-0.36c-0.32,0.24-0.64,0.48-0.96,0.72c-0.36,1.62-0.27,4.03-1.08,5.28
		c0,0.08,0,0.16,0,0.24c-0.04,0-0.08,0-0.12,0c-0.61-1.98-1.76-5.4-4.44-5.4c-1.03,0.9-1.39,1.81-1.92,3.24
		c-0.87-0.17-2.38-0.59-2.64,0.48C892.9,435.36,893.44,435.71,893.16,436.2z"/>
	<path class="st0" d="M877.92,451.08c0.27-0.23,3.34,0.79,4.56,0.48c2.36-0.6,4.15-2,6-3.36c1.12-0.32,2.24-0.64,3.36-0.96
		c2.96-1.92,2.98-6.4,0.72-9.72c0.06-0.5,0.34-0.79,0.6-1.44c-0.26-0.63-0.5-0.96-0.84-1.44c-1.43-0.35-3.5,0.06-4.92,0.48
		c-0.37,0.59-0.16,1.36-0.48,1.92c-0.5,0.87-1.5,1.61-1.92,2.64c-1.37,3.4,1.27,5.68,2.4,7.32c-3.21,2.32-8.94,4.07-11.04-0.72
		c-0.46-1.04-1.06-2.83-0.72-4.08c0.4-1.46,0.98-3.62,2.04-5.04c0.83-1.11,1.82-1.22,2.4-2.04c-0.01,0.1,1.99-0.77,2.28-1.44
		c0-0.44,0-0.88,0-1.32c-0.33-0.71-0.83-0.89-1.92-0.84c-1.8,0.92-3.53,1.36-4.68,2.88C871.37,440.23,872.69,447.76,877.92,451.08z
		 M891.48,446.64c0.12,0,0.24,0,0.36,0c0,0.04,0,0.08,0,0.12c-0.79,0.38-1.67,0.66-2.64,0.96
		C889.8,446.93,890.49,447.06,891.48,446.64z M887.16,441.36c-0.45-0.48,2.16-2.82,2.52-3.24c2.55,1.17,0.76,4.41,0.12,6.12
		C888.36,444.63,886.71,442.87,887.16,441.36z M879.6,435.36c0.04,0,0.08,0,0.12,0c-0.08,0.08-0.16,0.16-0.24,0.24
		C879.52,435.52,879.56,435.44,879.6,435.36z M879,435.72c0.04,0,0.08,0,0.12,0c-0.12,0.12-0.24,0.24-0.36,0.36
		C878.84,435.96,878.92,435.84,879,435.72z"/>
	<path class="st0" d="M915.84,436.2c0.32,0,0.64,0,0.96,0c0-0.04,0-0.08,0-0.12c-0.16,0-0.32,0-0.48,0
		C916.16,436.12,916,436.16,915.84,436.2z"/>
	<path class="st0" d="M976.08,453.36c-0.8,0.56-1.6,1.12-2.4,1.68c-0.31-4.37,1.28-8.83,0.12-12.72c-0.64-0.48-0.97-0.85-2.16-0.84
		c-0.36,0.31-0.49,0.37-0.72,0.84c1.52,3.7,0.16,9.6,0.36,14.52c0.09,2.26-0.98,4.47,0.36,6c1.57,2.63,11.44-2.72,11.16-5.76
		C982.58,454.7,979.16,451.99,976.08,453.36z M979.8,456.36c-0.64,2.21-3.61,4-6.12,4.68c-0.04,0-0.08,0-0.12,0
		c-0.41-2.04,2.39-5.45,4.8-5.4c0-0.04,0-0.08,0-0.12c-0.12-0.04-0.24-0.08-0.36-0.12C979.07,455.59,978.9,455.99,979.8,456.36z"/>
	<path class="st0" d="M994.44,463.44c0.07,0.93,8.32,3.74,8.64-2.52c-0.28-0.08-0.56-0.16-0.84-0.24c-2.89,2.31-3.45,1.99-6.96,0.48
		c-0.29-0.65,0.47-1.78,0.72-2.28c0.12-0.56,0.24-1.12,0.36-1.68c0.53-2.62,0.02-5.89-1.32-7.68c-5.81-1.57-5.23,9.1-3.6,10.68
		c0,0.04,0,0.08,0,0.12c-4.95,1.22-2.4-14.33-4.44-16.08c-0.4-0.04-0.8-0.08-1.2-0.12c-0.47,0.44-0.79,0.68-1.08,1.32
		c1.74,5.32-0.04,12.98,3.72,16.56c1.92,1.83,3.91,0.16,5.04,0.72C993.33,462.72,994.44,463.44,994.44,463.44z M993.24,458.76
		c-0.75-2.72-0.05-4.49,0.36-6c0.2,0.04,0.4,0.08,0.6,0.12c-0.22,1.52-0.18,3.93-0.72,5.76
		C993.4,458.68,993.32,458.72,993.24,458.76z"/>
	<path class="st0" d="M967.08,463.68c1.61-1.41,3.56-3.99,2.88-6.12c-0.12-0.04-0.24-0.08-0.36-0.12c-0.95,0.96-1.56,2.83-2.76,3.48
		c-0.08,0.08-0.16,0.16-0.24,0.24c-1.45-1.3-1.21-8.85-0.72-10.08c0.48-0.52,0.96-1.04,1.44-1.56c0.87-2.32-2.39-3.96-4.44-3.96
		c-5.13,3.15-8.17,10.03-4.32,14.76c0,0,1.66,0.85,1.8,0.96c-0.06,0.03,1.76-0.3,2.52-1.68c0.08,0,0.16,0,0.24,0
		C964.35,460.88,963.99,463.65,967.08,463.68z M960.36,458.52c-4-3.06,1.54-8.67,2.4-9.48c0.16,0,0.32,0,0.48,0
		C962.56,452.85,962.8,456.58,960.36,458.52z"/>
	<path class="st0" d="M956.4,463.08c-0.48-0.44-0.96-0.88-1.44-1.32c-1.89-3.68-0.91-12.71-6.36-12.72
		c-2.07,1.29-1.71,1.65-3.12,3.36c-0.56,0.28-1.12,0.56-1.68,0.84c-1.63,2.07-0.48,7.83-0.24,9.48c0.13,0.93-0.34,2.89,0.12,3.48
		c0.24,0.47,0.51,0.61,0.96,0.84c0.4-0.08,0.8-0.16,1.2-0.24c0.76-1.38,0.04-2.66,0.36-4.44c0.68-3.81-0.12-8.82,2.4-10.2
		c0.15-0.3-0.11-0.24,0.48-0.36c2.03,3.63,1.75,9.78,5.64,12.6c0.36-0.08,0.72-0.16,1.08-0.24C956,463.8,956.2,463.44,956.4,463.08z
		"/>
	<path class="st0" d="M927.48,455.16c-1.11-0.83-1.16-0.11-1.44,0.84c0.36,0.75,3.24,10.64,0.6,13.2c-0.26,0.46-0.43,0.53-1.08,0.6
		c-2.17-0.92-3.78-4.76-2.88-7.44c0.29-0.86,1.13-2.04,1.08-3.48c0.25-0.76-0.42-1.2-1.08-1.44c-1.27,0.11-1.16,0.78-1.92,1.08
		c-0.77,0.3-4.64-0.23-5.88-0.12c-0.76-2.62,1.46-4.95,0.48-7.08c-0.28-0.6-0.66-0.75-1.44-0.84c-0.28,0.12-0.56,0.24-0.84,0.36
		c-1.13,1.86-0.65,5.13-0.6,7.68c-1.02,0.42-1.84,0.86-2.64,1.44c0,0.32,0,0.64,0,0.96c0.51,0.93,1.35,0.97,2.64,1.08
		c0-0.04,0-0.08,0-0.12c-0.48-0.08-0.96-0.16-1.44-0.24c-0.04-0.12-0.08-0.24-0.12-0.36c0.48-0.08,0.96-0.16,1.44-0.24
		c1.56,4.75-1.77,11.74,1.2,14.64c0.2,0,0.4,0,0.6,0c0.62,0.18,0.96-0.29,1.2-0.84c-0.1-1.24-0.79-1.41-0.96-2.76
		c0.12-3.76,0.24-7.52,0.36-11.28c1.15-0.07,3.78,0.43,4.8,0.24c0.29,0.27,0.27,0.19,0.36,0.72c-0.1-0.01-0.05,2.44,0.24,3.72
		c0.36,1.56,2.62,8.23,6.24,7.2c3.86-1.1,4.11-8.78,2.4-14.16C928.36,457.4,927.92,456.28,927.48,455.16z M926.76,472.32
		c-1.38,0.23-2.4,0.05-3.12-0.84c0.95,0.49,1.83,0.85,3.12,0.72C926.76,472.24,926.76,472.28,926.76,472.32z"/>
	<path class="st0" d="M932.88,468.36c0.69,0,0.98-0.05,1.32-0.36c0.99-0.55,0.92-3.07,1.32-4.08c1.2-3.05,2.36-8.54,5.28-10.92
		c0.28-0.04,0.56-0.08,0.84-0.12c-0.4,0.16-0.8,0.32-1.2,0.48c0.65,0.25,2.68-0.41,2.4-1.44c-0.36-0.4-0.72-0.8-1.08-1.2
		c-0.52-0.08-1.04-0.16-1.56-0.24c-2.6,1.69-4.26,4.81-5.4,7.92c-0.6-0.19-0.98-0.63-1.68-0.36c-0.12,0.04-0.24,0.08-0.36,0.12
		c-0.15,0.76-0.78,9.26-0.72,9.36C932.35,468.08,932.83,468.15,932.88,468.36z"/>
	<path class="st0" d="M907.8,476.88c1.92-1.11,4.81-5.5,3.6-8.16c-0.04-0.12-0.08-0.24-0.12-0.36c-1.68,0.59-1.7,4.94-4.2,6.24
		c-2.92,0.02-4.89-2.52-5.28-5.04c2.3,0.77,8.2-11.41,1.2-11.4c-2.73,1.64-3.83,5.19-3.72,9.6c-0.56,0.16-1.12,0.32-1.68,0.48
		c-1.14,1.57,0.17,1.59,1.08,2.4c0.24,0,0.48,0,0.72,0c0.44,0.84,0.88,1.68,1.32,2.52c1,0.96,2,1.92,3,2.88
		C903.95,475.81,906.52,477.62,907.8,476.88z M903.36,461.16c0.49,0.24,0.48,0.37,0.48,1.08c-0.42-0.11-0.55-0.17-0.84,0.12
		c0.38-0.08,0.5-0.07,0.84,0.12c-0.44,1.56-0.79,3.37-2.28,3.84C902.35,464.33,902.16,463.11,903.36,461.16z"/>
	<path class="st0" d="M898.8,463.32c0.12-0.04,0.24-0.08,0.36-0.12c0-0.32,0-0.64,0-0.96c-0.45-1.02-1.54-1.44-3-1.44
		c-2.7,1.17-4.68,1.88-5.76,4.56c-0.16,0.12-0.32,0.24-0.48,0.36c0-1.12,0-2.24,0-3.36c-0.27-0.58-0.57-0.63-1.08-0.96
		c-0.36,0.08-0.72,0.16-1.08,0.24c-1.14,0.52-1.1,2.25-0.84,3.48c0.35,1.67,1.12,3.52,0.96,6c-0.2,0.96-0.4,1.92-0.6,2.88
		c0.14,0.71,0.84,0.94,1.32,1.32c0.36-0.08,0.72-0.16,1.08-0.24c0.67-1.17,0.36-2.13,0.72-3.6c0.55-2.24,1.57-4.35,3-6.24
		c0.68-0.9,2.39-2.92,4.08-1.92c-0.12-0.04-0.24-0.08-0.36-0.12C897.36,463.47,898.27,463.59,898.8,463.32z"/>
	<path class="st0" d="M919.44,461.52c-0.16,0-0.32,0-0.48,0c0.16,0.04,0.32,0.08,0.48,0.12
		C919.44,461.6,919.44,461.56,919.44,461.52z"/>
	<path class="st0" d="M896.4,463.68c-0.04-0.12-0.08-0.24-0.12-0.36c0,0.12,0,0.24,0,0.36C896.32,463.68,896.36,463.68,896.4,463.68
		z"/>
	<path class="st0" d="M1160.76,493.92c3.07,5.37,9.41-3.29,9.6-5.76c0.12-0.08,0.24-0.16,0.36-0.24c0.89,0.59,0.82,1.92,0.84,3.36
		c0.86,0.57,1.37-0.01,2.4,0.36c2.52,0.91,4.23,3.48,7.56,3.48c0.24-0.28,0.48-0.56,0.72-0.84c-0.16-0.68-0.32-1.36-0.48-2.04
		c-0.67-0.08-1.02,0.31-1.56,0.24c-1.09-0.15-6-3.79-5.88-4.68c-1.3-5.66,5.49-7.8,7.2-12c0.12-0.04,0.24-0.08,0.36-0.12
		c-0.61,3.37-2.8,8.17-1.08,11.16c4.39,7.65,9.84,2.37,13.32-1.68c0.12,1.68,0.24,3.36,0.36,5.04c0.28,0.32,0.56,0.64,0.84,0.96
		c0.44,0,0.88,0,1.32,0c1.7-0.98,5.46-8.39,7.08-10.44c1.2-1.52,3.1-2.96,4.8-3.96c1.15-0.67,2.77-0.93,3.6-1.92
		c0.04-0.24,0.08-0.48,0.12-0.72c-0.16-0.2-0.32-0.4-0.48-0.6c-4.12-0.83-12.69,8.93-14.16,12.12c-0.28,0.24-0.56,0.48-0.84,0.72
		c0.08-2.24,0.16-4.48,0.24-6.72c-0.74-0.52-1.37-0.68-2.4-0.36c-1.46,2.73-4.05,10.37-8.64,9c-1.27-0.38-2.18-1.11-2.64-2.28
		c-0.08-0.12-0.16-0.24-0.24-0.36c3.45,0.46,6.82-6.79,7.32-8.76c1.06-4.2-3.1-5.78-6.12-4.2c-0.46-1.01-0.38-1.26-1.44-1.68
		c-3.36,0.26-5.05,6.16-7.44,8.04c0.4-2.48,0.8-4.96,1.2-7.44c0.49-1.26,1.84-3,1.44-4.56c-0.16-0.2-0.32-0.4-0.48-0.6
		c-0.32-0.04-0.64-0.08-0.96-0.12c-4.96,3.33-1.21,13.47-4.8,16.56c0.24-1.64,0.48-3.28,0.72-4.92c-0.04-0.08-0.08-0.16-0.12-0.24
		c-0.12,0-0.24,0-0.36,0c-1.06,0.96-0.93,2.91-1.32,4.56c-1.02,4.29-2.64,10.09-7.2,10.8c-4.22-3.96,3.8-11.09,6.12-13.8
		c0.04-0.12,0.08-0.24,0.12-0.36c-0.15-0.52-0.02-0.88-0.48-1.32C1164.46,476.64,1158.24,489.51,1160.76,493.92z M1186.32,474.72
		c0.32,0.08,0.64,0.16,0.96,0.24c0.56,0.28,0.56,0.68,0.84,0.96c-0.51,3.67-2.81,5.85-5.64,7.2c-0.08-0.12-0.16-0.24-0.24-0.36
		C1183.09,479.79,1183.34,476.72,1186.32,474.72z"/>
	<path class="st0" d="M1159.2,477.84c0.04-0.04,0.08-0.08,0.12-0.12c1.33-0.61,0.88-2.05,1.56-3c0.45-0.64,1.26-0.82,1.68-1.56
		c-0.04-0.44-0.08-0.88-0.12-1.32c-0.46-0.27-0.81-0.45-1.56-0.48c-0.56,0.24-1.12,0.48-1.68,0.72c-0.41,1.54-1.38,4.42-0.12,5.52
		C1159.12,477.68,1159.16,477.76,1159.2,477.84z"/>
	<path class="st0" d="M1141.68,484.56c0,0.74,0.07,1.01,0.48,1.32c0.71,0.5,2.76-0.08,4.08-0.12c-0.86,2.67-1.06,9.62-0.96,11.76
		c0.41,0.26,0.56,0.36,1.32,0.36c0.2-0.16,0.4-0.32,0.6-0.48c0.44-4,0.88-8,1.32-12c2.12-0.12,4.24-0.24,6.36-0.36
		c0.3,3.24-1.57,7.06-0.84,10.2c0.61,0.36,0.92,0.33,1.68,0.12c0.95-1.65,3.32-11.9,3-13.08c-1.65-0.97-6.77-0.09-9.12,0.6
		c-0.24,0-0.48,0-0.72,0c0.19-2.07,2.46-6.65,1.56-8.52c-0.48-0.12-0.96-0.24-1.44-0.36c-0.32,0.16-0.64,0.32-0.96,0.48
		c-0.55,1.42-1,3.06-1.32,4.8c-0.12,1.16-0.24,2.32-0.36,3.48c-0.64,0.68-3.08,0.87-4.08,1.08
		C1142.08,484.08,1141.88,484.32,1141.68,484.56z"/>
	<path class="st0" d="M1210.44,486.6c0.31,2.73-0.01,5.9-1.92,6.48c-1.02,0.22-1.74-0.93-2.76-0.6c-0.16,0.16-0.32,0.32-0.48,0.48
		c1.09,2.56,5.15,4.07,6.48,0.72c1.21-3.05-0.17-6.35,0.36-10.2c0.28-2.04,0.57-3.01,1.2-4.8c0.32-0.2,0.64-0.4,0.96-0.6
		c0.6,0.37,1.28,1.15,2.28,0.72c0.59-0.34,0.76-1.22,0.48-2.04c-0.51-1.2-1.86-1.95-3.6-1.92
		C1209.33,477.17,1209.87,481.65,1210.44,486.6z"/>
	<path class="st0" d="M1138.2,498.24c4.98-2.22,1.56-8.61,0.12-12.48c-0.41-1.11-1.2-3.15-0.84-4.2c1.12-3.32,6.49-1.37,6.96-3.96
		c-0.53-1.04-1.68-1.58-3.24-1.56c-2.34,1.18-4.87,1.11-5.88,3.6c-1.59,3.92,1.91,8.52,2.64,11.16c0.51,1.85,1.12,4.25-1.44,5.4
		c-0.2,0-0.4,0-0.6,0c-0.56-0.95-0.07-2.73-1.56-2.88c-1.06,1.43-1.01,2.89-0.48,4.56C1135.11,498.68,1136.64,498.94,1138.2,498.24z
		"/>
	<path class="st0" d="M904.92,476.76c0-0.04,0-0.08,0-0.12c-0.16-0.08-0.32-0.16-0.48-0.24
		C904.67,476.76,904.46,476.6,904.92,476.76z"/>
	<path class="st0" d="M906.12,477.36c0.04-0.08,0.08-0.16,0.12-0.24c-0.16-0.04-0.32-0.08-0.48-0.12c0,0.08,0,0.16,0,0.24
		C905.88,477.28,906,477.32,906.12,477.36z"/>
	<path class="st0" d="M906.84,477.12c-0.16,0-0.32,0-0.48,0c0.16,0.04,0.32,0.08,0.48,0.12
		C906.84,477.2,906.84,477.16,906.84,477.12z"/>
	<path class="st0" d="M921.84,490.92c-1.29-3.49,1.73-12.47-1.56-13.68c-0.28,0.12-0.56,0.24-0.84,0.36
		c-0.65,1.07,0.32,14.48,0.48,18.36c0.08,2.09-1.61,4.01-0.6,5.4c0.64,0.87,1.74,2.88,4.08,2.28c3.67-0.94,5.45-4.69,5.4-7.56
		C928.73,491.72,925.28,486.9,921.84,490.92z M920.4,502.44c1.2,0.74,2.63,0.77,4.2,0.36C923.38,503.94,921.26,503.52,920.4,502.44z
		 M924.72,502.8c0-0.04,0-0.08,0-0.12c0.08-0.04,0.16-0.08,0.24-0.12C924.88,502.64,924.8,502.72,924.72,502.8z M924.6,500.16
		c-0.68,0.47-1.76,1.06-2.88,0.72c-0.08,0-0.16,0-0.24,0c-0.2-1.03,1.19-6.35,2.09-8.75c-0.02,0-0.04-0.01-0.05-0.01
		c0.02-0.01,0.04-0.01,0.07-0.02c0.16-0.41,0.3-0.74,0.41-0.94c0.66,0.24,1.07,0.68,1.44,1.2c-0.53-0.35-1.23-0.55-1.85-0.26
		c0,0.01-0.01,0.02-0.01,0.04c0.51,0.16,1.53,0.33,2.11,0.47C925.37,494.41,928.58,497.42,924.6,500.16z"/>
	<path class="st0" d="M964.68,477.84c0-0.04,0-0.08,0-0.12c-0.12,0-0.24,0-0.36,0C964.51,477.86,964.3,477.84,964.68,477.84z"/>
	<path class="st0" d="M990.12,511.44c0.64,0.92,1.28,1.84,1.92,2.76c2.47,2.91,4.73,6.2,6.96,8.16c-0.32,0.27,0.24,0.42,0.36,0.6
		c1.52,2,3.04,4,4.56,6c5.04,6.62,9.98,13.95,13.56,20.28c2.86,5.06,7.75,15.73,12,18.6c0.08,0.28,0.16,0.56,0.24,0.84
		c-0.04,0.26,2.41,4.24,3.12,4.8c0.44-0.12,0.88-0.24,1.32-0.36c0.48-2.61-1.88-4.38-3.24-6.24c-3.46-4.71-6.72-9.55-9.84-14.64
		c-2.08-3.64-4.16-7.28-6.24-10.92c-0.36-0.57-2.11-2.94-1.56-3.36c-3.1-2.56-5.11-6.76-7.56-9.96c-4.8-5.92-9.6-11.84-14.4-17.76
		c-4.44-5.16-8.88-10.32-13.32-15.48c-1.92-2.04-3.84-4.08-5.76-6.12c-0.12-0.12-0.24-0.24-0.36-0.36c1.01,0.32,4.72-2.68,4.68-5.04
		c-1.17-1.22-3.06-1.36-4.56-2.28c-0.96-0.76-1.92-1.52-2.88-2.28c-2.01-0.61-3.79-0.34-5.16-0.84c-0.48,0.44-0.96,0.88-1.44,1.32
		c-0.23,0.55-1.97,12.71-1.92,12.84c-0.28,0.64,1.25,1.77,2.16,1.32c2.14-1.04,4.14-2.71,6.15-3.05c-0.09-0.02-0.18-0.05-0.27-0.07
		c0.16,0,0.32,0,0.48,0c0,0.02,0,0.03,0,0.05c0.2-0.03,0.4-0.05,0.6-0.05c-0.16-0.04-0.32-0.08-0.48-0.12c0-0.04,0-0.08,0-0.12
		c0.2,0.04,0.4,0.08,0.6,0.12c1.94,0.8,2.69,2.6,3.96,4.08c4.16,4.85,8.15,7.58,12.24,12.96
		C986.99,508.37,988.78,510.39,990.12,511.44z"/>
	<path class="st0" d="M914.88,484.32c-0.28-0.16-0.56-0.32-0.84-0.48c-2.93-0.02-5.55,7.93-6.12,10.68c-0.37,1.79,0.3,2.78,0.36,3.6
		c0.3,0.15-0.53,0.51-0.72,0.6c-0.24-0.08-0.48-0.16-0.72-0.24c-1.25-0.78-0.91-4.37-0.72-6.24c0.28-4.28,0.56-8.56,0.84-12.84
		c-0.24-0.52-0.32-0.72-0.84-0.96c-0.32-0.04-0.64-0.08-0.96-0.12c-2.2,2.12-1.38,6.87-2.04,10.44c-0.93,5.02-1.69,8.4-4.44,11.4
		c-0.04,0-0.08,0-0.12,0c-0.04-0.04-0.08-0.08-0.12-0.12c-0.86-5.48,0.54-11.22,1.44-14.88c0.23-0.91,1.65-3.44,0.72-4.8
		c-0.32-0.24-0.64-0.48-0.96-0.72c-2.66,0.17-1.88,3.12-2.4,5.4c-0.92,4.04-2.69,15.75,0.84,17.52c2.61-0.09,5.46-6.19,5.52-8.64
		c0.08-0.04,0.16-0.08,0.24-0.12c-0.09,3.55-0.03,6.55,2.64,7.56c0.84,0.34,1.7-0.12,2.52-0.24c-0.73-0.21-1.85,0.36-2.64-0.12
		c-0.08-0.04-0.16-0.08-0.24-0.12c0-0.04,0-0.08,0-0.12c1.14,0.31,2.93,0.08,3.24-0.72c0.4,0.16,0.8,0.32,1.2,0.48
		c-0.52,0.12-1.04,0.24-1.56,0.36c1.89,1.14,3.94-3.36,4.08-4.56c2,0.99,0.36,5.42,3.96,5.76c0.28-0.32,0.56-0.64,0.84-0.96
		c0.07-0.28-1.52-2.69-1.8-3.84C915.09,493.27,915.88,488.1,914.88,484.32z M910.44,496.56c-0.04,0-0.08,0-0.12,0
		c-1.23-1.41,0.93-5.05,1.08-5.88c0.16,0,0.32,0,0.48,0c0.12,0.04,0.24,0.08,0.36,0.12C911.87,492.95,911.1,494.82,910.44,496.56z
		 M911.52,490.56c0.2-0.4,0.4-0.8,0.6-1.2c0.12,0.24,0.24,0.48,0.36,0.72C912.11,490.54,912.01,490.32,911.52,490.56z"/>
	<path class="st0" d="M943.56,507.36c-4.71-2.88-0.27-12.43-0.48-15.24c-0.32-0.2-0.64-0.4-0.96-0.6
		c-4.06,0.25-1.37,8.41-5.16,10.56c-4.18-2.54-1.4-17.94-2.76-22.92c-0.62-0.44-1.03-0.73-2.16-0.72c-0.2,0.04-0.4,0.08-0.6,0.12
		c-0.12,0.2-0.24,0.4-0.36,0.6c3.75,6.65-1.48,22.92,5.88,25.68c0.4-0.08,0.8-0.16,1.2-0.24c-0.62-0.21-1.65-0.15-2.28-0.36
		c-0.04-0.08-0.08-0.16-0.12-0.24c1.08,0.52,2.78-0.18,3.36,0.48c-0.32-0.04-0.64-0.08-0.96-0.12c2.72,1.52,3.18,9.06,9.36,4.44
		c0.63-0.47,0.73-1.25,0.96-1.56c-0.12-0.12-0.24-0.24-0.36-0.36C946.95,506.44,945.34,508.45,943.56,507.36z M942.48,509.4
		c0.69,0.24,1.04,0.48,2.04,0.48C943.95,510.28,942.93,509.84,942.48,509.4z"/>
	<path class="st0" d="M891.84,494.64c0.47-1.96-6.31-1.41-8.4-1.32c-0.01-1.16,1.93-4.65,2.88-5.52c0.28-0.12,0.56-0.24,0.84-0.36
		c0.16,0,0.32,0,0.48,0c0.04,0.44,0.08,0.88,0.12,1.32c2.11,1.35,2.56-3.42,1.8-5.16c-0.68-0.43-1.23-0.73-2.4-0.72
		c-3.73,2.09-4.08,6.66-6.36,10.2c-0.44,0.68-1.48,0.79-1.8,1.68c-0.15,0.43-0.03,5.49,0.12,6.96c-2.86,2.95-7.67-1.55-7.68-4.8
		c0.42-0.39,0.51-0.22,0.36-0.48c0.84-0.74,3.03-1.8,3.48-4.32c0.64-3.56-3.9-4.37-5.4-2.16c-4.39,6.48,2.62,17.62,9.24,13.8
		c0.27,1.18,0.76,2.54,1.8,3c0.2,0.04,0.4,0.08,0.6,0.12c0.08-0.04,0.16-0.08,0.24-0.12c0.31-0.43,0.5-0.63,0.6-1.32
		c-1.74-2.8-1.15-5.77-0.54-8.4c-0.02,0-0.04,0-0.06,0c0.02-0.01,0.04-0.01,0.06-0.02c0.1-0.44,0.21-0.88,0.3-1.3
		c2.16,0.04,4.32,0.08,6.48,0.12c0.59,2.32-0.77,4.88-0.12,7.08c0.27,0.59,0.6,0.83,1.32,0.96c0.2-0.08,0.4-0.16,0.6-0.24
		C890.92,502.85,892.33,496.18,891.84,494.64z M887.4,486.12c0.12,0,0.24,0,0.36,0c0,0.32,0,0.64,0,0.96
		c-0.42,0.33-1.05,0.3-1.44,0.48C886.68,487.08,887.04,486.6,887.4,486.12z M872.4,491.4c0.08,0.16,0.16,0.32,0.24,0.48
		c-0.37-0.22-0.01-0.06-0.48-0.12C872.24,491.64,872.32,491.52,872.4,491.4z M872.4,492c0.04,0,0.08,0,0.12,0
		c-0.18,0.35-0.15,0.5-0.6,0.84C872.08,492.56,872.24,492.28,872.4,492z"/>
	<path class="st0" d="M891.36,484.68c0.16,0.76,0.32,1.52,0.48,2.28c0.76,0.46,1.03,0.48,1.8,0.24c0.29-1.07,0.67-1.72,0.48-3
		c-0.52-0.2-1.04-0.4-1.56-0.6C892.04,483.97,891.77,484.2,891.36,484.68z"/>
	<path class="st0" d="M840.48,492.12c0.31-0.49,0.73-1.35,0.48-2.28c-0.31-0.68-0.74-0.91-1.56-1.08c-1.36,0.77-1.74,1.8-1.8,3.84
		c-2.68,1.04-5.36,2.08-8.04,3.12c-0.12,0.16-0.24,0.32-0.36,0.48c0.06,0.62,0.29,0.8,0.6,0.96c0.59,0.29,1.78-0.04,1.8-0.24
		c0.3,0.27,0.2,0.33,0.24,0.84c1.26-0.29,4.03-0.67,5.88-0.48c0-0.04,0-0.08,0-0.12c-0.92-0.69-2.85-0.06-3.72,0
		c-0.04-0.12-0.08-0.24-0.12-0.36c0.09,0.02,0.89-0.27,1.75-0.58c0.02-0.05,0.03-0.1,0.05-0.14c0.02,0.06,0.03,0.08,0.05,0.11
		c0.64-0.23,1.3-0.46,1.75-0.59c0,0.04,0,0.08,0,0.12c0.01,1.33,1.16,2.55,0.6,3.96c-0.19,0.49-0.79,0.99-0.72,1.68
		c0.04,0.08,0.08,0.16,0.12,0.24c-0.01,0.42,0.25,0.59,0.72,0.84c0.48-0.12,0.96-0.24,1.44-0.36c0.04-0.08,0.08-0.16,0.12-0.24
		c0.34-0.43,0.63-4.53,0.92-5.9c-0.09-0.02-0.17-0.05-0.2-0.1c0.08-0.01,0.15-0.02,0.23-0.04c0.04-0.19,0.09-0.31,0.13-0.32
		c-0.1-0.59,0.22-0.4-0.36-0.48c0.47-0.55,2.04-0.72,3-0.72c-0.12,0.04-0.24,0.08-0.36,0.12c0,0.12,0,0.24,0,0.36
		c0.12,0.04,0.24,0.08,0.36,0.12c0.04-0.24,0.08-0.48,0.12-0.72c0.28,0,0.56,0,0.84,0c-0.24,0.04-0.48,0.08-0.72,0.12
		c0,0.04,0,0.08,0,0.12c0.57,0.28,1.01,0.18,1.32,0.72c-1.44,0.23-2.89,0.46-4.33,0.68c-0.01,0.04-0.02,0.09-0.03,0.13
		c0.99,0.25,5.27-0.57,5.68-1.3c-0.21-0.13,0.04-0.08-0.36-0.36c1.52-0.85,2.53,0.08,2.52-2.28c-0.2-0.24-0.4-0.48-0.6-0.72
		C845.3,490.7,843.08,492.02,840.48,492.12z M833.16,496.68c0-0.04,0-0.08,0-0.12c0.16-0.04,0.32-0.08,0.48-0.12
		c0.12,0,0.24,0,0.36,0C833.72,496.52,833.44,496.6,833.16,496.68z M834.12,496.56c0-0.08,0-0.16,0-0.24
		C834.23,496.53,834.24,496.35,834.12,496.56z"/>
	<path class="st0" d="M862.92,498.96c0.64-3.37,1.23-6.73,5.28-8.28c0-0.32,0-0.64,0-0.96c-0.6-0.39-0.95-0.62-2.04-0.6
		c-0.68,0.28-1.36,0.56-2.04,0.84c-0.48,0.56-0.96,1.12-1.44,1.68c-0.69,0.36-1.16-0.17-2.28,0.6c-0.39,1.5-0.28,8.32,0.36,9.24
		c0.55,0.15,1.07,0.3,1.68,0.12c0.08,0,0.16,0,0.24,0C863.14,500.82,862.75,499.86,862.92,498.96z"/>
	<path class="st0" d="M969.12,490.32c0-0.02,0-0.05,0-0.07c-0.07,0.01-0.14,0.01-0.21,0.02
		C968.98,490.29,969.05,490.3,969.12,490.32z"/>
	<path class="st0" d="M924.12,491.28c0,0.08,0,0.16,0,0.24c-0.08,0.04-0.16,0.08-0.24,0.12c0.12,0,0.24,0,0.36,0
		C924.2,491.52,924.16,491.4,924.12,491.28z"/>
	<path class="st0" d="M843.6,494.76c0.08,0.04,0.16,0.08,0.24,0.12c-0.04-0.12-0.08-0.24-0.12-0.36
		C843.68,494.6,843.64,494.68,843.6,494.76z"/>
	<path class="st0" d="M840.96,495.36c0.04,0,0.08,0,0.12,0c0.19-0.24,0.16-0.16,0.24-0.6c-0.08,0-0.16,0-0.24,0
		C841.04,494.96,841,495.16,840.96,495.36z"/>
	<path class="st0" d="M836.76,496.08c-0.12-0.04-0.24-0.08-0.36-0.12c0.04,0.12,0.08,0.24,0.12,0.36
		C836.6,496.24,836.68,496.16,836.76,496.08z"/>
	<path class="st0" d="M835.56,496.44c0.17-0.2,0.23-0.1,0.17-0.25c-0.03,0.01-0.06,0.02-0.09,0.03
		C835.61,496.3,835.58,496.37,835.56,496.44z"/>
	<path class="st0" d="M885.48,496.8c-0.88-0.04-1.76-0.08-2.64-0.12c-0.34,0.11-0.68,0.23-1.02,0.34c0,0.01,0,0.01,0,0.02
		C883.04,496.96,884.26,496.88,885.48,496.8z"/>
	<path class="st0" d="M885.96,496.68c0.15,0.23,2.3,0.53,2.64,0.12C887.72,496.76,886.84,496.72,885.96,496.68z"/>
	<path class="st0" d="M831.72,497.4c-0.08,0-0.16,0-0.24,0C831.69,497.51,831.51,497.52,831.72,497.4z"/>
	<path class="st0" d="M913.68,516.6c-4.27-0.94-11.06,2.16-13.2,3.72c-0.88,0.76-1.76,1.52-2.64,2.28
		c-0.44,0.04-0.88,0.08-1.32,0.12c-1.31,0.52-2.08,1.62-3.12,2.4c-0.76-5.89,2.62-10.04,2.64-15.24c-0.24-0.24-0.48-0.48-0.72-0.72
		c-0.24-0.04-0.48-0.08-0.72-0.12c-1.55,1.18-1.18,3.25-1.68,5.52c-1.03,4.68-2.33,11.01-2.64,15.96c0.28,0.32,0.56,0.64,0.84,0.96
		c2.66,0.47,2.05-3.65,4.32-5.4c0.08-0.08,0.16-0.16,0.24-0.24c-0.44,0.78-3.05,4.75-1.8,6c0.05,0.47,0.37,0.69,0.96,0.96
		c1.72-0.05,7.57-4.7,4.92-9.6c0.47-0.25,4.26-2.91,4.32-3c0.1,0.43,1.49,0.03,1.8-0.12c0.08,0,0.16,0,0.24,0
		c-0.09-0.25-0.17-0.38-0.24-0.12c-0.28,0-0.56,0-0.84,0c1.91-1.21,8.09-1.9,9.48,0c1.99,2.73-0.38,6.61-3.36,6.96
		c-0.12,0.16-0.24,0.32-0.36,0.48c0.05,1.37,0.85,1.77,1.56,2.16c0.28,0,0.56,0,0.84,0c-0.16-0.04-0.32-0.08-0.48-0.12
		c1.01-0.39,1.86-0.46,2.76-1.44C917.92,525.36,918.84,517.74,913.68,516.6z"/>
	<path class="st0" d="M1179.48,509.52c-0.16-0.04-0.32-0.08-0.48-0.12c0.16,0.08,0.32,0.16,0.48,0.24
		C1179.48,509.6,1179.48,509.56,1179.48,509.52z"/>
	<path class="st0" d="M1302.84,651.6c4.52,8.1,6.59,14.94,10.56,22.68c-0.13,0.25,2.67,7.37,2.88,7.8c1.34,2.7,1.96,7.92,6,8.64
		c0.85-0.36,1.39-0.75,1.8-1.56c-4.38-7.19-8.53-16.2-12.12-24.48c-1.48-3.44-2.96-6.88-4.44-10.32c-2.76-5.2-5.52-10.4-8.28-15.6
		c-3.01-5.07-6.54-9.99-9.6-15.12c-6.8-11.38-12.78-22.82-20.04-33.72c-10.22-15.36-21.31-29.96-32.64-44.16
		c-5.16-5.44-10.32-10.88-15.48-16.32c-2-1.96-4-3.92-6-5.88c1.38-3.31,6.72-10.74,2.16-12.48c-1.2,0.04-2.4,0.08-3.6,0.12
		c-3.86,0.72-11.57,0.73-13.08,4.08c1.11,4.06,2.59,7.56,4.32,11.52c0.36,1.2,0.72,2.4,1.08,3.6c2.36,2.94,6.11-2.08,6.84-3.6
		c2.61,0.22,4.52,3.65,6.24,5.04c5.2,4.18,10.46,9.56,14.64,14.76c1.1,1.37,4.64,6.41,6,6.24c-0.12,0.16-0.24,0.32-0.36,0.48
		c0.84,0.88,1.68,1.76,2.52,2.64c-0.16-0.04-0.32-0.08-0.48-0.12c0,0.04,0,0.08,0,0.12c1.65,0.75,5.43,6.9,6.84,8.88
		c2.65,3.71,5.55,8.34,8.52,11.04c1.44,2.28,2.88,4.56,4.32,6.84c4.69,5.73,9.59,14.18,12.84,19.08c1.35,2.03,1.91,4.22,3.6,5.76
		c-0.27,0.24,0.17,0.43,0.36,0.6c1.46,1.33,1.57,3.6,3.12,5.16c-0.26,0.22,2.1,4.56,2.52,5.04c-0.04,0.08-0.08,0.16-0.12,0.24
		c2.5,4.05,4.97,10.19,8.28,13.68c0,0.04,0,0.08,0,0.12c0.26,1.66,3.46,5.87,4.92,7.32c-0.27,0.23,0.67,1.57,0.96,1.92
		c0,0.04,0,0.08,0,0.12C1298.41,644.89,1301.43,649.08,1302.84,651.6z"/>
	<path class="st0" d="M868.68,520.68c-0.04-0.12-0.08-0.24-0.12-0.36c0.48-1.56,0.96-3.12,1.44-4.68c-0.45-0.61-0.67-0.89-1.44-1.2
		c-3.27,0.17-2.07,3.73-3,6.24c-0.93,1.11-2.49,0.37-2.64,2.4c0.24,0.28,0.48,0.56,0.72,0.84c0.28,0.04,0.56,0.08,0.84,0.12
		c0,0.2,0,0.4,0,0.6c0.34,0.14,0.29-0.3,0.48-0.6c0.04,0.12,0.08,0.24,0.12,0.36c-1.11,1.86-1.18,3.82,0.84,4.56
		c0.48-0.08,0.96-0.16,1.44-0.24c0.16-0.2,0.32-0.4,0.48-0.6c-0.07-0.79-0.24-0.87-0.72-1.2c0.16-0.64,0.32-1.28,0.48-1.92
		c1.16-0.12,2.32-0.24,3.48-0.36c-0.85-0.37-2.63-0.02-3.36,0.24c0.12-0.4,0.24-0.8,0.36-1.2c0.15-0.27,6.54-0.39,7.92-0.6
		C877.95,519.27,871.37,520.04,868.68,520.68z"/>
	<path class="st0" d="M883.32,527.88c-0.5-0.18-0.33-0.1-0.84,0.24c-1.62-2.07-0.55-5.07-0.96-7.56c-0.36-0.24-0.72-0.48-1.08-0.72
		c-1.21,0.09-2.98,0.68-3.6,1.44c0.04,0.04,0.08,0.08,0.12,0.12c-0.36,0.23,0.91,0.83,1.08,0.84c0.12,0.04,0.24,0.08,0.36,0.12
		c-0.3,0.56-0.42,0.41-0.72,0.72c0.44,0.25,0.34,0.03,0.36,0.36c0.49-0.13,0.21,0.13,0.36-0.36c1.14,2.58,0.7,9.36,5.76,9.36
		c2.05-2.83,0.97-6.66,1.56-11.04c0.24-1.2,0.48-2.4,0.72-3.6c-0.16-0.16-0.32-0.32-0.48-0.48
		C883.96,518.82,883.39,525.79,883.32,527.88z M882.96,528.72c-0.04,0-0.08,0-0.12,0c-0.08-0.12-0.16-0.24-0.24-0.36
		c0.08-0.08,0.16-0.16,0.24-0.24c0.12,0,0.24,0,0.36,0C883.12,528.32,883.04,528.52,882.96,528.72z"/>
	<path class="st0" d="M912.12,519.48c0.16,0.04,0.32,0.08,0.48,0.12c0-0.04,0-0.08,0-0.12
		C912.44,519.48,912.28,519.48,912.12,519.48z"/>
	<path class="st0" d="M907.56,519.84c0-0.04,0-0.08,0-0.12c-0.12,0-0.24,0-0.36,0C907.45,520,907.19,519.78,907.56,519.84z"/>
	<path class="st0" d="M906.6,520.08c0.04-0.08,0.08-0.16,0.12-0.24c-0.16,0-0.32,0-0.48,0C906.36,519.92,906.48,520,906.6,520.08z"
		/>
	<path class="st0" d="M873,524.04c0.12-0.2,0.24-0.4,0.36-0.6c-0.12,0-0.24,0-0.36,0C873,523.64,873,523.84,873,524.04z"/>
	<path class="st0" d="M873.6,523.92c0.04-0.12,0.08-0.24,0.12-0.36c-0.08,0-0.16,0-0.24,0C873.52,523.68,873.56,523.8,873.6,523.92z
		"/>
	<path class="st0" d="M870.96,524.28c0.12-0.08,0.24-0.16,0.36-0.24c-0.16-0.08-0.32-0.16-0.48-0.24c-0.04,0.12-0.08,0.24-0.12,0.36
		C870.8,524.2,870.88,524.24,870.96,524.28z"/>
	<path class="st0" d="M872.16,524.16c0.27-0.15,0.3-0.13,0.48-0.36c-0.12,0-0.24,0-0.36,0C872.24,523.92,872.2,524.04,872.16,524.16
		z"/>
	<path class="st0" d="M871.68,524.28c0.04,0,0.08,0,0.12,0c0.12-0.34,0.2-0.06,0-0.36C871.76,524.04,871.72,524.16,871.68,524.28z"
		/>
	<path class="st0" d="M869.28,524.16c-0.08,0-0.16,0-0.24,0C869.25,524.27,869.07,524.28,869.28,524.16z"/>
	<path class="st0" d="M1138.56,596.28c0.6,0.12,0.82,0.19,0.96-0.12c0.37,0.19,1.72,2.38,2.04,2.64c4.28,3.54,7.2-4.04,7.56-5.76
		c0.7-3.35-1.18-9.74-2.64-10.92c-1.83-1.48-4.15-0.23-4.8,1.56c-0.08,0.04-0.16,0.08-0.24,0.12c-0.08-0.08-0.16-0.16-0.24-0.24
		c0.43-1.79,0.85-8.03,0.36-9.72c-0.34-0.75-0.83-0.84-1.68-1.08c-0.71,0.39-0.97,0.43-1.32,1.2c1,2.82,0.6,10.46,0.24,14.88
		C1138.53,592.11,1136.71,594.52,1138.56,596.28z M1144.68,584.76c-0.24-0.12-0.48-0.24-0.72-0.36c-0.04-0.12-0.08-0.24-0.12-0.36
		c0.46-0.1,0.12-0.12,0.6-0.12c-0.04-0.08-0.08-0.16-0.12-0.24c0.43,0.24,0.21,0.22,0.72,0.12c2.11,1.89,3.36,9.75-0.96,12.72
		C1137.58,596.15,1144.45,586.45,1144.68,584.76z"/>
	<path class="st0" d="M1117.44,602.28c2.46,0.94,8.28-6.2,9.12-8.04c0.16,0.04,0.32,0.08,0.48,0.12c0.46,2.17,1.78,4.75,5.64,3.72
		c1.18-0.32,2.03-0.58,2.64-1.44c0-0.08,0-0.16,0-0.24c-1.13-1.14-3.78,0.28-5.04-0.72c-2.06-1.13-0.97-7.83-0.48-8.64
		c-0.17-2.49-2.44-3.62-4.44-2.16c-1.91,1.4-5.51,9.72-4.44,13.2c-0.65,0.86-1.48,1.57-2.64,1.92c-0.08-0.04-0.16-0.08-0.24-0.12
		c-1.81-7.41,0.07-15.47,1.68-19.08c0.48-1.36,0.96-2.72,1.44-4.08c-0.16-0.36-0.32-0.72-0.48-1.08c-0.44-0.04-0.88-0.08-1.32-0.12
		c-1.24,1.67-1.49,4.09-2.16,6.36c-1.44,3.6-2.88,7.2-4.32,10.8c-0.85-0.25-1.54-1.16-2.88-0.84c-4.15,0.99-3.31,8.33-2.4,10.32
		c-1.2,0.61-2.84,0.08-3.96-0.36c-1.73-2.68,0.25-5.74,0.36-7.68c-0.2-0.96-0.4-1.92-0.6-2.88c-0.4-0.2-0.8-0.4-1.2-0.6
		c-3.57,1.23-6.16,4.91-7.32,8.52c-0.67,2.08-0.72,5.17,1.44,5.64c2.12,0.53,2.71-2.54,3.84-3.48c0.13-0.43,0.09-0.35,0.36-0.6
		c0.54,0.64,0.83,2.25,2.04,3.12c1.03,0.74,3.06,1.24,4.8,0.84c0.87-0.2,2.38-0.11,3-0.6c2.92-2.27,3.01-12.7,5.4-13.56
		C1115.72,594.35,1115.85,601.17,1117.44,602.28z M1127.28,587.28c-0.04-0.08-0.08-0.16-0.12-0.24c0.04,0.04,0.08,0.08,0.12,0.12
		c0.56,0.71-3.17,7.53-4.44,8.04C1123.51,593.26,1124.06,587.54,1127.28,587.28z M1101,594.84c-1,3.1-2.09,5.2-3.96,7.32
		c-0.16,0-0.32,0-0.48,0c0.02-2.22,2.07-6.75,3.96-7.2c0-0.08,0-0.16,0-0.24c0.16,0,0.32,0,0.48,0
		C1101,594.76,1101,594.8,1101,594.84z M1109.4,600.84c-0.08,0.04-0.16,0.08-0.24,0.12c-0.08-0.04-0.16-0.08-0.24-0.12
		c-0.5-3.11-0.01-4.38,1.44-6.36c0.24,0.04,0.48,0.08,0.72,0.12C1110.6,596.9,1110.13,598.93,1109.4,600.84z"/>
	<path class="st0" d="M1151.16,600.36c1.33,1.32,2.6,0.08,3.84,0.84c0.43,0.27,0.86,1.97,1.44,2.52c1.41,1.35,8.52,5.1,9.84,0.36
		c-0.12-0.12-0.24-0.24-0.36-0.36c-0.92-0.29-1.6,0.33-2.52,0.36c-3.21,0.09-4.96-2.33-5.16-5.04c1.84-1.44,3.68-2.88,5.52-4.32
		c0.18-0.68,0.37-1.54,0-2.16c-0.42-0.88-1.24-1.18-2.52-1.2c-5.08-0.09-4.19,2.96-5.88,6.24c-0.28,0.48-0.63,0.54-1.2,0.72
		c-0.28,0-0.56,0-0.84,0c-1.29-5.97,1.56-10.54,2.52-14.88c0.25-1.15,1.43-3.75,0.72-5.04c-0.16-0.24-0.32-0.48-0.48-0.72
		c-0.4-0.08-0.8-0.16-1.2-0.24c-0.61,0.4-1.33,0.66-1.68,1.32c-0.23,0.62,0.28,3.15-0.12,4.56
		C1152.28,586.15,1148.7,597.91,1151.16,600.36z"/>
	<path class="st0" d="M1051.8,613.08c2.97-0.19,4.8-8.04,4.68-10.08c0.28,0.04,0.56,0.08,0.84,0.12c-0.48,1.71,1.93,2.92,2.64,3.6
		c-0.2-0.08-0.4-0.16-0.6-0.24c0.69,0.61,1.2-0.1,2.28,0.48c0.64,1.12,1.28,2.24,1.92,3.36c0.16,0.08,0.32,0.16,0.48,0.24
		c0.75,0.57,1.11,1.31,2.04,1.56c2.77,0.73,4.57-2.72,4.68-3.84c0-0.04,0-0.08,0-0.12c-0.08-0.04-0.16-0.08-0.24-0.12
		c-1.69,0.22-1.85,1.47-3.72,1.68c-1.68-0.66-2.47-1.82-2.88-3.72c2.46-3.21,4.58-6.31,5.4-9.24c0.65-2.33-1.46-4.95-3.48-4.32
		c-3.34,1.36-4.47,7.27-4.32,11.76c-0.59,0.17-1.05,0.04-1.56-0.12c-2.87-4.16-0.76-11.02-0.36-13.8c0.15-1.05,1.3-2.71,0.72-3.96
		c-0.24-0.24-0.48-0.48-0.72-0.72c-0.24-0.04-0.48-0.08-0.72-0.12c-2.48,2.05-2.16,10.35-3,13.8c-0.66-0.28-1.39-1.12-2.52-0.84
		C1048.3,599.7,1047.68,611.44,1051.8,613.08z M1066.32,595.44c0.16,0,0.32,0,0.48,0c1.09,2.05-1.37,6.71-3.24,7.8
		c-0.04,0-0.08,0-0.12,0C1063,600.27,1064.23,597.62,1066.32,595.44z M1056.72,602.64c0.4,0.17,0.25,0.07,0.48,0.36
		c-0.2-0.04-0.4-0.08-0.6-0.12C1056.64,602.8,1056.68,602.72,1056.72,602.64z M1053.36,601.8c0.28,0,0.56,0,0.84,0
		c0.22,0.62,0.16,0.86,0.84,1.2c0-0.12,0-0.24,0-0.36c0.04,0,0.08,0,0.12,0c-0.37,2.98-1.6,5.47-2.52,7.8
		C1048.62,611.25,1052.5,602.67,1053.36,601.8z"/>
	<path class="st0" d="M1038.84,597.12c0.8-1.32,2.87-2.68,1.8-3.96c-0.29-0.53-0.67-0.67-1.44-0.72c-1.56,1.24-1.62,2.82-1.2,4.56
		C1038.28,597.04,1038.56,597.08,1038.84,597.12z"/>
	<path class="st0" d="M1021.08,615.96c0.28,0.12,0.56,0.24,0.84,0.36c1.32-1.5,2.2-0.24,4.56-0.48c-0.71,0.48-1.49,0.25-2.4,0.12
		c2.53,1.59,6.58-3.21,7.44-5.4c0.35-0.88-0.08-2.05,0.72-2.52c-1.64-2.49-2.38-3.99-5.76-4.8c0.32-2.41,6.06-10.24-2.16-9.96
		c-2.35,1.01-5.02,0.74-5.52,3.6c1.4,3.01,1.83,5.57,1.2,8.88C1022.05,608.76,1020.2,612.26,1021.08,615.96z M1028.52,606.48
		c0.5,0.34,0.4,0.72,0.84,0.96c-0.1,3.35-2.37,6.57-5.88,5.16c-0.87-1.59-0.13-4.08-0.6-6c0.76-0.63,2.19-0.34,3.24-0.72
		C1026.92,606.08,1027.72,606.28,1028.52,606.48z M1022.28,596.76c0.49-0.07,0.24,0.29,0.72-0.12c-0.08,0-0.16,0-0.24,0
		c0.41-0.41,0.98-0.45,1.56-0.72c0.48,0.04,0.96,0.08,1.44,0.12c1.31,2.8-1.66,5.64-2.88,7.2c-0.12,0.04-0.24,0.08-0.36,0.12
		c-0.04-0.04-0.08-0.08-0.12-0.12C1021.92,600.84,1022.3,598.39,1022.28,596.76z"/>
	<path class="st0" d="M1078.32,603.72c0.16,0,0.32,0,0.48,0c-0.06,2.3-1.02,3.59-1.68,5.28c-0.56,2.2-1.12,4.4-1.68,6.6
		c-0.41,2.23-0.61,5.1,0.72,5.76c0.46,0.19,0.76,0.01,1.2-0.12c0.78-1.29,0.53-3.67,0.96-5.28c1.05-3.92,2-15.11,6.6-17.28
		c0.08-0.04,0.16-0.08,0.24-0.12c0.08,0.04,0.16,0.08,0.24,0.12c0.19,1.6-0.08,3.12-0.36,4.56c0.3,0.43,0.34,0.71,0.84,0.96
		c0.65,0.25,1.04-0.14,1.56-0.36c0.88-2.22,1.54-4.78,3.48-6.24c1.03-0.77,2.81-1.15,3.48-2.28c-0.2-0.2-0.4-0.4-0.6-0.6
		c-2.67-1.17-4.37,2.62-6.24,3.24c-0.11-0.86-0.3-1.59-0.96-1.92c-2.02-0.83-3.54,1.77-4.44,2.64c-1.25-1.59-3.5-4.91-6-5.04
		c-2.87,2.31-6.37,12.56-1.92,14.88C1077.19,608.43,1078.2,605.05,1078.32,603.72z M1078.92,603.24c-0.18,0.23-0.21,0.22-0.48,0.36
		c0.08-0.12,0.16-0.24,0.24-0.36C1078.76,603.24,1078.84,603.24,1078.92,603.24z M1076.4,597c0.32-0.04,0.64-0.08,0.96-0.12
		c-0.2-0.08-0.4-0.16-0.6-0.24c0.2,0,0.4,0,0.6,0c2.74,2.3-0.14,6.06-2.4,9.12c-0.12,0.04-0.24,0.08-0.36,0.12
		c-0.08-0.04-0.16-0.08-0.24-0.12C1073.37,601.53,1075.74,600.54,1076.4,597z"/>
	<path class="st0" d="M1025.64,596.16c-0.16,0-0.32,0-0.48,0c0.16,0.04,0.32,0.08,0.48,0.12
		C1025.64,596.24,1025.64,596.2,1025.64,596.16z"/>
	<path class="st0" d="M1042.08,615c0.36,0,0.72,0,1.08,0c-0.12-0.04-0.24-0.08-0.36-0.12c2.72-1.05,5.36-7.24,5.04-9.72
		c-0.31-2.41,0.52-5.23-3.6-5.04C1038.54,603.7,1038.67,610.66,1042.08,615z M1043.76,603.84c0.48,0,0.96,0,1.44,0
		c1.03,1.63-0.45,6.42-2.4,8.28c-0.12-0.08-0.24-0.16-0.36-0.24C1039.88,610.2,1042.76,605.33,1043.76,603.84z"/>
	<path class="st0" d="M1053.36,601.92c0.28,0.08,0.56,0.16,0.84,0.24C1053.94,601.95,1053.88,601.94,1053.36,601.92z"/>
	<path class="st0" d="M1034.4,613.08c0.28,0,0.56,0,0.84,0c0.56-0.3,2.32-8.64,2.16-9.24c-0.29-0.65-0.71-0.99-1.56-1.08
		C1033.97,604.24,1032.87,612.36,1034.4,613.08z"/>
	<path class="st0" d="M1024.8,606.12c-0.2,0.04-0.4,0.08-0.6,0.12C1024.71,606.48,1024.73,606.21,1024.8,606.12z"/>
	<path class="st0" d="M1027.8,606.48c0.36,0.2,0.72,0.4,1.08,0.6C1028.58,606.72,1028.38,606.59,1027.8,606.48z"/>
	<path class="st0" d="M1023.36,615.72c0.24,0.08,0.48,0.16,0.72,0.24c0-0.04,0-0.08,0-0.12
		C1023.84,615.8,1023.6,615.76,1023.36,615.72z"/>
	<path class="st0" d="M1104.6,625.44c-2.22,0.13-4.15,1.28-6.24,1.92c-0.04-0.04-0.08-0.08-0.12-0.12c0.11-2.19,1.85-3.94,1.2-6.24
		c-0.57-0.4-0.86-0.62-1.92-0.6c-1.52,1.45-1.41,4.38-1.68,7.08c-2.63,0.64-6.43-0.3-8.76,0.24c-0.08,0.04-0.16,0.08-0.24,0.12
		c0,0.28,0,0.56,0,0.84c0.91,0.6,1.85,1.03,3.36,1.08c-0.35-0.18-0.93-0.22-1.2-0.48c1.36,0.46,2.09,0.85,4.08,0.84
		c-0.36-0.04-0.72-0.08-1.08-0.12c0.72,0,1.44,0,2.16,0c-0.36,0.04-0.72,0.08-1.08,0.12c0.64,0.04,1.28,0.08,1.92,0.12
		c-0.16,0-0.32,0-0.48,0c0.36,0.04,0.72,0.08,1.08,0.12l-1.2,7.08c0,0.08,0,0.16,0,0.24c0,0.04,0,0.08,0,0.12
		c0.1,0.39,0.47,0.78,0.84,0.96c0.43,0.16,0.65,0.01,1.08-0.12c0.87-1.49,1.04-8.03,1.68-8.52c-0.11-0.25-0.13-0.3,0.24-0.36
		c2.15-0.36,5.15-0.32,7.44-1.8c0.08-0.36,0.16-0.72,0.24-1.08C1105.59,626.1,1105.34,625.8,1104.6,625.44z M1088.04,629.16
		c0.28,0.04,0.56,0.08,0.84,0.12C1088.5,629.43,1088.34,629.36,1088.04,629.16z"/>
	<path class="st0" d="M1280.28,701.04c-7.02-4.95-14.8-8.71-22.32-13.32c-9.85-6.04-21.16-10.61-32.16-15.48
		c-6.71-2.97-13.14-7.17-19.8-10.08c-3.41-1.49-7.12-2.74-10.68-4.32c-6.04-3.24-12.08-6.48-18.12-9.72
		c-6.11-2.67-12.23-4.94-18.72-7.56c-2.12-0.92-4.24-1.84-6.36-2.76c-1.35-2.77,3-10.89,0.12-12.72c-0.32-0.12-0.64-0.24-0.96-0.36
		c-0.81,0.41-3.58,2.49-3.96,3c-0.32,0.52-0.64,1.04-0.96,1.56c-2.99,2.17-6.41,3.53-9.36,5.76c-0.67,2.94,7.48,13.98,9.12,16.32
		c0.6,0.14,0.82,0.23,1.32,0c1.07-0.4,4.37-10.14,4.32-11.16c0.44,0.12,0.24-0.01,0.48,0.24c0.24-0.13,0.18,0.02,0.12-0.24
		c2.63,0.98,9.19,3.5,12.72,4.92c2.88,1.16,4.82,1.97,7.32,3c0.6,0.16,1.2,0.32,1.8,0.48c6.24,3.32,12.48,6.64,18.72,9.96
		c1.09,0.53,4.13,1.4,4.8,1.92c2.17,1.68,5.46,2.56,8.04,3.72c5.32,2.68,10.64,5.36,15.96,8.04c14.74,6.58,30.15,13.14,42.72,20.88
		c4.12,2.68,8.24,5.36,12.36,8.04c3.04,2.28,5.35,5.03,8.64,7.08c0.36-0.08,0.72-0.16,1.08-0.24c0.2-0.32,0.4-0.64,0.6-0.96
		C1286.22,704.19,1282.71,702.75,1280.28,701.04z"/>
	<path class="st0" d="M1057.32,643.92c1.9-0.09,6.64-3.17,4.44-6.72c-2.01-3.24-6.18-2.1-7.68,0.84c-0.12,0.04-0.24,0.08-0.36,0.12
		c-0.17-1.01,0.28-1.34,0.84-2.04c-0.24,0-0.48,0-0.72,0c0.24-3.16,0.48-6.32,0.72-9.48c-0.28-0.28-0.56-0.56-0.84-0.84
		c-0.36-0.04-0.72-0.08-1.08-0.12c-0.28,0.2-0.56,0.4-0.84,0.6c-0.64,2.86,0.69,5.54,0,9c-0.19,0.94-0.31,3.25-0.36,3.36
		c-0.41,0.83-1.73,1.56-1.32,2.88c0.2,0.36,0.4,0.72,0.6,1.08c0.07,0.52-0.43,0.97-0.24,1.68c0.24,0.36,0.48,0.72,0.72,1.08
		c0.32,0,0.64,0,0.96,0c0.32-0.32,0.64-0.64,0.96-0.96c0.02-0.06,0.28-0.14,0.67-0.24c-0.22,0-0.45,0-0.67,0
		c0.08-0.04,0.16-0.08,0.24-0.12c0.23,0.02,0.45,0.04,0.68,0.06c1.47-0.34,4.29-0.81,5.08-1.02c-0.52,0.24-1.04,0.48-1.56,0.72
		C1057.48,643.84,1057.4,643.88,1057.32,643.92z M1054.92,641.4c-0.04-0.08-0.08-0.16-0.12-0.24c0.68-1.08,1.36-2.16,2.04-3.24
		c0.48-0.16,0.96-0.32,1.44-0.48c0.32,0.08,0.64,0.16,0.96,0.24c0.2,0.36,0.21,0.41,0.24,0.72
		C1060.8,640.07,1056.73,641.51,1054.92,641.4z"/>
	<path class="st0" d="M1065.12,643.68c-0.84-0.48-1.55-1.46-2.04-2.28c-0.32-0.04-0.64-0.08-0.96-0.12
		c-1.21,1.98,1.7,3.52,1.92,4.56c0.44,0.16,0.88,0.32,1.32,0.48c-0.28-0.08-0.56-0.16-0.84-0.24c0.34,0.35,0.71,0.51,1.32,0.6
		c0.8-0.37,1.29-0.73,1.92-1.2c0.86-3.79-2.09-8.16-1.2-12.84c0.23-1.19,0.15-2.32,0.96-3.48c0.4-0.44,0.8-0.88,1.2-1.32
		c0-0.36,0-0.72,0-1.08c-0.24-0.28-0.48-0.56-0.72-0.84c-0.4-0.04-0.8-0.08-1.2-0.12c-6.32,5.07,0.69,13.3-1.2,17.52
		C1065.37,643.68,1065.58,643.52,1065.12,643.68z"/>
	<path class="st0" d="M1035.48,638.88c-0.2-0.85-0.24-2.02-1.2-2.4c-1.36-0.52-5.45,1.65-6.72,2.16c-0.12,0-0.24,0-0.36,0
		c0.2-2.24,0.4-4.48,0.6-6.72c0.49-1.53,1.66-2.69,1.08-4.68c-0.55-0.36-0.83-0.59-1.8-0.6c-2.34,2.23-2.17,8.5-2.16,12.6
		c-1.27,0.73-2.79,0.12-3.96,0.6c0,0.36,0,0.72,0,1.08c-0.13,0.69,1.2,1.44,1.92,1.68c0.24,0,0.48,0,0.72,0
		c-0.44-0.16-0.88-0.32-1.32-0.48c-0.08,0-0.16,0-0.24,0c0-0.04,0-0.08,0-0.12c0.72,0.16,1.44,0.32,2.16,0.48
		c-0.18,0.18-1.21,2.54-0.96,3.36c0.24,0.24,0.48,0.48,0.72,0.72c0.16,0.04,0.32,0.08,0.48,0.12c2.2-1.03,2.03-3.46,2.64-5.28
		c2.28-0.64,4.56-1.28,6.84-1.92c-0.32,0.16-0.64,0.32-0.96,0.48C1033.99,640.45,1034.55,638.77,1035.48,638.88z"/>
	<path class="st0" d="M973.8,649.92c-1.74-3.69-5.5-1.06-7.08,0.96c-0.04,0-0.08,0-0.12,0c-0.08-0.81-0.32-1.16-0.96-1.92
		c-1.66-0.46-2.72,0.23-3.48,1.32c-0.12,0-0.24,0-0.36,0c-1.56-2.48-3.53-7.22-1.08-9.84c0.69-0.73,2.27-2.08,2.52-2.76
		c0.36,0.12,0.72,0.24,1.08,0.36c0.4-0.16,0.8-0.32,1.2-0.48c0.86-0.58,0.52-1.5,0.84-1.92c-0.26-1.18-1.05-1.48-2.16-1.68
		c-1.2,0.82-2.38,1.06-3.36,2.04c-0.16,0.4-0.32,0.8-0.48,1.2c-4.31,5.35-2.85,10.03,0,15.36c-2.1,2-5.28,3.45-5.52,6.6
		c2.51,2.71,6.86,0.86,7.68-2.28c0.32-1.23-0.3-3.3,0.24-4.32c0.01,0.03,1.09-0.85,1.56-0.96c-0.2,0.18,0.16,0.12,0.24,0.12
		c-0.17,1.46,0.75,2.21,0.36,4.32c-0.47,2.56-2.29,6.99-1.08,10.08c0.12,0.08,0.24,0.16,0.36,0.24c3.04,0.01,3.09-6.93,3.24-9.72
		C971.71,656.79,975.5,653.54,973.8,649.92z M958.32,658.2c-0.28,0-0.56,0-0.84,0c-0.04-0.08-0.08-0.16-0.12-0.24
		c0.92-0.84,1.84-1.68,2.76-2.52C960.71,656.8,959.22,657.87,958.32,658.2z M969.12,654.36c-2.44,0.1-0.02-3.4,1.2-3.6
		c-0.04-0.08-0.08-0.16-0.12-0.24c0.4,0.08,0.8,0.16,1.2,0.24C971.24,652.78,970.98,653.69,969.12,654.36z"/>
	<path class="st0" d="M1036.08,642c0.51,2.83,1.17,5.62,3.96,6.84c3.83-0.1,5.86-6.21,6.48-8.88c0.27-1.15,1.22-4.71-0.48-5.4
		c-0.2-0.04-0.4-0.08-0.6-0.12c-1.02,1.13-0.29,1.92-0.6,3.6c-0.54,2.89-1.81,6.77-4.2,7.8c-0.2,0.04-0.4,0.08-0.6,0.12
		c-3.56-3.36,0.37-5.69,0.12-8.88c-0.32-0.2-0.64-0.4-0.96-0.6C1037.09,636.45,1035.67,639.72,1036.08,642z M1040.88,648.48
		c-0.55,0.27-1.24,0.07-1.56-0.24C1039.84,648.32,1040.36,648.4,1040.88,648.48z"/>
	<path class="st0" d="M1058.04,637.92c0.08,0,0.16,0,0.24,0c-0.04-0.08-0.08-0.16-0.12-0.24
		C1058.12,637.76,1058.08,637.84,1058.04,637.92z"/>
	<path class="st0" d="M1057.08,637.92c0.28,0,0.56,0,0.84,0c-0.2-0.04-0.4-0.08-0.6-0.12
		C1057.24,637.84,1057.16,637.88,1057.08,637.92z"/>
	<path class="st0" d="M1058.88,637.92c0-0.04,0-0.08,0-0.12c-0.16,0-0.32,0-0.48,0C1058.56,637.84,1058.72,637.88,1058.88,637.92z"
		/>
	<path class="st0" d="M1032.96,640.2c0-0.04,0-0.08,0-0.12c-0.12,0-0.24,0-0.36,0c-0.12,0.08-0.24,0.16-0.36,0.24
		C1032.48,640.28,1032.72,640.24,1032.96,640.2z"/>
	<path class="st0" d="M1031.4,640.56c0.28-0.04,0.56-0.08,0.84-0.12c0-0.04,0-0.08,0-0.12c-0.16,0-0.32,0-0.48,0
		C1031.64,640.4,1031.52,640.48,1031.4,640.56z"/>
	<path class="st0" d="M1031.4,640.68c0-0.04,0-0.08,0-0.12c-0.16,0-0.32,0-0.48,0C1031.08,640.6,1031.24,640.64,1031.4,640.68z"/>
	<path class="st0" d="M1030.92,640.8c-0.2-0.04-0.4-0.08-0.6-0.12c-0.08,0.04-0.16,0.08-0.24,0.12
		C1030.36,640.8,1030.64,640.8,1030.92,640.8z"/>
	<path class="st0" d="M1029.84,640.8c-0.12,0.08-0.24,0.16-0.36,0.24C1029.78,641.24,1030.02,641.01,1029.84,640.8z"/>
	<path class="st0" d="M1029.48,641.16c0-0.04,0-0.08,0-0.12c-0.16,0-0.32,0-0.48,0C1029.16,641.08,1029.32,641.12,1029.48,641.16z"
		/>
	<path class="st0" d="M1028.64,641.4c-0.2-0.04-0.4-0.08-0.6-0.12C1027.92,641.71,1028.03,641.44,1028.64,641.4z"/>
	<path class="st0" d="M1057.32,644.04c-0.24-0.04-0.48-0.08-0.72-0.12c-0.32,0.04-0.64,0.08-0.96,0.12
		C1056.2,644.04,1056.76,644.04,1057.32,644.04z"/>
	<path class="st0" d="M1054.68,644.16c-0.21-0.02-0.43-0.04-0.64-0.06c-0.09,0.02-0.17,0.04-0.24,0.06
		C1054.09,644.16,1054.38,644.16,1054.68,644.16z"/>
	<path class="st0" d="M980.4,652.44c-0.77-0.58-1.57-0.71-2.88-1.08c-2.88,2.08-4.89,5.55-2.64,9.48c0.56,0.98,1.88,1.22,2.64,1.8
		C982.44,662.19,980.02,656.11,980.4,652.44z M977.76,659.76c-0.04,0-0.08,0-0.12,0c-1.36-0.99-1.4-2.84-0.72-4.56
		c0.24-0.16,0.48-0.32,0.72-0.48c0.16,0.04,0.32,0.08,0.48,0.12C979.22,656.34,979.37,658.63,977.76,659.76z"/>
	<path class="st0" d="M990.6,657.84c1.17,0.08,1.96,0.38,2.76,0.84c1.59,0.93,1.46,6.1,0.84,7.8c0.36,0.43,0.96,0.54,1.32,0.96
		c0.75-0.08,0.8-0.26,1.32-0.48c0.51-2.21,4.37-7.04,6.6-7.56c-0.03,6.09,2.52,10.42,8.28,7.08c2.99-1.73,4.67-5.44,7.32-7.08
		c0.24,0,0.48,0,0.72,0c0.44,0.72,1.08,6.45-0.48,7.44c-0.92,0.58-1.94-0.6-2.88-0.72c-0.12,0.12-0.24,0.24-0.36,0.36
		c0.12,1.58,2.24,4.31,4.56,2.76c2.29-1.53,2.9-9.59,0.84-12.24c-6.16-1.43-7.61,9.29-14.4,7.68c-0.39-2.36-0.82-6.33-2.04-8.04
		c-3.69-0.1-5.32,3.54-8.04,4.92c-0.04,0-0.08,0-0.12,0c0.47-4.15-4.07-7.22-7.92-7.08c-0.98-0.92-1.78-1.04-3.36-1.08
		c-3.49,2.53-4.57,6.04-1.44,9.84c0.66,0.8,1.06,1.67,2.16,2.04C990.24,666.6,991.8,661.67,990.6,657.84z M988.08,662.64
		c-0.24,0.08-0.48,0.16-0.72,0.24c-0.7,0.19-1.09-0.34-1.92-0.48c-0.33-2.19-1.95-4.89,0.96-6.24c0.83,0.31,1.61,0.57,1.56,1.44
		c0.12,0.9-0.51,1.4-0.6,2.52c0.6,0.34,0.85,0.22,1.2,0.84C988.4,661.52,988.24,662.08,988.08,662.64z"/>
	<path class="st0" d="M1064.76,728.04c-0.25-0.59-0.44-0.8-0.84-1.2c-0.32-0.04-0.64-0.08-0.96-0.12c-0.28,0.2-0.56,0.4-0.84,0.6
		c-0.86,3.32-0.64,7.11-0.6,10.44c-0.74,0.22-1.02,0.42-1.32,1.08c0.32,0.62,0.65,1.01,1.44,0.84c-0.27,1.53,0.92,4.68,2.04,5.4
		c0.2-0.04,0.4-0.08,0.6-0.12c0.16-0.16,0.32-0.32,0.48-0.48c-0.59-0.74-0.98-3.19-0.96-4.8c2.49,0.7,6.36,0.54,7.92-0.6
		c0-0.16,0-0.32,0-0.48c0.13-0.65-0.22-0.98-0.72-1.32c-2.4,0.12-4.8,0.24-7.2,0.36C1062.77,734.8,1064.45,728.72,1064.76,728.04z"
		/>
	<path class="st0" d="M1010.64,749.28c0.73,0.31,1.65,3.25,3.12,4.2c1.85,0.12,1.79-1.23,2.64-2.04c0.05-0.33,0-0.3,0.36-0.6
		c0.04,0.2,0.08,0.4,0.12,0.6c0.4,0.08,0.8,0.16,1.2,0.24c0.35-0.27,0.28-0.2,0.6-0.36c0.36-1.72,0.72-3.44,1.08-5.16
		c0.48-1.52,0.96-3.04,1.44-4.56c0.12,0,0.24,0,0.36,0c-0.16,1.32-0.02,6.75,1.8,7.08c2.21-1.63,2.89-5.13,4.08-7.44
		c0.23-0.36,0.02-0.2,0.48-0.36c0,0.08,0,0.16,0,0.24c1.52,1.9,0.46,7.51,3.96,8.4c0.78,0.23,1.84-0.68,2.16-1.32
		c0.12,0,0.24,0,0.36,0c-0.44,2.3-1.08,8.2,0.36,9.24c1-0.05,1.22-0.39,1.56-0.84c0-1.24,0-2.48,0-3.72
		c0.76-4.06-0.09-7.79,1.2-10.8c0.44-0.6,2.28-0.53,2.88-0.96c2.09-1.49,4.52-7.33,1.56-9.48c-0.6-0.04-1.2-0.08-1.8-0.12
		c-1.29,1.39-2.64,3.26-3.12,5.4c-0.63,0.32-1.35-0.41-2.16,0c-0.9,0.67,0.61,5.97-0.36,8.52c-0.8,0.56-1.6,1.12-2.4,1.68
		c-2.49-2.54-0.7-9.28-3.96-11.04c-0.2,0-0.4,0-0.6,0c-1.4,1.35-2.56,5.22-3.24,7.08c-0.12,0.08-0.24,0.16-0.36,0.24
		c-0.22-1.99,0.26-5.55-1.44-6.36c-0.43-0.2-0.89-0.1-1.2,0.12c-0.96,0.56-1.72,2.82-2.04,3.96c-0.48-0.36-0.96-0.72-1.44-1.08
		c-0.28,0.04-0.56,0.08-0.84,0.12c0,0.04,0,0.08,0,0.12c0,0-0.52,9.6-0.36,10.44c-0.28-0.12-0.56-0.24-0.84-0.36
		c-0.48,0.28-0.96,0.56-1.44,0.84c-2.86-2.27-0.21-7.75-1.2-10.08c-0.41-0.85-0.91-0.91-1.92-0.84c-4.49,0.29-3.59,1.52-6.24,3.36
		c-1.44,0.35-2.58-0.54-4.32-0.6c-0.91-1.97,0.38-4.16,0-6.24c-0.96-0.67-2.03-0.8-2.64,0.36c-0.68,1.7-0.1,5.37-0.36,6.72
		c-1.03,0.18-1.19,0.55-2.04,1.08c-0.08,0.44-0.16,0.88-0.24,1.32c0.2,0.24,0.4,0.48,0.6,0.72c0.12,0.12,0.24,0.24,0.36,0.36
		c0.51-0.3,0.66-0.43,0.84-1.08c0.41-0.2,0.96-0.26,1.68-0.24c-0.35,3.13-0.02,9.54,1.08,11.88c0.41-0.11,1-0.91,1.2-1.44
		c0.26-0.15-0.31-9.52-0.72-10.92c0.76-0.51,2.76,0.42,3.6,0.36c-0.36,3.01,0.4,5.62,2.52,7.08
		C1009.06,753.48,1010.75,750.54,1010.64,749.28z M1040.76,733.68c1.32,1.63-0.63,4.88-2.04,5.52c-0.2-0.04-0.4-0.08-0.6-0.12
		C1038.66,737.66,1039.42,735.01,1040.76,733.68z M1007.28,750.6c-2.58-2.61,0.24-5.1,0.48-7.08c0.8-0.2,1.6-0.4,2.4-0.6
		c0.49,0.7-1.97,7.07-2.76,7.68C1007.36,750.6,1007.32,750.6,1007.28,750.6z"/>
	<path class="st0" d="M1267.08,736.44c-7.24-0.08-14.48-0.16-21.72-0.24c-9.62-1.08-20.25,1.82-30.12,1.56
		c-5.96,0.24-11.92,0.48-17.88,0.72c-5.48,0.28-10.96,0.56-16.44,0.84c-7.32,0.36-14.64,0.72-21.96,1.08
		c-6.28,0.52-12.56,1.04-18.84,1.56c-0.22-1.88,0.85-5.81-0.24-8.28c-0.24-0.5-0.47-0.61-0.96-0.84c-2.39,0.07-5.29,3.94-7.8,2.4
		c-0.86,0.74-3.76,1.78-3.96,3.36c-3.43,1.15-7.23,4.79-10.56,7.2c0.04,0.28,0.08,0.56,0.12,0.84c-0.03,1.58,4.4,1.91,5.88,2.52
		c1.76,0.73,2.82,2.09,4.32,3c2.71,1.65,4.12,1.7,6,2.64c0.48,0.24,0.42-0.29,0.48,0.24c0.49,0.02,0.35,0.09,0.48-0.12
		c0.4,0.17,0.29-0.05,0.24,0.36c0.2,0.04,0.4,0.08,0.6,0.12c-0.08-0.12-0.16-0.24-0.24-0.36c0.2,0.04,0.4,0.08,0.6,0.12
		c-0.22,0.24,0,0.09-0.36,0.24c0.73,0.66,1.73,0.92,2.16,0.36c-0.08,0.04-0.16,0.08-0.24,0.12c0.04-0.12,0.08-0.24,0.12-0.36
		c0.68,0.37,0.3,0,1.2,0.36c-0.08,0-0.16,0-0.24,0c0.3,0.23,0,0.22,0.36,0.12c-0.32,0.44-0.54,0.3-1.32,0.24
		c0.56,0.24,1.12,0.48,1.68,0.72c-0.11-0.46-0.08-0.49,0.12-0.84c-0.2-0.28-0.4-0.56-0.6-0.84c0,0-0.84,0-1.32,0
		c-0.08-0.16-0.16-0.32-0.24-0.48c0.5,0.17,0.62,0.29,0.96-0.12c0.07-0.1,0.14-0.28,0.12-1.08c0.12-0.04,0.24-0.08,0.36-0.12
		c-0.08,0.2-0.16,0.4-0.24,0.6c0.08,0.04,0.16,0.08,0.24,0.12c1.1-2.47,2.22-5.12,2.16-10.56c10.2-0.8,20.4-1.6,30.6-2.4
		c8.2-0.4,16.4-0.8,24.6-1.2c4.16-0.08,8.32-0.16,12.48-0.24c10.24-0.6,20.48-1.2,30.72-1.8c4.76,0.08,9.52,0.16,14.28,0.24
		c5.06-0.33,12.24-0.35,17.28,0.72c1.58,0.34,1.97,1.51,3.6,1.56c0.2-0.24,0.4-0.48,0.6-0.72
		C1275.32,736.79,1269.78,736.44,1267.08,736.44z M1134.6,738.96c-0.04,0-0.08,0-0.12,0c0-0.28,0-0.56,0-0.84
		c0.4-0.12,0.8-0.24,1.2-0.36c0.04,0,0.08,0,0.12,0C1135.59,738.45,1135.38,738.55,1134.6,738.96z M1135.8,755.4
		c0.36,0.16,0.14,0,0.36,0.24C1136.04,755.56,1135.92,755.48,1135.8,755.4z"/>
	<path class="st0" d="M992.76,740.64c-0.09-0.19,0.71-0.77,1.2-1.08c0-0.16,0-0.32,0-0.48c0.18-0.85-0.33-1.46-1.44-1.44
		c-0.71,0.53-1.7,0.93-2.04,1.8c-0.98,2.52,1.81,10.84,2.4,13.2c0.08,0.92,0.16,1.84,0.24,2.76c0.2,0.87,0.62,3.07,0.12,4.2
		c0,0.08,0,0.16,0,0.24c-0.04,0-0.08,0-0.12,0c-1.49-0.95-1.55-4.01-3.36-4.44c-0.08,0.16-0.16,0.32-0.24,0.48
		c-0.53,1.33,1.59,6.01,3.6,6.84c1.09-0.11,1.28-0.58,1.92-1.08c0.82-4.35-0.7-11.54-1.68-15.96
		C993.02,744.14,992.28,742.03,992.76,740.64z"/>
	<path class="st0" d="M1126.8,738.6c-0.04-0.08-0.08-0.16-0.12-0.24c-0.04,0.08-0.08,0.16-0.12,0.24
		C1126.64,738.6,1126.72,738.6,1126.8,738.6z"/>
	<path class="st0" d="M1304.76,740.4c-0.08,0-0.16,0-0.24,0c0,0.08,0,0.16,0,0.24C1304.6,740.56,1304.68,740.48,1304.76,740.4z"/>
	<polygon class="st0" points="1358.89,816.84 1358.88,816.84 1358.88,816.84 	"/>
	<path class="st0" d="M1358.89,816.84c0.15,0.06,0.34,0.1,0.71,0.12C1359.36,816.92,1359.12,816.88,1358.89,816.84z"/>
	<path class="st0" d="M1357.92,813.72c-6.87-2.07-10.93-7.32-12.84-14.28c-2.28-8.3,0.64-14.57,1.44-20.28
		c0.42-3.03-2.33-8.56-3.84-9.6c-1.89-1.29-4.66,0.51-6.6,0.12c-1.54-0.31-3.98-0.53-5.64-0.12c-0.6-0.8-1.2-1.6-1.8-2.4
		c0-0.04,0-0.08,0-0.12c0.32-0.08,0.64-0.16,0.96-0.24c0,0.04,0,0.08,0,0.12c0.92,0.04,1.84,0.08,2.76,0.12
		c-0.42-0.26,3.5-0.33,4.8-0.36c-0.44,0.04-0.88,0.08-1.32,0.12c0.49-0.01,0.97-0.03,1.46-0.04c0.03-0.07,0.07-0.13,0.1-0.2
		c0.08,0,0.16,0,0.24,0c-0.1,0.07-0.2,0.13-0.29,0.2c0.86-0.03,1.72-0.05,2.57-0.08c-0.64,0-1.28,0-1.92,0
		c0.7-0.33,1.38-0.34,2.04-0.34c0-0.01,0-0.01,0-0.02c0.12-0.04,0.24-0.08,0.36-0.12c0.12,0,0.24,0,0.36,0c0,0.04,0,0.08,0,0.12
		c0.53-0.03,1.04-0.14,1.56-0.48c1.52-0.99,2.99-8.58,0.96-9.96c-6.01-4.07-22.74-0.47-25.68,4.08c-0.83,1.28-4.4,3.92-3,6.36
		c0.4,1.27,5.26,1.98,8.28,1.32c-0.08,0.04-0.16,0.08-0.24,0.12c0.26,0.58-0.92,1.85-1.68,2.16c-3.25,0.82-10.66-1.33-13.44-2.28
		c-0.73-0.25-3.49-0.86-3.6-1.56c-0.05-0.29,3.71-4.05,4.2-4.44c3.07-2.43,6.37-4.2,9.84-6.36c1.9-1.19,3.77-3.1,6.48-3.36
		c-0.12-0.08-0.24-0.16-0.36-0.24c0.44,0,0.88,0,1.32,0c-0.12-0.04-0.24-0.08-0.36-0.12c0-0.04,0-0.08,0-0.12
		c2.22,0.14,2.21-1,5.4-1.2c0-0.04,0-0.08,0-0.12c-0.72,0.12-1.44,0.24-2.16,0.36c1.16-0.28,2.32-0.56,3.48-0.84
		c-0.44,0.12-0.88,0.24-1.32,0.36c0.97,0.68,3.12-0.96,3.12-0.96c0.16,0.04,0.32,0.08,0.48,0.12c-0.12-0.08-0.24-0.16-0.36-0.24
		c0.56-0.12,1.12-0.24,1.68-0.36c-0.25,0.2-0.24,0.19-0.72,0.24c0.52,0,1.04,0,1.56,0c0-0.04,0-0.08,0-0.12c-0.24,0-0.48,0-0.72,0
		c1.76-1.29,5.26,0.03,7.56-0.36c1.72-0.36,3.44-0.72,5.16-1.08c-0.4,0.16-0.8,0.32-1.2,0.48c1.46,0.49,7.28-3.71,6.48-6.24
		c-0.3-0.65-0.72-0.86-1.56-0.96c-2.21,1.25-2.9,3.48-5.64,4.32c-3.4,1.04-8.11,0.17-12.24,0.96c-3.31,0.64-6.68,2.21-9.72,3.12
		c-0.92,0.12-1.84,0.24-2.76,0.36c-1.49,0.5-2.5,1.64-3.72,2.4c-3.13,1.96-6.09,3.93-9,6c-1.8,1.28-9.17,7.01-8.64,9.36
		c-0.13,1.41,2.77,1.93,4.08,2.4c2.6,0.92,5.2,1.84,7.8,2.76c1.57,0.37,3.42,0.18,5.04,0.84c-0.16,0-0.32,0-0.48,0
		c0.7,0.43,1.42,0.34,1.92,0.48c-0.89,2.97-0.73,12.24,0.84,13.44c0.78,0.59,6.14,0.85,7.2,0.72c0,0.04,0,0.08,0,0.12
		c-0.16,0-0.32,0-0.48,0c1.8,0.9,3.78-0.55,4.44-1.32c0.2-1.28,0.4-2.56,0.6-3.84c-0.49-3.65,3.43-5.81,2.04-9.96
		c0.74,0.44,1.76,0.11,2.33,0.15c-0.01-0.01-0.03-0.02-0.05-0.03c0.03,0.01,0.06,0.02,0.09,0.03c-0.02,0-0.03,0-0.05,0
		c0.51,0.39,2.11,0.25,2.95,0.21c-0.32-0.04-0.64-0.08-0.96-0.12c0.7-0.35,2.32-0.35,3,0c3.42,1.32,2.94,5.83,1.8,11.16
		c-0.12,1.28-0.24,2.56-0.36,3.84c-0.38,1.36-0.89,4.3-0.48,5.76c0.32,2.2,0.64,4.4,0.96,6.6c0.8,2.08,1.6,4.16,2.4,6.24
		c1.7,1.55,3.32,4.59,5.28,6.24c2.05,1.72,3.5,1.98,5.16,2.64c0.41,0.16,1.06,1.05,1.92,0.96c0.21,0.17,0.37,0.15,0.12,0.24
		c0.48,0.24,0.41-0.21,0.48,0.24c0.65-0.02,0.76,0.15,0.6-0.24c0.22,0.1,0.34,0.18,0.48,0.24c0.4,0,0.8,0,1.2,0
		c-0.12,0.08-0.24,0.16-0.36,0.24c0.85,0.04,1.32-0.01,1.68,0.48c0.99-0.23,2.03-0.88,2.16-1.56c0.61-0.55-0.05-1.61-0.48-2.16
		C1361.45,813.46,1359.76,814.28,1357.92,813.72z M1321.44,775.08c-0.04-0.04-0.08-0.08-0.12-0.12c0.04-0.12,0.08-0.24,0.12-0.36
		c0.04,0.16,0.08,0.32,0.12,0.48C1321.52,775.08,1321.48,775.08,1321.44,775.08z M1330.92,766.92c0.04-0.08,0.08-0.16,0.12-0.24
		c0.16,0.08,0.32,0.16,0.48,0.24C1331.32,766.92,1331.12,766.92,1330.92,766.92z M1318.32,764.28c-0.04-0.24-0.08-0.48-0.12-0.72
		c0.84-1,1.68-2,2.52-3c1.9-1.31,4.65-2.18,6.36-2.28c-0.16-0.04-0.32-0.08-0.48-0.12c0-0.04,0-0.08,0-0.12c0.16,0,0.32,0,0.48,0
		c0.16,0.04,0.32,0.08,0.48,0.12c0-0.04,0-0.08,0-0.12c0.2,0,0.4,0,0.6,0c-0.16-0.04-0.32-0.08-0.48-0.12
		c0.32-0.08,0.64-0.16,0.96-0.24c-0.12,0.04-0.24,0.08-0.36,0.12c0.68-0.08,1.36-0.16,2.04-0.24c-0.16-0.04-0.32-0.08-0.48-0.12
		c0-0.04,0-0.08,0-0.12c0.28-0.04,0.56-0.08,0.84-0.12c0,0.04,0,0.08,0,0.12c-0.12,0.04-0.24,0.08-0.36,0.12
		c0.69-0.05,0.95-0.16,1.68-0.48c2.49,0.46,6.57-0.05,8.52,1.32c0.91,0.68,0.16,3.33-0.36,4.56
		C1334.7,764.36,1324.27,764.34,1318.32,764.28z"/>
	<path class="st0" d="M1363.08,746.52c0.44-0.04,0.88-0.08,1.32-0.12c0.79-1.26-0.2-2.73-0.72-4.44c0.32-0.93-0.65-1.41-1.8-1.32
		c-0.08,0.04-0.16,0.08-0.24,0.12C1360.44,742.67,1361.63,745.72,1363.08,746.52z"/>
	<path class="st0" d="M1373.28,741.12c-0.48-0.16-0.96-0.32-1.44-0.48c-1.71,1.02-2.69,1.97-2.16,4.2c0.43,0.26,0.62,0.38,1.2,0.24
		C1371.99,744.67,1373.5,742.2,1373.28,741.12z"/>
	<path class="st0" d="M1367.76,752.64c0.26-0.72,1.64-4.88-0.12-5.64c-0.36-0.04-0.72-0.08-1.08-0.12
		c-0.08,0.04-0.16,0.08-0.24,0.12c-0.93,1.61-0.75,4.79-0.24,5.88C1366.81,753.03,1367.21,752.91,1367.76,752.64z"/>
	<path class="st0" d="M1358.16,751.68c0.48,0.36,0.66,0.6,1.44,0.72c0.24-0.16,0.48-0.32,0.72-0.48c0.26-1.62-0.36-2.82-1.44-4.2
		c-0.6-0.08-1.2-0.16-1.8-0.24c-0.53,0.42-0.8,0.46-0.72,1.2C1356.36,748.68,1357.86,750.6,1358.16,751.68z"/>
	<path class="st0" d="M1346.64,748.08c-0.2-0.04-0.4-0.08-0.6-0.12c-0.6,0.12-1.2,0.24-1.8,0.36
		C1345.04,748.24,1345.84,748.16,1346.64,748.08z"/>
	<path class="st0" d="M1344.24,748.56c0-0.04,0-0.08,0-0.12c-0.16-0.04-0.32-0.08-0.48-0.12c-0.28,0.04-0.56,0.08-0.84,0.12
		C1343.36,748.48,1343.8,748.52,1344.24,748.56z"/>
	<path class="st0" d="M1337.28,748.68c-0.08-0.08-0.16-0.16-0.24-0.24c-0.28,0.04-0.56,0.08-0.84,0.12
		C1336.56,748.6,1336.92,748.64,1337.28,748.68z"/>
	<path class="st0" d="M1340.4,748.44c-0.12,0-0.24,0-0.36,0c0.04,0.08,0.08,0.16,0.12,0.24
		C1340.24,748.6,1340.32,748.52,1340.4,748.44z"/>
	<path class="st0" d="M1342.32,748.68c-0.24-0.17-1.25-0.11-1.8-0.24C1340.25,748.83,1341.82,748.69,1342.32,748.68z"/>
	<path class="st0" d="M1342.68,748.44c-0.08,0.04-0.16,0.08-0.24,0.12C1342.7,748.63,1342.6,748.55,1342.68,748.44z"/>
	<path class="st0" d="M1351.8,755.76c0.53-0.02,0.68-0.05,0.96-0.24c0.99-0.58,0.93-3.99,0.12-5.52c-0.2-0.24-0.4-0.48-0.6-0.72
		c-0.36-0.04-0.72-0.08-1.08-0.12c-0.28,0.28-0.56,0.56-0.84,0.84C1349.73,751.48,1350.81,755.12,1351.8,755.76z"/>
	<path class="st0" d="M1369.56,753.12c-0.44-0.08-0.88-0.16-1.32-0.24c-1.33,1.07-1.44,2.66-1.68,4.2c0.24,0.32,0.48,0.64,0.72,0.96
		c0.2,0.04,0.4,0.08,0.6,0.12c1.24-0.81,2.54-2.69,2.04-4.44C1369.8,753.52,1369.68,753.32,1369.56,753.12z"/>
	<path class="st0" d="M1086.96,778.56c-2.39-0.86-3.18-2.36-4.44-4.32c-0.06-3.42,3.76-6.97,2.64-11.16
		c-0.24-0.16-0.48-0.32-0.72-0.48c-1.61-0.03-1.99,0.67-2.76,1.44c-2.83,2.84-2.99,7.33-1.44,9.96c-0.58,0.95-1.46,2.35-2.88,2.04
		c-2.07-1.09-1.74-5.3-1.8-7.8c-0.13-4.96,3.52-9.12,3.72-13.8c0.19-0.57-0.18-1.09-0.72-1.32c-0.32-0.04-0.64-0.08-0.96-0.12
		c-1.18,1.15-1.23,4.19-1.8,5.88c-2.21,6.58-4.1,17.25,0.84,19.56c1.79,0.79,3.67-0.93,4.2-1.92c0.04,0,0.08,0,0.12,0
		c0.16,0,0.32,0,0.48,0c-0.3,0.16,0.29,0.24,0.24,0.24c0.3,3.33,8.27,5.98,8.52,0.84c0.04-0.2,0.08-0.4,0.12-0.6
		c-0.08-0.04-0.16-0.08-0.24-0.12C1088.79,777.22,1088.32,778.11,1086.96,778.56z M1081.44,771.48c-0.39-2.38-0.09-3.83,1.56-4.8
		c-0.12-0.04-0.24-0.08-0.36-0.12c0.16,0.04,0.32,0.08,0.48,0.12c-0.48,1.56-0.96,3.12-1.44,4.68
		C1081.6,771.4,1081.52,771.44,1081.44,771.48z"/>
	<path class="st0" d="M1065.6,770.4c-0.04-0.12-0.08-0.24-0.12-0.36c0.44-1.64,0.88-3.28,1.32-4.92c1.29-2.71,2.39-6.13,2.64-9.72
		c-0.08-0.24-0.16-0.48-0.24-0.72c-0.48-0.34-0.63-0.49-1.56-0.48c-1.54,1.91-1.61,4.53-2.52,7.2c-1.3,3.8-2.72,7.75-4.2,11.16
		c-0.58,1.35-1.02,3.06-2.28,3.72c-0.08,0.08-0.16,0.16-0.24,0.24c-1.63-1.57,0.27-7.15,0.36-8.16c0.4-0.16,1.44-0.28,1.68-1.68
		c-0.16-0.28-0.32-0.56-0.48-0.84c-1.12-1.87-4.03,0.29-4.92,0.96c-2-1.43-3.61,0.17-5.64,0.6c0.57-2.91,3.08-5.13,3.48-8.16
		c-0.24-0.48-0.34-0.72-0.84-0.96c-0.28-0.04-0.56-0.08-0.84-0.12c-2.67,2.5-2.63,7.43-4.56,10.68c-0.49,0.82-1.91,1.22-2.52,2.04
		c0.04,0.48,0.08,0.96,0.12,1.44c0.12,0.04,0.24,0.08,0.36,0.12c0.22,0.1,0.05,0.15,0.24,0c0.2,0.08,0.4,0.16,0.6,0.24
		c-0.97,2.55-2.38,8.21-6.12,7.08c-1.27-0.51-1.85-2.05-1.8-3.48c0.6-0.36,1.2-0.72,1.8-1.08c2.12-2.11,4.72-8.58,2.04-10.44
		c-3.76-0.59-3.85,5.58-5.52,7.68c-0.59-0.44-0.91-0.6-1.8-0.84c0.24-1.32,1.23-3.42-0.6-4.2c-1.62-0.7-4.14,1.48-4.8,2.4
		c-2.51,3.48-4.52,10.14-0.96,13.2c1.82-0.26,1.67-1.68,2.88-2.4c-0.08,0.96-0.16,1.92-0.24,2.88c-0.58,2.35-1.08,4.46-2.04,6.24
		c-0.24,0.04-0.48,0.08-0.72,0.12c-1.65-1.25-1.22-4.33-1.2-6.48c-0.16-0.08-0.32-0.16-0.48-0.24c-2.35,1.77-0.82,10.16,2.16,9.36
		c0.58-0.16,2.95-2.2,2.64-2.76c0.35-4,2.87-10.47,3-15.84c0.04-0.08,0.08-0.16,0.12-0.24c0.12,0.04,0.24,0.08,0.36,0.12
		c1.58,0.89,0.94,4.7,2.28,6.6c2.68,3.79,7.99,1.24,8.4-2.28c0.16-0.12,0.32-0.24,0.48-0.36c0.04,0.08,0.08,0.16,0.12,0.24
		c-0.12,0.12-0.03,0.05,0.12,0.12c-0.34,2.14,0.06,4.32,1.32,5.28c0.04,0,0.08,0,0.12,0c1.16-0.83,3.56-4.34,2.52-5.88
		c-0.91,0.46-1.09,1.36-2.04,1.68c-0.56-3.32,0.31-6.58,0.84-8.52c2.05-1.26,2.75-1.46,4.56-1.44c-1.16,2.33-2.48,5.86-1.56,8.52
		c0.2,0.16,0.4,0.32,0.6,0.48c2.11-0.12,2.23-2.54,3.12-3.12c0.03-0.08,0.07-0.23,0.14-0.33c-0.01-0.01-0.01-0.02-0.02-0.03
		c0.01,0,0.02,0.01,0.03,0.01c0.07-0.09,0.17-0.1,0.33,0.11c-0.11-0.04-0.22-0.07-0.33-0.11c-0.01,0.01-0.01,0.01-0.02,0.02
		c0.96,1.39,0.55,3.48,2.5,4.29c2.48,1.3,4.56-5.28,4.56-5.28c0.07-0.28,0.15,0.02,0.12-0.36c0.65,0.41-0.13,4.78,1.08,4.68
		c-0.04,0.12-0.08,0.24-0.12,0.36c0.57,0.33,1.36,1.55,2.28,1.92c2.42,0.97,3.83-1.4,4.44-2.76c0.02,0.04,1.52-1.94,1.44-2.4
		c0.16-0.36,0.32-0.72,0.48-1.08c0.2-1.32,0.4-2.64,0.6-3.96c-0.28-0.88-0.56-1.76-0.84-2.64
		C1068.99,765.5,1067.23,769.09,1065.6,770.4z M1039.92,768.6c0.46,0.18-0.48,2.56-1.32,3.24c0,0.08,0,0.16,0,0.24
		c-0.12,0-0.24,0-0.36,0C1038.8,771.08,1039.36,769.55,1039.92,768.6z M1028.28,779.88c-0.08,0.04-0.16,0.08-0.24,0.12
		c-0.04,0-0.08,0-0.12,0c-0.89-3.77,0.58-6.02,2.28-8.76c0.16,0.04,0.32,0.08,0.48,0.12
		C1029.88,774.2,1029.08,777.04,1028.28,779.88z M1062.6,773.04c0,0.08,0,0.16,0,0.24c-0.04,0-0.08,0-0.12,0
		c0.08-0.2,0.16-0.4,0.24-0.6c0.08,0,0.16,0,0.24,0C1062.84,772.8,1062.72,772.92,1062.6,773.04z M1067.04,777.72
		c-0.88,0.06-1.67-0.07-2.04-0.84c-0.85-1.6,3.59-6.43,4.56-7.8c0.69,0.07,0.52-0.01,0.6,0.36
		C1072.01,770.65,1068.1,777.22,1067.04,777.72z"/>
	<path class="st0" d="M1137.6,754.56c0.04,0,0.08,0,0.12,0c-0.04-0.12-0.08-0.24-0.12-0.36
		C1137.6,754.32,1137.6,754.44,1137.6,754.56z"/>
	<path class="st0" d="M1355.76,756.6c0.04,1.98,0.53,4.74,2.4,5.64c0.36,0.04,0.72,0.08,1.08,0.12c0.08-0.04,0.16-0.08,0.24-0.12
		c0.9-1.45-0.35-4.75-0.84-6.84c-0.48-0.31-0.78-0.53-1.56-0.6c-0.74,0.47-1.15,0.62-1.32,1.68c0.16,0,0.32,0,0.48,0
		C1355.93,756.72,1356.13,756.6,1355.76,756.6z"/>
	<path class="st0" d="M1337.88,757.68c-0.24-0.08-0.48-0.16-0.72-0.24C1337.4,757.69,1337.37,757.64,1337.88,757.68z"/>
	<path class="st0" d="M1364.28,759.24c-0.16,0.08-0.32,0.16-0.48,0.24c-0.08,0.12-0.16,0.24-0.24,0.36c0,0.24,0,0.48,0,0.72
		c-0.21,0.35,0.42,0.31,0.6,0.72c0.55,1.23-1.02,2.72,0,3.36c-0.02,0.81,1.08,0.6,1.8,0.36c0.89-1.39,1-3.89-0.12-5.52
		C1365.32,759.4,1364.8,759.32,1364.28,759.24z"/>
	<path class="st0" d="M1355.28,766.92c0.43,0.16,0.65,0.01,1.08-0.12c0.6-0.9,1.41-5.37-1.44-5.28c-0.2,0.16-0.4,0.32-0.6,0.48
		C1353.82,764.22,1353.71,766.23,1355.28,766.92z M1355.4,761.88c0.11,0.21,0.12,0.03,0,0.24
		C1355.4,762.04,1355.4,761.96,1355.4,761.88z"/>
	<path class="st0" d="M1017.96,764.4c-0.31-0.16-0.42-0.21-0.96-0.24c-2.66,3.64-2.65,9.95-6.84,12c-0.16,0.08-0.32,0.16-0.48,0.24
		c0.22-2.12,2.28-11.11,0-12c-0.36,0-0.72,0-1.08,0c-0.12,0.24-0.24,0.48-0.36,0.72c1.48,2.95-1.59,12.8-0.84,15.48
		c0.55,0.4,0.44,0.53,1.44,0.6c0.43-0.91,1.37-1.83,2.64-1.92c-0.12-0.2-0.24-0.4-0.36-0.6
		C1015.15,775.76,1017.46,768.91,1017.96,764.4z"/>
	<path class="st0" d="M1351.56,770.52c0.36,0,0.72,0,1.08,0c0.81-1.31,0.91-5.83-1.8-5.76c-0.28,0.2-0.56,0.4-0.84,0.6
		C1349.57,767.26,1350.09,769.8,1351.56,770.52z"/>
	<path class="st0" d="M1025.04,779.4c-1.51-0.27-2.28,0.3-3.72,0.36c-1.38-1.86-1.33-3.92-1.32-6.12c2.63-1.28,4.77-3.31,5.88-5.76
		c-0.3-1.02-0.4-1.52-1.2-2.28c-0.48-0.04-0.96-0.08-1.44-0.12c-1.78,1.37-3.54,3.08-4.32,5.4c-0.77,0.52-1.14,0.24-2.16,0.36
		c-0.08,0.16-0.16,0.32-0.24,0.48c-0.37,1.28,0.92,1.61,1.2,2.4c0.5,1.41,0,3.14,0.36,4.08c1.08,2.85,3.93,5.95,6.96,1.8
		C1025.04,779.8,1025.04,779.6,1025.04,779.4z"/>
	<path class="st0" d="M1340.04,766.44c0.24-0.04,0.48-0.08,0.72-0.12c0,0,0,0,0,0c-0.24,0.02-0.48,0.02-0.72,0.02
		C1340.04,766.37,1340.04,766.41,1340.04,766.44z"/>
	<path class="st0" d="M1337.28,766.8c0.02-0.01,0.04-0.03,0.07-0.04c-0.01,0-0.03,0-0.04,0
		C1337.29,766.77,1337.29,766.79,1337.28,766.8z"/>
	<path class="st0" d="M1335.12,767.04c-0.29-0.25-0.28-0.13-0.6-0.24c-0.04,0.08-0.08,0.16-0.12,0.24
		C1334.64,767.04,1334.88,767.04,1335.12,767.04z"/>
	<path class="st0" d="M1361.52,770.4c0.6,1.63,0.49,4.48,2.4,5.28c1.97-0.83,1.09-4.35-0.12-5.88c-0.44-0.08-0.88-0.16-1.32-0.24
		C1362.02,769.87,1361.81,769.91,1361.52,770.4z"/>
	<path class="st0" d="M1358.88,771.96c-0.28-0.49-0.68-0.6-1.32-0.72c-0.99,0.57-1.04,0.92-1.68,1.8c0.16,1.93,0.18,3.7,1.56,4.32
		c0.44-0.04,0.88-0.08,1.32-0.12C1359.2,776.63,1359.76,773.12,1358.88,771.96z"/>
	<path class="st0" d="M1340.52,773.04c0-0.04,0-0.08,0-0.12c-0.16,0-0.32,0-0.48,0C1340.2,772.96,1340.36,773,1340.52,773.04z"/>
	<path class="st0" d="M1352.88,777.72c-0.18,0.48,0.41,1.13,0.48,1.44c0.5,2.24-0.44,3.1,1.32,4.32c0.4-0.2,0.8-0.4,1.2-0.6
		c0.41-1.6,0.42-5.81-2.04-6.12c-0.2,0.08-0.4,0.16-0.6,0.24C1353.12,777.24,1353,777.48,1352.88,777.72z"/>
	<path class="st0" d="M1364.04,780c-0.12,0.08-0.24,0.16-0.36,0.24c-0.42,1.85,0.1,6.46,0.36,7.68c0.63,0.07,0.77,0.03,1.32-0.12
		c1.01-1.36,1-4.79,0.24-7.32C1365.11,780.18,1364.88,780.01,1364.04,780z"/>
	<path class="st0" d="M1353.96,795.72c0.36,0.24,0.51,0.32,0.84,0c1.17,0.22,1.03-5.39-1.92-5.28c0.24-0.42,0.8-5.73,0.24-6.36
		c-0.31-0.54-0.68-0.63-1.56-0.6c-1.84,1.69-1.21,6.81,0.84,7.2C1352.04,792.39,1353.01,795.21,1353.96,795.72z"/>
	<path class="st0" d="M1359.48,791.64c1.65-0.83,1.28-4.14,0-5.88c-0.36-0.08-0.72-0.16-1.08-0.24c-0.28,0.2-0.56,0.4-0.84,0.6
		C1357.35,787.52,1358.2,791.09,1359.48,791.64z"/>
	<path class="st0" d="M1062.12,806.64c-0.2-0.2-0.4-0.4-0.6-0.6c-1.06-2.01,1.72-6.81,3.6-7.56c0.96-0.08,1.92-0.16,2.88-0.24
		c0.76-0.27,0.87-0.71,0.84-1.8c-0.37-0.42-0.5-0.72-1.08-0.96c-2.23-1.07-3.97,1.13-5.28,1.8c-0.12,0.12-0.24,0.24-0.36,0.36
		c-0.04,0-0.08,0-0.12,0c0.06-2.05,3.2-5.94,2.52-7.32c-0.2-0.28-0.4-0.56-0.6-0.84c-0.28,0-0.56,0-0.84,0
		c-1.56,1.36-2.18,4.17-3.12,6.12c-2,3.4-4,6.8-6,10.2c-0.24,0.2-0.48,0.4-0.72,0.6c-0.17-2.95,1.74-10.48-0.6-12.24
		c-2.33-0.44-4.36,2.84-5.04,4.44c-0.64,0.42-1.06,0.16-1.92,0.48c-0.12,0.08-0.24,0.16-0.36,0.24c-0.08,0.75,0.29,0.7,0.24,1.32
		c-0.18,2.26-1.48,4.21-2.16,6.12c0.09,0.78,0.24,1.44,1.08,1.68c0.2,0,0.4,0,0.6,0c1.39-2.05,1.33-5.15,3-7.32
		c0.88-1.28,1.76-2.56,2.64-3.84c0.16-0.04,0.32-0.08,0.48-0.12c0.08,0.04,0.16,0.08,0.24,0.12c-0.55,3.47-0.78,11.4-0.24,13.32
		c0.38,0.24,0.41,0.32,1.08,0.36c1.43-1.38,4-6.05,4.56-6.36c0.24-0.44-0.06-0.2,0.48-0.36c-0.36,3.76-0.7,4.91,0.24,6.84
		c1.33-0.12,1.95-1.05,2.52-1.92c3.92,0.18,8.05-0.19,9-3.36c0-0.04,0-0.08,0-0.12C1066.89,804.67,1064.87,808,1062.12,806.64z"/>
	<path class="st0" d="M1044.24,791.88c-0.26-0.59-0.54-0.87-1.32-0.96c-0.28,0.24-0.56,0.48-0.84,0.72
		c-0.12,1.76-0.24,3.52-0.36,5.28c-0.76,3.81-2.94,10.62-1.44,14.16c0.2,0,0.4,0,0.6,0c1.3-0.71,0.54-3.38,0.96-4.56
		C1042.36,805.08,1045.18,794.93,1044.24,791.88z"/>
	<path class="st0" d="M1363.32,795.36c-0.36-0.04-0.72-0.08-1.08-0.12c-0.12,0.12-0.24,0.24-0.36,0.36
		c-0.31,0.21-1.83,4.63-1.56,5.4c0.28,0.48,0.56,0.96,0.84,1.44c0.24,0,0.48,0,0.72,0c0.72-0.81,2.31-5.91,2.04-6.48
		C1363.72,795.76,1363.52,795.56,1363.32,795.36z"/>
	<path class="st0" d="M1051.32,797.28c-0.16,0-0.32,0-0.48,0c0.16,0.04,0.32,0.08,0.48,0.12
		C1051.32,797.36,1051.32,797.32,1051.32,797.28z"/>
</g>
</svg>
