<?xml version="1.0" encoding="utf-8"?>
<!-- Generator: Adobe Illustrator 26.0.2, SVG Export Plug-In . SVG Version: 6.00 Build 0)  -->
<svg version="1.1" id="Layer_1" xmlns="http://www.w3.org/2000/svg" xmlns:xlink="http://www.w3.org/1999/xlink" x="0px" y="0px"
	 viewBox="0 0 2721.24 1533.72" style="enable-background:new 0 0 2721.24 1533.72;" xml:space="preserve">
<style type="text/css">
	.st0{fill-rule:evenodd;clip-rule:evenodd;fill:#10A86E;}
</style>
<g>
	<path class="st0" d="M2150.28,1218.24c-2.96-2.6-5.92-5.2-8.88-7.8c-0.88-0.48-1.76-0.96-2.64-1.44
		c-4.89-4.74-5.07-12.61-11.4-16.44c-1.76-0.96-3.52-1.92-5.28-2.88c-2.52-0.76-5.04-1.52-7.56-2.28c-2.15-1.16-5.87-2.59-8.4-3.48
		c-2.41-0.85-6.49-0.69-9-1.32c-0.14,0.04-2.28,0.12-2.28,0.12c-1.39-1.04-3.81-0.63-5.64-1.08c-5.74-1.4-12.38-1.39-18.6-2.76
		c-16.16-2.52-32.32-5.04-48.48-7.56c-1.44,0.48-2.88,0.96-4.32,1.44c-4.35,0.87-9.58,2.85-13.92,2.16
		c-9.08-1.52-18.16-3.04-27.24-4.56c-2.92-0.28-5.84-0.56-8.76-0.84c-9.9-1.95-21.16-2.3-30.36-4.68c-2.72,0.75-6.47-1.14-9.36-0.96
		c-3.12-0.08-6.24-0.16-9.36-0.24c-11.57-2.85-20.94-5.56-34.44-5.88c-1.36,0.08-2.72,0.16-4.08,0.24
		c-2.94,0.57-11.19,1.46-13.08,3.84c-4.09,5.15-7.84,10.18-9.6,17.76c-1.48,6.36,1.55,16.62,2.76,21.48
		c1.76,7.1,2.44,14.95,5.04,21.48c2.87,7.22,6.21,13.9,7.92,22.32c3.7,18.22-4.61,38.06,9,48.12c4.15,3.07,8.56,4.45,14.64,5.76
		c1.08,0.12,2.16,0.24,3.24,0.36c5.75-1.83,12.34-3.3,18-5.4c5.12-1.9,9.92-4.45,15.48-6c6.37-1.77,13.5-2.07,21.12-2.52
		c2.52,0.04,5.04,0.08,7.56,0.12c4.92,0.04,9.84,0.08,14.76,0.12c5.72-1.76,11.44-3.52,17.16-5.28c3.32-0.88,6.64-1.76,9.96-2.64
		c5.71-2.06,9.66-6.49,14.16-9.72c2.93-2.11,6.72-4.04,9-6.12c2.07-1.89,5.44-4.1,8.4-4.92c3.37-0.93,9.79,1.72,11.88,2.88
		c8.12,4.49,13.16,11.93,23.88,13.56c5.36,0.32,10.72,0.64,16.08,0.96c3.4,0.28,6.8,0.56,10.2,0.84c4.88,0.32,9.76,0.64,14.64,0.96
		c1.28,0,2.56,0,3.84,0c3.52,0.63,8.93-0.51,12.6-0.12c4.65,0.49,15.7,0.21,19.32-1.08c3.59-1.28,9.51-5.55,10.8-9.12
		C2165.26,1248.49,2158.4,1228.45,2150.28,1218.24z M2113.8,1220.28c0.04,0.04,0.08,0.08,0.12,0.12c-0.04,0.12-0.08,0.24-0.12,0.36
		c-0.04,0-0.08,0-0.12,0C2113.72,1220.6,2113.76,1220.44,2113.8,1220.28z M2113.56,1220.88c0.04,0,0.08,0,0.12,0
		c-0.08,0.16-0.16,0.32-0.24,0.48C2113.48,1221.2,2113.52,1221.04,2113.56,1220.88z M2074.8,1215.72c0.8,0.51,0.84,0.63,1.68,0.36
		c0.04,0,0.08,0,0.12,0c0.1,1.3-0.45,2.1-0.96,3c-0.53-0.15-0.39,0-0.6-0.48C2074.47,1218.06,2074.56,1216.25,2074.8,1215.72z
		 M1964.16,1183.32c0.19-0.48,0.01-1.09,0.48-1.44c0.4-0.25,0.4-0.05,0.84,0.24c0.2-0.32,0.4-0.64,0.6-0.96
		c0.23,0.15,0.11,0.96,0.12,1.56c0.76,0.04,1.52,0.08,2.28,0.12c0.16,0.36,0.32,0.72,0.48,1.08c0,0.28,0,0.56,0,0.84
		c-0.88-0.2-1.76-0.4-2.64-0.6c-0.04,0.04-0.08,0.08-0.12,0.12c0.26,3.09,0.96,6.1,3.12,7.32c1.71-1.29,2.75-3.98,3.96-5.76
		c0.62,0.1,0.62,0.12,0.84,0.6c0.32-0.28,0.64-0.56,0.96-0.84c1.06,1.05,1.54,4.18,1.92,5.76c0.04,0,0.08,0,0.12,0
		c2.07-1.76,2.73-5.42,4.92-6.6c0.62-0.33,1.45-0.12,2.04-0.36c0.94,0.58,2.16,2.35,2.76,3.6c0,0.2,0,0.4,0,0.6
		c-1.39-0.4-2.25-1.78-3.24-2.64c-1.25,0.26-4.4,5.6-4.68,6.96c-0.75,0.53-1.63,0.67-2.4,0.96c-1.25-1.21-1.94-4.1-2.4-6
		c-0.04,0-0.08,0-0.12,0c-0.96,1.52-1.92,3.04-2.88,4.56c-0.46,0.54-1.24,0.59-1.68,1.2c-2.37-0.34-3.2-2.4-4.2-4.08
		c-0.16,0-0.32,0-0.48,0c-1.24,1.2-2.11,2.89-4.44,3C1956.91,1189.32,1960.9,1184.52,1964.16,1183.32z M1964.76,1214.04
		c-0.09,3.97-4.35,4.97-7.56,5.76c0.16,3.93,4.27,4.68,7.56,3.72c-0.32-0.92-0.64-1.84-0.96-2.76c-0.93-4.45,2.54-7.29,6-6.84
		c0.38-1.68,0.02-4.8,0.48-6.6c0.46-0.28,0.45-0.32,1.08-0.24c0.19,0.24,0.16,0.16,0.24,0.6c0.08,0.04,0.16,0.08,0.24,0.12
		c0.12-0.2,0.24-0.4,0.36-0.6c0.12-0.08,0.24-0.16,0.36-0.24c2.05,1.85-0.6,5.55,0.24,7.92c0.53,1.5,0.58,1.03,0.36,2.88
		c0.71,1.7,1.55,2.9,1.68,4.92c-0.67,0.05-0.7,0.12-1.08,0.36c-0.34-0.91-0.98-2.44-1.92-2.76c-1.55,3.42-8.38,7.01-12.96,4.92
		c-1.37-0.63-2.5-2.32-3.24-3.6c-0.16-0.8-0.32-1.6-0.48-2.4C1953.51,1212.54,1962.18,1210.21,1964.76,1214.04z M1943.4,1214.04
		c0.08-1.72,0.16-3.44,0.24-5.16c0.4,0.2,0.8,0.4,1.2,0.6c0.29-0.27,0.27-0.19,0.36-0.72c0.62,1.25-0.25,3.35,0.12,4.44
		c0.04,0.12,0.08,0.24,0.12,0.36c3.02-0.46,6.46-0.4,9.36,0.72c0,0.16,0,0.32,0,0.48c-0.07,0.21-0.22,0.5-0.6,0.72
		c-0.4,0.25-7.06-1.95-8.64-0.48c-0.16,2.8-0.32,5.6-0.48,8.4c-0.32,0.12-0.64,0.24-0.96,0.36c-1.08-1.94-0.73-5.36-0.72-7.92
		c-0.08-0.04-0.16-0.08-0.24-0.12c-0.74,0.35-0.7,0.03-1.44,0.12c-0.12-0.04-0.24-0.08-0.36-0.12
		C1941.67,1214.85,1942.46,1214.28,1943.4,1214.04z M1888.56,1216.68c-0.12-0.08-0.24-0.16-0.36-0.24
		c-0.12,0.32-0.24,0.64-0.36,0.96c-0.16,0.04-0.32,0.08-0.48,0.12c-0.6-3.06-0.35-7.12-0.48-10.8c0.65,0.56,0.99,0.77,1.8,0.6
		C1889.13,1210.5,1888.97,1213.99,1888.56,1216.68z M1889.76,1187.88c-0.04,0-0.08,0-0.12,0c-3.2-2.97-5.44-9.46-4.2-15.6
		c0.12,0.36,0.24,0.72,0.36,1.08c0.55-0.18,0.42-0.22,0.72-0.6c1.76,3.45,0.02,10.95,3.24,13.2c2.29-1.65,1.52-5.19,2.64-8.04
		c0.12-0.08,0.24-0.16,0.36-0.24c0.09,0.46,0.12,0.58,0.36,0.84c0.36-0.34,0.39-0.67,0.36-1.44c1.79,3.63,1.79,9.04,6.36,9.72
		c-0.08-4.21-2.03-7.93-1.56-11.4c0.39-0.13,0.34,0.02,0.6-0.24c0.16,0.04,0.32,0.08,0.48,0.12c0.32,1.32,0.64,2.64,0.96,3.96
		c0.06,0.64-0.41,0.53-0.48,0.84c0.16,0.76,0.32,1.52,0.48,2.28c0.44-0.24,0.2,0.06,0.36-0.48c1.19,1.41,1.12,5.64-0.48,6.72
		c-2.8-0.15-5.75-3.82-6.6-6c-0.12-0.04-0.24-0.08-0.36-0.12C1891.61,1184.43,1892.08,1186.19,1889.76,1187.88z M1903.8,1231.8
		c-0.28,0.26-2.67,0.11-3.6,0.36c-0.24,0.48-0.48,0.96-0.72,1.44c1.55,4.48,5.87,12.58-0.96,14.28c-0.36-0.32-0.72-0.64-1.08-0.96
		c1.04-0.78,2.32-0.38,2.88-1.68c2.77-6.41-7.95-11.19,1.2-15.24c0.84,0.48,1.28,0.72,2.28,0.96
		C1903.45,1231.45,1903.54,1231.18,1903.8,1231.8z M1903.68,1212.84c-0.69,2.67-1.65,4.46-3.6,5.88c-0.12-0.04-0.24-0.08-0.36-0.12
		c-1.42-2.46-2.25-5.58-3-8.76c-0.08-0.04-0.16-0.08-0.24-0.12c-0.14,0.15-3.3,7.93-3.36,8.28c-0.52-0.12-1.04-0.24-1.56-0.36
		c-1.07-2.22-1.02-5.2-0.96-8.16c0.47,0.27,0.16,0,0.12,0.72c0.51,0.17,0.44-0.09,0.72,0.48c0.04,0,0.08,0,0.12,0
		c0.46-0.45,0.32-0.86,0.24-1.68c0.04,0,0.08,0,0.12,0c0.2,1.92,0.4,3.84,0.6,5.76c0.08,0.12,0.16,0.24,0.24,0.36
		c0.04,0,0.08,0,0.12,0c1.07-0.95,2.63-5.78,2.52-7.2c1.06,0.27,1.07,0.65,1.68-0.24c1.55,0.51,2.51,6.61,3.12,8.52
		c0.08,0.04,0.16,0.08,0.24,0.12c0.96-1.73,2.55-4.36,2.64-6.48c0.08-0.08,0.16-0.16,0.24-0.24c0.28,0.28,0.56,0.56,0.84,0.84
		c0.43-0.4,0.41-0.74,1.08-0.96c0.8,5.38,1.6,9.39,6.36,10.56c-0.12,0.08-0.24,0.16-0.36,0.24c0.16,0.08,0.32,0.16,0.48,0.24
		c0,0.04,0,0.08,0,0.12c-0.28,0.2-0.56,0.4-0.84,0.6c-3.5-0.05-5.25-3.57-6.24-6.12C1904.3,1214.24,1904.5,1213.25,1903.68,1212.84z
		 M1909.2,1247.4c-1.45,0.24-2.27-0.54-2.88-1.2c-4.01-4.36-2.09-7.6,1.32-11.16c0.86,0.21,2.04-0.04,2.88,0.6
		c-0.24,0-0.48,0-0.72,0c-0.08,0.04-0.16,0.08-0.24,0.12C1910.04,1238.73,1915.23,1246.42,1909.2,1247.4z M1915.44,1218.36
		c-0.01,3.24,2.05,6.26,2.04,9.36c-0.39,0.3-0.71-0.15-1.08,0.12c-2.65-1.39-2.59-11.16-3.48-14.76c0-0.2,0-0.4,0-0.6
		c0.6,0.36,0.49,1.99,0.48,2.64c1.13-0.59,0.69-2.12,1.32-3.24c1.27-2.26,2.33-1.77,3.96-2.88c0.36,0.08,0.72,0.16,1.08,0.24
		C1923.75,1211.17,1917.36,1217.77,1915.44,1218.36z M1929,1191.6c-0.32-1.76-0.64-3.52-0.96-5.28c-0.08-0.12-0.16-0.24-0.24-0.36
		c-1.24,0.95-2.02,2.25-3.48,3c-0.24-0.04-0.48-0.08-0.72-0.12c-1.16-0.62-2.17-2.3-2.64-3.6c-0.08-0.04-0.16-0.08-0.24-0.12
		c-1.29,1.42-1.18,3.35-2.64,4.44c-3.13,2.34-7.81-5.36-8.4-7.68c-0.16,0-0.32,0-0.48,0c-0.69,1.7-0.59,4.09-1.32,6
		c-0.28,0.44-0.56,0.88-0.84,1.32c-0.08,0.04-0.16,0.08-0.24,0.12c-0.44-0.4-0.88-0.8-1.32-1.2c-0.42-3.28-0.08-13.69-2.04-15.24
		c0.04-0.12,0.08-0.24,0.12-0.36c0.24-0.24,0.48-0.48,0.72-0.72c0.64,0.51,0.29,0.49,0.48,1.08c0,0.08,0,0.16,0,0.24
		c0.16-0.16,0.32-0.32,0.48-0.48c1.28,1.31,1.74,7.69,1.68,10.44c0.08,0.04,0.16,0.08,0.24,0.12c0.87-1.46,0.86-2.88,2.04-3.96
		c0.5,0.31,0.45,0.3,1.2,0.24c0.9,3.06,3.17,7.65,6.12,8.76c2.68-1.45,1.91-3.76,3.24-6.24c0.18-0.16,0-0.04,0.24,0
		c0.32-0.33,0.43-0.56,0.48-1.2c0.12,0.32,0.24,0.64,0.36,0.96c0.08,0.04,0.16,0.08,0.24,0.12c0.08-0.4,0.16-0.8,0.24-1.2
		c1.08,2.23,1.46,4.57,2.64,6.48c2.61-0.57,3.43-3.08,3.36-5.88c0.25,0.08,0.17,0.08,0.48,0.36c0.08-0.16,0.16-0.32,0.24-0.48
		c0.08-0.04,0.16-0.08,0.24-0.12c0.2,0.93,0.26,0.95,0.96,0.84c0.84,4.72,1.68,9.44,2.52,14.16c0.29,1.52,0.83,3.8,0.36,5.64
		c-1.12,4.41-5.45,4.62-9.24,2.76c-0.82-0.4-1.19,0.1-1.8-0.6c0-0.04,0-0.08,0-0.12c2.24-0.33,5.05,1.79,7.44,0.36
		C1932.43,1201.74,1929.82,1195.22,1929,1191.6z M1929.96,1214.28c-1.09,0.79,1.44,9.33-3.24,8.64c-3.07-0.46-5.44-5.76-3.48-9
		c0.57-0.94,2.53-1.82,2.52-2.76c0.84,0,1.68,0,2.52,0c2.06,2.19,3.88,1.95,4.68,6.36c0.04,0,0.08,0,0.12,0
		c2.58-1.93,3.39-4.03,5.16-6.6c0.2,0,0.4,0,0.6,0c0.39,0.29,0.49,0.42,0.84,0.48c-0.95,4.29-6.17,5.69-6.48,10.2
		c-0.08,0.12-0.16,0.24-0.24,0.36c-0.28,0-0.56,0-0.84,0c-0.76-2-1.18-5.27-1.8-7.44
		C1930.2,1214.44,1930.08,1214.36,1929.96,1214.28z M1979.04,1255.32c-3,0.85-4.19-1.47-6.12-3c-3.82,2.9-9.75,4.46-12.96-0.24
		c-6.01,0.41-8.58-3.65-10.8-8.04c-1.72,0.58-3.45,6.14-4.08,7.68c-0.4,0.25-0.48,0.34-1.2,0.36c-0.74-1.05-0.53-1.63-0.72-2.88
		c0.07-0.49,0.01-0.44-0.24-0.84c-1.67,0.37-1.78,1.73-3,2.4c-3.19,1.76-6.23,0.6-7.56-1.8c-3.17-5.69,2.59-11.9,7.44-10.08
		c0.12,0.52,0.24,1.04,0.36,1.56c-1.38,0.62-2.6-0.98-4.32,0.12c-2.36,1.51-3.74,7.91-0.6,9.36c1.18,0.55,2.67-0.29,3.6-0.72
		c5.29-2.48,3.18-3.69,4.56-8.88c-0.27-0.71-0.32-1.58,0-2.28c0.18-0.23,0.38-0.3,0.6-0.48c0.28,0.04,0.56,0.08,0.84,0.12
		c0.08,0,0.16,0,0.24,0c0.97,1.42,0.62,5.63,0.36,6.84c0.08,0.08,0.16,0.16,0.24,0.24c0.71-0.58,1.53-1.65,1.8-2.64
		c0.68-0.16,1.36-0.32,2.04-0.48c4.28,2.98,1.73,6.35,8.4,8.4c0.44,0,0.88,0,1.32,0c-0.79-3.97,3.55-9.68,7.56-6.6
		c3.49,2.69-2.44,7.24-4.56,7.8c-0.08,0.12-0.16,0.24-0.24,0.36c1.33,1.43,3.03,1.92,5.28,1.2c-0.08-1.2-0.16-2.4-0.24-3.6
		c0.38-1.98,2.38-4.71,4.8-4.44c0.88,0.1,1.7,1.19,2.64,1.56c0.85,1.44-0.16,3.17,0.48,4.8
		C1975.59,1252.72,1979.3,1253.55,1979.04,1255.32z M1982.88,1253.88c-0.54,1.12,1.37,7.65,1.8,9.12c-0.4,0.32-0.8,0.64-1.2,0.96
		c-1.93-1.3-3.15-4.6-3.72-7.2c-0.04-0.92-0.08-1.84-0.12-2.76c-0.44-0.44-0.88-0.88-1.32-1.32c-0.04-0.2-0.08-0.4-0.12-0.6
		c0.52,0,1.04,0,1.56,0c0.43-1.45-0.02-2.77-0.12-4.2c3.37-1.7,2.32-6.35,7.32-6.36
		C1991.17,1245.78,1991.64,1254.11,1982.88,1253.88z M1989.48,1191.6c-0.52-0.08-1.04-0.16-1.56-0.24c-0.17-0.4-0.07-0.25-0.36-0.48
		c0.04-0.16,0.08-0.32,0.12-0.48c0.6-0.08,1.2-0.16,1.8-0.24c-0.48-3.56,1.47-5.92,3.48-7.44c0.88,0,1.76,0,2.64,0
		c0.16,0.2,0.32,0.4,0.48,0.6c0.52,3.26-1.81,6.64-4.56,7.44c-0.8,3.31,5.54,6.94,9.12,6.24c1.41-0.28,2.63-1.17,3.48-1.8
		c0.2,0.2,0.4,0.4,0.6,0.6c0.08,0,0.16,0,0.24,0C2001.35,1201.77,1990.38,1197.62,1989.48,1191.6z M2001.12,1228.68
		c-0.32,0.16-0.64,0.32-0.96,0.48c-0.08-0.04-0.16-0.08-0.24-0.12c-0.82-2.35-1.04-7.97-1.44-10.44c0.08-0.04,0.16-0.08,0.24-0.12
		c0.9,0.18,0.96,0.51,1.8,0.72C2001.41,1221.75,2001.37,1225.34,2001.12,1228.68z M2003.16,1260.12c-0.12-0.04-0.24-0.08-0.36-0.12
		c-0.31-0.47-0.76-1.1-0.48-1.8c0.04-0.12,0.08-0.24,0.12-0.36c0.45-0.08,0.8-0.08,0.96-0.24c0.2,0.04,0.4,0.08,0.6,0.12
		c0.24,0.44,0.48,0.88,0.72,1.32C2004.29,1259.62,2003.93,1259.86,2003.16,1260.12z M2006.76,1246.56c-0.53,1.28-6.37,6.12-7.2,5.88
		c-0.12-0.48-0.24-0.96-0.36-1.44c2.19-1.93,6.01-3.4,6.12-7.32c-1.15-1.68-6.57-2.54-7.32,0.12c-0.24,0.08-0.48,0.16-0.72,0.24
		c-0.34-0.51-0.48-0.68-0.48-1.68c1.29-0.85,2.76-1.15,4.32-1.92c2.48,0.36,4.48,1.18,6,2.76
		C2006.65,1244.2,2007.15,1245.62,2006.76,1246.56z M2026.08,1237.92c-0.5,0.69-1.36,1.06-2.16,1.44c-0.71-0.37-0.99-0.74-1.56-0.6
		c-0.18-0.76-0.49-1.6-0.72-2.64c0.8,0.52,1.6,1.04,2.4,1.56c2.43-2.69,2.27-6.6,3.36-10.8c0-0.2,0-0.4,0-0.6
		c-1.16,0.72-2.32,1.44-3.48,2.16c-1.16,0.39-2.77,0.27-4.08,0c-6.77-1.41-4.25-7.16-8.4-9.96c-1.87,0.23-4.46,6.13-4.2,8.4
		c-0.71-0.28-0.27,0.27-0.96-0.24c-0.32,0.28-0.37,0.32-0.48,0.84c-0.83-1.45-0.84-4.07-0.48-6.12c0.61,0.14,0.84,0.24,1.2,0.6
		c1.04-1.52,2.08-3.04,3.12-4.56c0.48-0.16,0.96-0.32,1.44-0.48c1.29,0.04,1.67,0.46,2.52,0.84c0.16,0.91,3.14,8.39,4.2,9
		c0.6,0.08,1.2,0.16,1.8,0.24c3.31,0.66,5.59,0.08,6.48-3.12c0-0.28,0-0.56,0-0.84c-0.04,0-0.08,0-0.12,0
		c-0.72,0.96-1.44,1.92-2.16,2.88c-0.48,0.2-0.96,0.4-1.44,0.6c-0.72-0.32-1.44-0.64-2.16-0.96c-0.44-0.85-0.15-1.46-0.24-2.88
		c-0.2-3.14,2.64-5.36,5.88-3.96c0.4,0.36,0.8,0.72,1.2,1.08c0.65,0.35,1.3,0.26,1.68,0.84
		C2031.05,1224.17,2027.67,1235.71,2026.08,1237.92z M2029.68,1199.64c-0.2,0.36-0.41,0.46-0.96,0.6c0,0.08,0,0.16,0,0.24
		c-0.86-0.71-0.8-5.03-0.84-6.96c-1.23-0.53-2.05-0.3-2.76-1.32c0-0.04,0-0.08,0-0.12c0.88-0.04,1.76-0.08,2.64-0.12
		c-0.09-2.89-1.15-5.84-0.6-8.4c0.08,0.16,0.16,0.32,0.24,0.48c0.16-0.16,0.32-0.32,0.48-0.48c0.24,0,0.48,0,0.72,0
		c0.28,2.68,0.56,5.36,0.84,8.04c0.04,0.04,0.08,0.08,0.12,0.12c2.44-0.28,4.7-1.13,6.72-2.04c0.42-0.37,0.83-5.66,0.72-6
		c0.12-0.08,0.24-0.16,0.36-0.24c0.08,0.67,0.01,0.72,0.48,1.08c0,0.08,0,0.16,0,0.24c0.32-0.34,0.3-0.37,0.24-0.84
		c0.25-0.2,0.24-0.19,0.72-0.24c-0.02,4.59-1.33,9.37,0.24,12.96c2.04,0.37,3.81,0.47,6.12,0.12c-0.25-2.42-0.34-4.89,1.2-6.12
		c1.1-0.88,4.09-0.87,4.68,0.36c1.33,1.65-0.9,3.82-0.6,4.8c-0.66,0.81-1.66,1.18-2.76,1.56c0.85,1.67,3.75,3.85,6.24,1.92
		c0.97-0.65,1.96-5.99,2.16-7.56c0.75-0.4,1.35,0.01,2.04-0.12c-0.36,1.48-0.72,2.96-1.08,4.44c0,0.16,0,0.32,0,0.48
		c1.24-0.4,2.48-0.8,3.72-1.2c2.03-1.34,0.82-3.22,4.32-2.76c0.69,0.09,1.04-0.23,1.56,0.24c0.08,0,0.16,0,0.24,0
		c-0.21,2.34-2.48,2.42-3.96,3.48c-0.84,0.82-0.17,3.24,0.12,4.08c1.44,4.12,5.66,3.24,9.36,3.84c-0.6,1.32-3.38,1.15-5.04,1.08
		c-3.87-0.16-6.04-2.6-6.72-5.88c0-0.76,0-1.52,0-2.28c0-0.08,0-0.16,0-0.24c-1.49,0.18-2.57,0.76-3.72,1.2
		c-0.34,0.83-0.2,2.27-0.48,3.24c-0.54,0.26-0.89,0.33-1.44,0.72c-0.65-0.31-0.87-0.58-1.08-1.32c-3.54,1.42-6.58,0.47-7.92-2.52
		c-0.97-0.17-1.83,0.33-2.64,0.48c-1.56-0.16-3.12-0.32-4.68-0.48c-2.15-0.82-2.13-4.49-2.28-7.2c-2.05,0.69-3.78,1.99-6.48,2.04
		C2029.09,1194.87,2030.43,1197.68,2029.68,1199.64z M2076.96,1233c-0.29,0.37-0.39,0.48-0.96,0.6c-2.04,2.25-5.46-1.86-5.88-3.6
		c-2.23-0.36-8.86,4.46-9.48-1.2c-0.3-0.38-0.17-0.42-0.72-0.6c-0.59,1.32-2.78,4.21-4.8,3.96c-0.95-0.12-0.89-0.86-2.16-0.6
		c-1.54,0.31-3.73,1.39-5.76,0.84c-4.68-1.27-5.09-7.2-3.24-10.92c-0.44-0.08-0.88-0.16-1.32-0.24c-2,1.88-4,3.76-6,5.64
		c-1.18,1.5-1.48,3.01-3.12,4.08c0.14-0.33,0.73-6.03,0.72-6.6c0.08-0.04,0.16-0.08,0.24-0.12c0.46,0.48,0.66,0.77,1.44,0.96
		c1.72-1.6,3.44-3.2,5.16-4.8c1.55-0.02,2.09,0.31,2.88,0.96c0.83-0.71,1.22-1.51,2.28-2.04c1.05,0.24,0.98,0.57,1.92,0
		c0.92,1.98-1.76,5.78-3.24,6.36c-1.02,2.04,1.55,5.18,3.12,5.52c0.74,0.16,4.77-0.73,5.4-1.08c0.61-0.66,0.05-1.47,0.24-2.4
		c0.64-3.08,2.24-6.29,6.12-5.28c0.04,0,0.08,0,0.12,0c0.79-2.56,0.99-5.19,2.52-6.96c0.46,0.24,0.42,0.18,0.48,0.84
		c0.12,0.08,0.24,0.16,0.36,0.24c0.61-0.23,0.55-0.51,1.2-0.72c-0.55,4.89-3.45,9.18-1.56,13.68c1.51,0.91,3.68,0.5,5.16-0.12
		c0.61-0.25,0.57-0.94,1.32-1.2c-0.02-2.21,0.44-3.87,1.44-5.04c0.04,0,0.08,0,0.12,0c0.28,0.36,0.56,0.72,0.84,1.08
		c0.32-0.2,0.64-0.4,0.96-0.6c-0.09,2.39-2,4-1.44,5.76c0.28,0.28,0.56,0.56,0.84,0.84c0.83,1.91,0.08,1.75,2.64,2.4
		c0.93-0.43,1.32-0.78,1.56-1.92c0.12,0,0.24,0,0.36,0c0.04,0,0.08,0,0.12,0c0.08,0.12,0.16,0.24,0.24,0.36
		c-0.1,0.64,0.01,0.49-0.48,0.72C2076.72,1232.2,2076.84,1232.6,2076.96,1233z M2112.48,1226.28c-0.6,3.58-1.23,7.29-0.72,10.44
		c-0.55-0.25-0.57-0.45-1.44-0.48c-0.16-0.56-0.32-1.12-0.48-1.68c-1.19,0.42-1.72,1.57-3,2.04c-5.7,2.1-5.87-4.5-7.32-7.68
		c0-0.08,0-0.16,0-0.24c-2.41,1.29-2.97,5.18-5.4,6.6c-0.12-0.08-0.24-0.16-0.36-0.24c-0.65,0.08-1.02-0.48-1.08-1.32
		c-0.24-0.04-0.48-0.08-0.72-0.12c-6.65,4.8-11.53,2.04-11.76-6c-0.57-0.03-0.42-0.05-0.84,0.12c-0.04-0.04-0.08-0.08-0.12-0.12
		c0.29-0.73,0.82-0.45,1.2-0.96c1.64-2.19,0.47-4.24,3.6-5.4c5.47,0.56,2.29,6.43-1.56,6.84c-0.71,2.55,1.05,5.8,2.64,6.6
		c4.26-1.22,7.41-2.48,8.52-6.84c0.81,0.05,0.82,0.15,1.08,0.72c0.59-0.09,0.49-0.12,0.84-0.36c-0.14,1.23-0.64,1.72-0.48,3
		c0.04,0,0.08,0,0.12,0c1.51-1.36,2.88-3.65,3.84-5.52c0.47,0.16,0.41,0.23,0.72,0.48c0.16-0.16,0.32-0.32,0.48-0.48
		c0.24,0.08,0.48,0.16,0.72,0.24c0.68,3.26,1.23,8.11,3.96,9.36c3.27-1.17,5.76-3.47,5.16-7.68c-0.46-0.38-0.66-0.35-0.24-0.72
		c-0.16-0.5-0.06-0.38-0.48-0.6c1.35-1.39,1.89-4.33,2.52-6.6c0.72-0.19,0.53,0.36,1.44,0.6c-0.28,1.64-0.56,3.28-0.84,4.92
		c2.76-0.05,6.76-0.33,9,0.6c0.32,0.15,0.66,0.51,1.2,0.84C2119.69,1226.89,2115.76,1225.96,2112.48,1226.28z M2128.92,1226.04
		c-0.32,0.03-0.29-0.15-0.84-0.48c0.04,0.2,0.08,0.4,0.12,0.6c-0.7,0.16-0.95-0.31-2.04-0.36c-2.39,4.57,1.89,14.41-6.72,13.2
		c0.6,0,1.2,0,1.8,0c-0.04-0.12-0.08-0.24-0.12-0.36c-0.56-0.08-1.12-0.16-1.68-0.24c7.67-3.39,1.29-10.89,6.12-14.16
		c0.95,0.17,2.55,0.58,3.12,1.2c-0.16-0.04-0.32-0.08-0.48-0.12c0.24,0.2,0.48,0.4,0.72,0.6
		C2128.92,1225.96,2128.92,1226,2128.92,1226.04z M2129.76,1226.76c-0.24-0.24-0.48-0.48-0.72-0.72c0.24,0.2,0.48,0.4,0.72,0.6
		C2129.76,1226.68,2129.76,1226.72,2129.76,1226.76z"/>
	<path class="st0" d="M1994.28,1184.64c-0.24-0.08-0.48-0.16-0.72-0.24c-0.92,1.04-1.47,2.16-2.16,3.48c0,0.36,0,0.72,0,1.08
		c0.04,0,0.08,0,0.12,0C1992.78,1188.03,1994.17,1186.33,1994.28,1184.64z"/>
	<path class="st0" d="M1964.04,1185.96c0-0.16,0-0.32,0-0.48c-0.16,0-0.32,0-0.48,0c-1.13,1.45-2.91,2.68-2.88,4.92
		c0.2,0.16,0.4,0.32,0.6,0.48C1962.8,1189.47,1963.35,1188.3,1964.04,1185.96z"/>
	<path class="st0" d="M2047.08,1195.92c0.12,0,0.24,0,0.36,0c1.01-1.07,1.92-1.84,2.16-3.72c-0.34-0.44-0.59-0.64-1.32-0.72
		c-1.2,1.11-1.5,2.08-1.32,4.32C2047,1195.84,2047.04,1195.88,2047.08,1195.92z"/>
	<path class="st0" d="M1917.96,1210.44c-0.16,0.04-0.32,0.08-0.48,0.12c-1.2,1.62-1.57,3.53-2.04,5.4c0,0.2,0,0.4,0,0.6
		c1.28-0.28,4.09-4.08,3.36-5.76C1918.56,1210.53,1918.42,1210.51,1917.96,1210.44z"/>
	<path class="st0" d="M1926.6,1212.84c-2.1,2.2-3.71,6.97,0.48,8.4c1.84-1.46,1-6.91-0.12-8.4
		C1926.84,1212.84,1926.72,1212.84,1926.6,1212.84z"/>
	<path class="st0" d="M1956.84,1218.24c2.4-0.96,4.88-1.35,6-3.6c-0.59-0.6-1.78-0.63-2.88-0.72c-2.2,0.91-3.45,0.97-3.36,4.2
		C1956.68,1218.16,1956.76,1218.2,1956.84,1218.24z"/>
	<path class="st0" d="M1969.56,1215.12c-3,1.11-5.61,3.77-3.12,7.44C1968.35,1222.17,1972.07,1216.14,1969.56,1215.12z"/>
	<path class="st0" d="M2023.56,1219.68c-0.16,0.04-0.32,0.08-0.48,0.12c-1.18,1.53-1.59,2.48-1.32,4.68
		c0.24,0.12,0.48,0.24,0.72,0.36c1-1.32,2-2.64,3-3.96c0-0.08,0-0.16,0-0.24C2025.01,1220.02,2024.5,1219.84,2023.56,1219.68z"/>
	<path class="st0" d="M1973.04,1220.16c-0.04,0.08-0.08,0.16-0.12,0.24c0.16,0.08,0.32,0.16,0.48,0.24
		C1973.24,1220.28,1973.33,1220.37,1973.04,1220.16z"/>
	<path class="st0" d="M2085,1222.92c-0.2,0.04-0.4,0.08-0.6,0.12c-1.01,0.46-1.62,1.85-1.8,3.12
		C2084.3,1226.07,2085.12,1224.57,2085,1222.92z"/>
	<path class="st0" d="M2059.08,1223.4c-0.32,0.04-0.64,0.08-0.96,0.12c-1.73,1.48-3.04,2.94-2.76,6.12c0.04,0,0.08,0,0.12,0
		c2.16-1.27,4.1-2.27,4.56-5.28c-0.08-0.24-0.16-0.48-0.24-0.72C2059.56,1223.56,2059.32,1223.48,2059.08,1223.4z"/>
	<path class="st0" d="M1907.76,1236.96c-1.86,2.54-3.4,8.2,1.44,8.88c0.28-0.24,0.56-0.48,0.84-0.72
		C1910.55,1242.84,1909.4,1237.95,1907.76,1236.96z"/>
	<path class="st0" d="M1985.4,1243.56c-1.72,1.68-3.4,5.25-2.88,8.64c4.37,0.1,7.67-5.69,4.2-8.4
		C1986.28,1243.72,1985.84,1243.64,1985.4,1243.56z"/>
	<path class="st0" d="M1951.08,1245.12c0.2,0.04,0.4,0.08,0.6,0.12c0.04-0.12,0.08-0.24,0.12-0.36c-0.24-0.08-0.48-0.16-0.72-0.24
		C1951.08,1244.8,1951.08,1244.96,1951.08,1245.12z"/>
	<path class="st0" d="M1965.36,1245.24c0-0.04,0-0.08,0-0.12c-0.39-0.19-0.87-0.26-1.56-0.24c-1.4,1.18-2.56,2.03-2.52,4.68
		C1963.09,1249.61,1965.2,1247.33,1965.36,1245.24z"/>
	<path class="st0" d="M1969.32,1251.48c0.08,0.04,0.16,0.08,0.24,0.12c1.52-0.84,1.37-2.12,1.8-3.84c-0.16-0.08-0.32-0.16-0.48-0.24
		C1969.77,1248.47,1969.24,1249.29,1969.32,1251.48z"/>
</g>
</svg>
